<?xml version="1.0" standalone="no"?>
<!DOCTYPE svg PUBLIC "-//W3C//DTD SVG 1.1//EN" "http://www.w3.org/Graphics/SVG/1.1/DTD/svg11.dtd" >
<svg>
<metadata>
Created by FontForge 20090622 at Tue Jan 22 13:11:30 2019
 By deploy user
Copyright (c) 2015 by Hubert &#38; Fischer. All rights reserved.
</metadata>
<defs>
<font id="Rubik-Light" horiz-adv-x="536" >
  <font-face 
    font-family="Rubik Light"
    font-weight="300"
    font-stretch="normal"
    units-per-em="1000"
    panose-1="2 0 6 4 0 0 0 2 0 4"
    ascent="800"
    descent="-200"
    x-height="520"
    cap-height="700"
    bbox="-204 -225 1071 905"
    underline-thickness="50"
    underline-position="-50"
    unicode-range="U+000D-U+FB4A"
  />
<missing-glyph horiz-adv-x="290" 
 />
    <glyph glyph-name="f_f" unicode="ff" horiz-adv-x="642" 
d="M191 22q0 -22 -22 -22h-17q-22 0 -22 22v440h-89q-22 0 -22 22v14q0 22 22 22h89v57q0 33 6.5 63t23.5 52t46 35t75 13h52q22 0 22 -22v-14q0 -22 -22 -22h-52q-53 0 -71.5 -28.5t-18.5 -81.5v-52h221v57q0 33 6.5 63t23.5 52t46 35t75 13h52q22 0 22 -22v-14
q0 -22 -22 -22h-52q-53 0 -71.5 -28.5t-18.5 -81.5v-52h132q22 0 22 -22v-14q0 -22 -22 -22h-132v-440q0 -22 -22 -22h-17q-22 0 -22 22v440h-221v-440z" />
    <glyph glyph-name="f_f_i" unicode="ffi" horiz-adv-x="777" 
d="M696 22q0 -22 -22 -22h-17q-22 0 -22 22v440h-162v-440q0 -22 -22 -22h-17q-22 0 -22 22v440h-221v-440q0 -22 -22 -22h-17q-22 0 -22 22v440h-89q-22 0 -22 22v14q0 22 22 22h89v57q0 33 6.5 63t23.5 52t46 35t75 13h52q22 0 22 -22v-14q0 -22 -22 -22h-52
q-53 0 -71.5 -28.5t-18.5 -81.5v-52h221v57q0 33 6.5 63t23.5 52t46 35t75 13h111q22 0 22 -22v-14q0 -22 -22 -22h-111q-53 0 -71.5 -28.5t-18.5 -81.5v-52h201q22 0 22 -22v-476z" />
    <glyph glyph-name="f_f_l" unicode="ffl" horiz-adv-x="837" 
d="M191 22q0 -22 -22 -22h-17q-22 0 -22 22v440h-89q-22 0 -22 22v14q0 22 22 22h89v57q0 33 6.5 63t23.5 52t46 35t75 13h52q22 0 22 -22v-14q0 -22 -22 -22h-52q-53 0 -71.5 -28.5t-18.5 -81.5v-52h221v57q0 33 6.5 63t23.5 52t46 35t75 13h52q22 0 22 -22v-14
q0 -22 -22 -22h-52q-53 0 -71.5 -28.5t-18.5 -81.5v-52h221v198q0 22 22 22h17q22 0 22 -22v-696q0 -22 -22 -22h-17q-22 0 -22 22v440h-221v-440q0 -22 -22 -22h-17q-22 0 -22 22v440h-221v-440z" />
    <glyph glyph-name="fi" unicode="fi" horiz-adv-x="495" 
d="M414 22q0 -22 -22 -22h-17q-22 0 -22 22v440h-162v-440q0 -22 -22 -22h-17q-22 0 -22 22v440h-89q-22 0 -22 22v14q0 22 22 22h89v57q0 33 6.5 63t23.5 52t46 35t75 13h111q22 0 22 -22v-14q0 -22 -22 -22h-111q-53 0 -71.5 -28.5t-18.5 -81.5v-52h201q22 0 22 -22v-476z
" />
    <glyph glyph-name="fl" unicode="fl" horiz-adv-x="555" 
d="M41 462q-22 0 -22 22v14q0 22 22 22h89v57q0 33 6.5 63t23.5 52t46 35t75 13h52q22 0 22 -22v-14q0 -22 -22 -22h-52q-53 0 -71.5 -28.5t-18.5 -81.5v-52h221v198q0 22 22 22h17q22 0 22 -22v-696q0 -22 -22 -22h-17q-22 0 -22 22v440h-221v-440q0 -22 -22 -22h-17
q-22 0 -22 22v440h-89z" />
    <glyph glyph-name=".notdef" horiz-adv-x="290" 
 />
    <glyph glyph-name=".null" horiz-adv-x="0" 
 />
    <glyph glyph-name=".null" horiz-adv-x="0" 
 />
    <glyph glyph-name="nonmarkingreturn" unicode="&#xd;" horiz-adv-x="290" 
 />
    <glyph glyph-name="space" unicode=" " horiz-adv-x="258" 
 />
    <glyph glyph-name="commaaccent" unicode="&#xf6c3;" horiz-adv-x="245" 
d="M91 -77q2 12 7.5 19.5t17.5 7.5h45q7 0 11 -5t4 -11q0 -9 -4 -18l-40 -105q-5 -10 -10 -15.5t-16 -5.5h-18q-8 0 -12 6t-2 15z" />
    <glyph glyph-name="dieresis" unicode="&#xa8;" horiz-adv-x="376" 
d="M306 649q0 -10 -6.5 -16t-16.5 -6h-38q-22 0 -22 22v38q0 10 6 16.5t16 6.5h38q10 0 16.5 -6.5t6.5 -16.5v-38zM153 649q0 -10 -6.5 -16t-16.5 -6h-38q-22 0 -22 22v38q0 10 6 16.5t16 6.5h38q10 0 16.5 -6.5t6.5 -16.5v-38z" />
    <glyph glyph-name="dotaccent" unicode="&#x2d9;" horiz-adv-x="233" 
d="M163 639q0 -10 -6.5 -16t-16.5 -6h-48q-22 0 -22 22v48q0 10 6 16.5t16 6.5h48q10 0 16.5 -6.5t6.5 -16.5v-48z" />
    <glyph glyph-name="hungarumlaut" unicode="&#x2dd;" horiz-adv-x="416" 
d="M111 706q5 10 13 14.5t24 4.5h35q20 0 20 -19q0 -7 -6 -13l-71 -84q-12 -14 -30 -14h-10q-16 0 -16 16q0 4 1.5 8t3.5 7zM254 706q5 10 13 14.5t24 4.5h35q20 0 20 -19q0 -7 -6 -13l-71 -84q-12 -14 -30 -14h-10q-16 0 -16 16q0 4 1.5 8t3.5 7z" />
    <glyph glyph-name="grave" unicode="`" horiz-adv-x="311" 
d="M236 624q5 -5 5 -13q0 -16 -16 -16h-10q-10 0 -16.5 1.5t-14.5 8.5l-109 89q-5 5 -5 12q0 19 19 19h41q15 0 22 -4t15 -14z" />
    <glyph glyph-name="macron" unicode="&#xaf;" horiz-adv-x="383" 
d="M92 622q-22 0 -22 22v14q0 22 22 22h199q22 0 22 -22v-14q0 -22 -22 -22h-199z" />
    <glyph glyph-name="ogonek" unicode="&#x2db;" horiz-adv-x="313" 
d="M202 -220q-61 0 -96.5 37t-35.5 101t35.5 101.5t96.5 37.5h19q22 0 22 -22v-13q0 -22 -22 -22h-15q-33 0 -54.5 -22t-21.5 -60t21.5 -59.5t54.5 -21.5h15q22 0 22 -22v-13q0 -22 -22 -22h-19z" />
    <glyph glyph-name="ring" unicode="&#x2da;" horiz-adv-x="300" 
d="M120 665q0 -13 8.5 -21.5t21.5 -8.5t21.5 8.5t8.5 21.5t-8.5 21.5t-21.5 8.5t-21.5 -8.5t-8.5 -21.5zM70 665q0 33 23.5 54t56.5 21t56.5 -21t23.5 -54t-23.5 -54t-56.5 -21t-56.5 21t-23.5 54z" />
    <glyph glyph-name="tilde" unicode="&#x2dc;" horiz-adv-x="379" 
d="M70 611q0 29 20 51t51 22q18 0 30 -5.5t22 -11.5l19 -11.5t20 -5.5q9 0 13.5 4.5t8 10.5t7.5 10.5t12 4.5h20q8 0 12 -5t4 -11q0 -29 -21 -51.5t-51 -22.5q-17 0 -29.5 5.5t-22.5 11.5l-19 11.5t-19 5.5q-9 0 -13.5 -4.5t-8 -10t-7.5 -10t-12 -4.5h-20q-8 0 -12 5t-4 11z
" />
    <glyph glyph-name="Acute" unicode="&#xf6c9;" horiz-adv-x="316" 
d="M144 862q8 10 15 14t22 4h46q19 0 19 -19q0 -7 -5 -12l-109 -89q-8 -7 -14.5 -8.5t-16.5 -1.5h-15q-16 0 -16 16q0 8 5 13z" />
    <glyph glyph-name="Breve" horiz-adv-x="370" 
d="M70 856q0 8 5 13.5t14 5.5h15q9 0 14 -5.5t5 -13.5q0 -12 3 -24t10 -21t19 -15t30 -6t30 6t19 15t10 21t3 24q0 8 5 13.5t14 5.5h15q9 0 14 -5.5t5 -13.5q0 -21 -5 -42t-18 -37.5t-35.5 -26.5t-56.5 -10t-56.5 10t-35.5 26.5t-18 37.5t-5 42z" />
    <glyph glyph-name="Caron" unicode="&#xf6ca;" horiz-adv-x="412" 
d="M201 750q-8 0 -14.5 1.5t-17.5 12.5l-87 85q-12 12 -12 20q0 11 14 11h17q6 0 13.5 -2t11.5 -5l80 -60l80 60q4 3 11.5 5t13.5 2h17q14 0 14 -11q0 -8 -12 -20l-87 -85q-11 -11 -17.5 -12.5t-14.5 -1.5h-10z" />
    <glyph glyph-name="Cedilla" horiz-adv-x="320" 
d="M178 27l-42 -85q13 8 38 8q33 0 54.5 -23t21.5 -59t-23 -62.5t-71 -25.5q-21 0 -39 6t-29.5 14t-15.5 16.5t2 14.5l14 13q6 6 11.5 4t12.5 -7t17 -10t27 -5t30 10.5t13 29.5q0 18 -13 28t-30 10q-12 0 -21 -3l-15.5 -5t-12 -2t-11.5 6l-16 17q-5 6 -1.5 14t6.5 16l35 80
h58z" />
    <glyph glyph-name="Circumflex" horiz-adv-x="412" 
d="M211 880q8 0 14.5 -1.5t17.5 -12.5l87 -85q12 -12 12 -20q0 -11 -14 -11h-17q-6 0 -13.5 2t-11.5 5l-80 60l-80 -60q-4 -3 -11.5 -5t-13.5 -2h-17q-14 0 -14 11q0 8 12 20l87 85q11 11 17.5 12.5t14.5 1.5h10z" />
    <glyph glyph-name="commaaccent.cap" horiz-adv-x="243" 
d="M88 -77q2 12 7.5 19.5t17.5 7.5h45q7 0 11 -5t4 -11q0 -9 -4 -18l-40 -105q-5 -10 -10 -15.5t-16 -5.5h-18q-8 0 -12 6t-2 15z" />
    <glyph glyph-name="Dieresis" unicode="&#xf6cb;" horiz-adv-x="406" 
d="M336 772q0 -10 -6.5 -16t-16.5 -6h-38q-22 0 -22 22v38q0 10 6 16.5t16 6.5h38q10 0 16.5 -6.5t6.5 -16.5v-38zM153 772q0 -10 -6.5 -16t-16.5 -6h-38q-22 0 -22 22v38q0 10 6 16.5t16 6.5h38q10 0 16.5 -6.5t6.5 -16.5v-38z" />
    <glyph glyph-name="Dotaccent" horiz-adv-x="233" 
d="M163 772q0 -10 -6.5 -16t-16.5 -6h-48q-22 0 -22 22v48q0 10 6 16.5t16 6.5h48q10 0 16.5 -6.5t6.5 -16.5v-48z" />
    <glyph glyph-name="Hungarumlaut" unicode="&#xf6cf;" horiz-adv-x="426" 
d="M111 861q5 10 13 14.5t24 4.5h40q20 0 20 -19q0 -7 -6 -13l-71 -84q-12 -14 -30 -14h-15q-16 0 -16 16q0 4 1.5 8t3.5 7zM259 861q5 10 13 14.5t24 4.5h40q20 0 20 -19q0 -7 -6 -13l-71 -84q-12 -14 -30 -14h-15q-16 0 -16 16q0 4 1.5 8t3.5 7z" />
    <glyph glyph-name="Grave" unicode="&#xf6ce;" horiz-adv-x="316" 
d="M241 779q5 -5 5 -13q0 -16 -16 -16h-15q-10 0 -16.5 1.5t-14.5 8.5l-109 89q-5 5 -5 12q0 19 19 19h46q15 0 22 -4t15 -14z" />
    <glyph glyph-name="Macron" unicode="&#xf6d0;" horiz-adv-x="383" 
d="M92 750q-22 0 -22 22v22q0 22 22 22h199q22 0 22 -22v-22q0 -22 -22 -22h-199z" />
    <glyph glyph-name="Ogonek" horiz-adv-x="313" 
d="M202 -220q-61 0 -96.5 37t-35.5 101t35.5 101.5t96.5 37.5h19q22 0 22 -22v-13q0 -22 -22 -22h-15q-33 0 -54.5 -22t-21.5 -60t21.5 -59.5t54.5 -21.5h15q22 0 22 -22v-13q0 -22 -22 -22h-19z" />
    <glyph glyph-name="Ring" horiz-adv-x="300" 
d="M120 815q0 -13 8.5 -21.5t21.5 -8.5t21.5 8.5t8.5 21.5t-8.5 21.5t-21.5 8.5t-21.5 -8.5t-8.5 -21.5zM70 815q0 33 23.5 54t56.5 21t56.5 -21t23.5 -54t-23.5 -54t-56.5 -21t-56.5 21t-23.5 54z" />
    <glyph glyph-name="Tilde" horiz-adv-x="389" 
d="M70 766q0 14 6 28t16 25t23.5 18t28.5 7q18 0 31 -5.5t24.5 -11.5l21.5 -11.5t21 -5.5q9 0 13.5 4.5t8 10.5t7.5 10.5t12 4.5h20q8 0 12 -5t4 -11q0 -14 -6 -28.5t-16.5 -25.5t-24 -18t-28.5 -7q-17 0 -30.5 5.5t-25 11.5l-21.5 11.5t-20 5.5q-9 0 -13.5 -4.5t-8 -10
t-7.5 -10t-12 -4.5h-20q-8 0 -12 5t-4 11z" />
    <glyph glyph-name="A" unicode="A" horiz-adv-x="650" 
d="M502 175h-354l-62 -160q-2 -4 -7 -9.5t-15 -5.5h-20q-8 0 -14 6t-6 14q0 5 2 11l253 649q4 10 10.5 15t18.5 5h34q12 0 18.5 -5t10.5 -15l253 -649q2 -6 2 -11q0 -8 -6 -14t-14 -6h-20q-10 0 -15 5.5t-7 9.5zM172 235h306l-153 394z" />
    <glyph glyph-name="Aacute" unicode="&#xc1;" horiz-adv-x="650" 
d="M502 175h-354l-62 -160q-2 -4 -7 -9.5t-15 -5.5h-20q-8 0 -14 6t-6 14q0 5 2 11l253 649q4 10 10.5 15t18.5 5h34q12 0 18.5 -5t10.5 -15l253 -649q2 -6 2 -11q0 -8 -6 -14t-14 -6h-20q-10 0 -15 5.5t-7 9.5zM172 235h306l-153 394zM361 862q8 10 15 14t22 4h46
q19 0 19 -19q0 -7 -5 -12l-109 -89q-8 -7 -14.5 -8.5t-16.5 -1.5h-15q-16 0 -16 16q0 8 5 13z" />
    <glyph glyph-name="Abreve" unicode="&#x102;" horiz-adv-x="650" 
d="M502 175h-354l-62 -160q-2 -4 -7 -9.5t-15 -5.5h-20q-8 0 -14 6t-6 14q0 5 2 11l253 649q4 10 10.5 15t18.5 5h34q12 0 18.5 -5t10.5 -15l253 -649q2 -6 2 -11q0 -8 -6 -14t-14 -6h-20q-10 0 -15 5.5t-7 9.5zM172 235h306l-153 394zM210 856q0 8 5 13.5t14 5.5h15
q9 0 14 -5.5t5 -13.5q0 -12 3 -24t10 -21t19 -15t30 -6t30 6t19 15t10 21t3 24q0 8 5 13.5t14 5.5h15q9 0 14 -5.5t5 -13.5q0 -21 -5 -42t-18 -37.5t-35.5 -26.5t-56.5 -10t-56.5 10t-35.5 26.5t-18 37.5t-5 42z" />
    <glyph glyph-name="Acircumflex" unicode="&#xc2;" horiz-adv-x="650" 
d="M502 175h-354l-62 -160q-2 -4 -7 -9.5t-15 -5.5h-20q-8 0 -14 6t-6 14q0 5 2 11l253 649q4 10 10.5 15t18.5 5h34q12 0 18.5 -5t10.5 -15l253 -649q2 -6 2 -11q0 -8 -6 -14t-14 -6h-20q-10 0 -15 5.5t-7 9.5zM172 235h306l-153 394zM330 880q8 0 14.5 -1.5t17.5 -12.5
l87 -85q12 -12 12 -20q0 -11 -14 -11h-17q-6 0 -13.5 2t-11.5 5l-80 60l-80 -60q-4 -3 -11.5 -5t-13.5 -2h-17q-14 0 -14 11q0 8 12 20l87 85q11 11 17.5 12.5t14.5 1.5h10z" />
    <glyph glyph-name="Agrave" unicode="&#xc0;" horiz-adv-x="650" 
d="M502 175h-354l-62 -160q-2 -4 -7 -9.5t-15 -5.5h-20q-8 0 -14 6t-6 14q0 5 2 11l253 649q4 10 10.5 15t18.5 5h34q12 0 18.5 -5t10.5 -15l253 -649q2 -6 2 -11q0 -8 -6 -14t-14 -6h-20q-10 0 -15 5.5t-7 9.5zM172 235h306l-153 394zM355 779q5 -5 5 -13q0 -16 -16 -16
h-15q-10 0 -16.5 1.5t-14.5 8.5l-109 89q-5 5 -5 12q0 19 19 19h46q15 0 22 -4t15 -14z" />
    <glyph glyph-name="Adieresis" unicode="&#xc4;" horiz-adv-x="650" 
d="M502 175h-354l-62 -160q-2 -4 -7 -9.5t-15 -5.5h-20q-8 0 -14 6t-6 14q0 5 2 11l253 649q4 10 10.5 15t18.5 5h34q12 0 18.5 -5t10.5 -15l253 -649q2 -6 2 -11q0 -8 -6 -14t-14 -6h-20q-10 0 -15 5.5t-7 9.5zM172 235h306l-153 394zM458 772q0 -10 -6.5 -16t-16.5 -6h-38
q-22 0 -22 22v38q0 10 6 16.5t16 6.5h38q10 0 16.5 -6.5t6.5 -16.5v-38zM275 772q0 -10 -6.5 -16t-16.5 -6h-38q-22 0 -22 22v38q0 10 6 16.5t16 6.5h38q10 0 16.5 -6.5t6.5 -16.5v-38z" />
    <glyph glyph-name="Amacron" unicode="&#x100;" horiz-adv-x="650" 
d="M502 175h-354l-62 -160q-2 -4 -7 -9.5t-15 -5.5h-20q-8 0 -14 6t-6 14q0 5 2 11l253 649q4 10 10.5 15t18.5 5h34q12 0 18.5 -5t10.5 -15l253 -649q2 -6 2 -11q0 -8 -6 -14t-14 -6h-20q-10 0 -15 5.5t-7 9.5zM172 235h306l-153 394zM226 750q-22 0 -22 22v22q0 22 22 22
h199q22 0 22 -22v-22q0 -22 -22 -22h-199z" />
    <glyph glyph-name="Aogonek" unicode="&#x104;" horiz-adv-x="650" 
d="M573 -220q-61 0 -96.5 37t-35.5 101q0 57 28.5 93t78.5 44l-46 120h-354l-62 -160q-2 -4 -7 -9.5t-15 -5.5h-20q-8 0 -14 6t-6 14q0 5 2 11l253 649q4 10 10.5 15t18.5 5h34q12 0 18.5 -5t10.5 -15l253 -649q2 -6 2 -11q0 -8 -6 -14t-14 -6h-29q-33 0 -54.5 -22
t-21.5 -60t21.5 -59.5t54.5 -21.5h15q22 0 22 -22v-13q0 -22 -22 -22h-19zM172 235h306l-153 394z" />
    <glyph glyph-name="Aring" unicode="&#xc5;" horiz-adv-x="650" 
d="M502 175h-354l-62 -160q-2 -4 -7 -9.5t-15 -5.5h-20q-8 0 -14 6t-6 14q0 5 2 11l253 649q4 10 10.5 15t18.5 5h34q12 0 18.5 -5t10.5 -15l253 -649q2 -6 2 -11q0 -8 -6 -14t-14 -6h-20q-10 0 -15 5.5t-7 9.5zM172 235h306l-153 394zM295 815q0 -13 8.5 -21.5t21.5 -8.5
t21.5 8.5t8.5 21.5t-8.5 21.5t-21.5 8.5t-21.5 -8.5t-8.5 -21.5zM245 815q0 33 23.5 54t56.5 21t56.5 -21t23.5 -54t-23.5 -54t-56.5 -21t-56.5 21t-23.5 54z" />
    <glyph glyph-name="Atilde" unicode="&#xc3;" horiz-adv-x="650" 
d="M502 175h-354l-62 -160q-2 -4 -7 -9.5t-15 -5.5h-20q-8 0 -14 6t-6 14q0 5 2 11l253 649q4 10 10.5 15t18.5 5h34q12 0 18.5 -5t10.5 -15l253 -649q2 -6 2 -11q0 -8 -6 -14t-14 -6h-20q-10 0 -15 5.5t-7 9.5zM172 235h306l-153 394zM201 766q0 14 6 28t16 25t23.5 18
t28.5 7q18 0 31 -5.5t24.5 -11.5l21.5 -11.5t21 -5.5q9 0 13.5 4.5t8 10.5t7.5 10.5t12 4.5h20q8 0 12 -5t4 -11q0 -14 -6 -28.5t-16.5 -25.5t-24 -18t-28.5 -7q-17 0 -30.5 5.5t-25 11.5l-21.5 11.5t-20 5.5q-9 0 -13.5 -4.5t-8 -10t-7.5 -10t-12 -4.5h-20q-8 0 -12 5
t-4 11z" />
    <glyph glyph-name="AE" unicode="&#xc6;" horiz-adv-x="920" 
d="M5 20q0 6 4 14q8 13 49 86l44.5 78l64.5 115l89.5 158.5l118.5 209.5q6 11 12.5 15t13.5 4h433q23 0 23 -23v-15q0 -22 -23 -22h-349v-255h327q23 0 23 -23v-15q0 -22 -23 -22h-327v-265h357q23 0 23 -23v-15q0 -22 -23 -22h-398q-22 0 -22 22v153h-262l-52 -92l-26 -47
q-10 -18 -12 -21q-8 -15 -22 -15h-23q-8 0 -14 6t-6 14zM422 633l-228 -398h228v398z" />
    <glyph glyph-name="AEacute" unicode="&#x1fc;" horiz-adv-x="920" 
d="M487 862q8 10 15 14t22 4h46q19 0 19 -19q0 -7 -5 -12l-109 -89q-8 -7 -14.5 -8.5t-16.5 -1.5h-15q-16 0 -16 16q0 8 5 13zM5 20q0 6 4 14q8 13 49 86l44.5 78l64.5 115l89.5 158.5l118.5 209.5q6 11 12.5 15t13.5 4h433q23 0 23 -23v-15q0 -22 -23 -22h-349v-255h327
q23 0 23 -23v-15q0 -22 -23 -22h-327v-265h357q23 0 23 -23v-15q0 -22 -23 -22h-398q-22 0 -22 22v153h-262l-52 -92l-26 -47q-10 -18 -12 -21q-8 -15 -22 -15h-23q-8 0 -14 6t-6 14zM422 633l-228 -398h228v398z" />
    <glyph glyph-name="B" unicode="B" horiz-adv-x="653" 
d="M116 0q-22 0 -22 22v655q0 23 22 23h261q52 0 90 -14.5t63 -39.5t36.5 -57t11.5 -68q0 -32 -8 -57t-21 -44t-28.5 -31.5t-30.5 -19.5q20 -10 38.5 -26t32.5 -38t22.5 -49t8.5 -58q0 -38 -13.5 -73.5t-39.5 -63.5t-65 -44.5t-90 -16.5h-268zM157 640v-244h207
q75 0 113 32.5t38 92.5q0 119 -151 119h-207zM157 336v-276h217q75 0 115 39t40 99q0 61 -40 99.5t-115 38.5h-217z" />
    <glyph glyph-name="C" unicode="C" horiz-adv-x="651" 
d="M129 434q-3 -83 0 -168q4 -114 57 -165t145 -51q40 0 73.5 7.5t59 25.5t43.5 47.5t28 74.5q2 12 8 16.5t14 4.5h20q9 0 15.5 -5.5t5.5 -14.5q-2 -36 -17 -74t-47 -69.5t-82 -52t-121 -20.5q-68 0 -117 20.5t-81.5 56.5t-48.5 85.5t-18 108.5q-2 41 -2 88t2 90
q2 58 18 108t48.5 86t81.5 56.5t117 20.5q71 0 121 -20.5t82 -52t47 -69.5t17 -74q1 -9 -5.5 -14.5t-15.5 -5.5h-20q-8 0 -14 4.5t-8 16.5q-10 45 -28 74.5t-43.5 47.5t-59 25.5t-73.5 7.5q-92 0 -145 -51t-57 -165z" />
    <glyph glyph-name="Cacute" unicode="&#x106;" horiz-adv-x="651" 
d="M129 434q-3 -83 0 -168q4 -114 57 -165t145 -51q40 0 73.5 7.5t59 25.5t43.5 47.5t28 74.5q2 12 8 16.5t14 4.5h20q9 0 15.5 -5.5t5.5 -14.5q-2 -36 -17 -74t-47 -69.5t-82 -52t-121 -20.5q-68 0 -117 20.5t-81.5 56.5t-48.5 85.5t-18 108.5q-2 41 -2 88t2 90
q2 58 18 108t48.5 86t81.5 56.5t117 20.5q71 0 121 -20.5t82 -52t47 -69.5t17 -74q1 -9 -5.5 -14.5t-15.5 -5.5h-20q-8 0 -14 4.5t-8 16.5q-10 45 -28 74.5t-43.5 47.5t-59 25.5t-73.5 7.5q-92 0 -145 -51t-57 -165zM367 862q8 10 15 14t22 4h46q19 0 19 -19q0 -7 -5 -12
l-109 -89q-8 -7 -14.5 -8.5t-16.5 -1.5h-15q-16 0 -16 16q0 8 5 13z" />
    <glyph glyph-name="Ccaron" unicode="&#x10c;" horiz-adv-x="651" 
d="M129 434q-3 -83 0 -168q4 -114 57 -165t145 -51q40 0 73.5 7.5t59 25.5t43.5 47.5t28 74.5q2 12 8 16.5t14 4.5h20q9 0 15.5 -5.5t5.5 -14.5q-2 -36 -17 -74t-47 -69.5t-82 -52t-121 -20.5q-68 0 -117 20.5t-81.5 56.5t-48.5 85.5t-18 108.5q-2 41 -2 88t2 90
q2 58 18 108t48.5 86t81.5 56.5t117 20.5q71 0 121 -20.5t82 -52t47 -69.5t17 -74q1 -9 -5.5 -14.5t-15.5 -5.5h-20q-8 0 -14 4.5t-8 16.5q-10 45 -28 74.5t-43.5 47.5t-59 25.5t-73.5 7.5q-92 0 -145 -51t-57 -165zM326 750q-8 0 -14.5 1.5t-17.5 12.5l-87 85
q-12 12 -12 20q0 11 14 11h17q6 0 13.5 -2t11.5 -5l80 -60l80 60q4 3 11.5 5t13.5 2h17q14 0 14 -11q0 -8 -12 -20l-87 -85q-11 -11 -17.5 -12.5t-14.5 -1.5h-10z" />
    <glyph glyph-name="Ccedilla" unicode="&#xc7;" horiz-adv-x="651" 
d="M129 434q-3 -83 0 -168q4 -114 57 -165t145 -51q40 0 73.5 7.5t59 25.5t43.5 47.5t28 74.5q2 12 8 16.5t14 4.5h20q9 0 15.5 -5.5t5.5 -14.5q-2 -36 -17 -74t-47 -69.5t-82 -52t-121 -20.5l-23 -48q13 8 38 8q33 0 54.5 -23t21.5 -59t-23 -62.5t-71 -25.5q-21 0 -39 6
t-29.5 14t-15.5 16.5t2 14.5l14 13q6 6 11.5 4t12.5 -7t17 -10t27 -5t30 10.5t13 29.5q0 18 -13 28t-30 10q-12 0 -21 -3l-15.5 -5t-12 -2t-11.5 6l-16 17q-5 6 -1.5 14t6.5 16l20 47q-54 8 -93 31t-64.5 58t-38.5 80t-15 98q-2 41 -2 88t2 90q2 58 18 108t48.5 86
t81.5 56.5t117 20.5q71 0 121 -20.5t82 -52t47 -69.5t17 -74q1 -9 -5.5 -14.5t-15.5 -5.5h-20q-8 0 -14 4.5t-8 16.5q-10 45 -28 74.5t-43.5 47.5t-59 25.5t-73.5 7.5q-92 0 -145 -51t-57 -165z" />
    <glyph glyph-name="Ccircumflex" unicode="&#x108;" horiz-adv-x="651" 
d="M129 434q-3 -83 0 -168q4 -114 57 -165t145 -51q40 0 73.5 7.5t59 25.5t43.5 47.5t28 74.5q2 12 8 16.5t14 4.5h20q9 0 15.5 -5.5t5.5 -14.5q-2 -36 -17 -74t-47 -69.5t-82 -52t-121 -20.5q-68 0 -117 20.5t-81.5 56.5t-48.5 85.5t-18 108.5q-2 41 -2 88t2 90
q2 58 18 108t48.5 86t81.5 56.5t117 20.5q71 0 121 -20.5t82 -52t47 -69.5t17 -74q1 -9 -5.5 -14.5t-15.5 -5.5h-20q-8 0 -14 4.5t-8 16.5q-10 45 -28 74.5t-43.5 47.5t-59 25.5t-73.5 7.5q-92 0 -145 -51t-57 -165zM336 880q8 0 14.5 -1.5t17.5 -12.5l87 -85q12 -12 12 -20
q0 -11 -14 -11h-17q-6 0 -13.5 2t-11.5 5l-80 60l-80 -60q-4 -3 -11.5 -5t-13.5 -2h-17q-14 0 -14 11q0 8 12 20l87 85q11 11 17.5 12.5t14.5 1.5h10z" />
    <glyph glyph-name="Cdotaccent" unicode="&#x10a;" horiz-adv-x="651" 
d="M129 434q-3 -83 0 -168q4 -114 57 -165t145 -51q40 0 73.5 7.5t59 25.5t43.5 47.5t28 74.5q2 12 8 16.5t14 4.5h20q9 0 15.5 -5.5t5.5 -14.5q-2 -36 -17 -74t-47 -69.5t-82 -52t-121 -20.5q-68 0 -117 20.5t-81.5 56.5t-48.5 85.5t-18 108.5q-2 41 -2 88t2 90
q2 58 18 108t48.5 86t81.5 56.5t117 20.5q71 0 121 -20.5t82 -52t47 -69.5t17 -74q1 -9 -5.5 -14.5t-15.5 -5.5h-20q-8 0 -14 4.5t-8 16.5q-10 45 -28 74.5t-43.5 47.5t-59 25.5t-73.5 7.5q-92 0 -145 -51t-57 -165zM378 772q0 -10 -6.5 -16t-16.5 -6h-48q-22 0 -22 22v48
q0 10 6 16.5t16 6.5h48q10 0 16.5 -6.5t6.5 -16.5v-48z" />
    <glyph glyph-name="D" unicode="D" horiz-adv-x="677" 
d="M329 700q79 0 132 -17.5t85 -52t46 -85t15 -115.5q1 -45 1 -79.5t-1 -79.5q-2 -69 -15.5 -120t-45 -84.5t-83.5 -50t-129 -16.5h-218q-22 0 -22 22v655q0 23 22 23h213zM544 425q-1 55 -13 95.5t-38 67t-67.5 39.5t-101.5 13h-167v-580h172q60 0 100.5 12t65.5 37.5
t36.5 66.5t12.5 100q0 22 0.5 40t0.5 34.5t-0.5 34t-0.5 40.5z" />
    <glyph glyph-name="Dcaron" unicode="&#x10e;" horiz-adv-x="678" 
d="M329 700q79 0 132 -17.5t85 -52t46 -85t15 -115.5q1 -45 1 -79.5t-1 -79.5q-2 -69 -15.5 -120t-45 -84.5t-83.5 -50t-129 -16.5h-218q-22 0 -22 22v655q0 23 22 23h213zM544 425q-1 55 -13 95.5t-38 67t-67.5 39.5t-101.5 13h-167v-580h172q60 0 100.5 12t65.5 37.5
t36.5 66.5t12.5 100q0 22 0.5 40t0.5 34.5t-0.5 34t-0.5 40.5zM325 750q-8 0 -14.5 1.5t-17.5 12.5l-87 85q-12 12 -12 20q0 11 14 11h17q6 0 13.5 -2t11.5 -5l80 -60l80 60q4 3 11.5 5t13.5 2h17q14 0 14 -11q0 -8 -12 -20l-87 -85q-11 -11 -17.5 -12.5t-14.5 -1.5h-10z
" />
    <glyph glyph-name="Dcroat" unicode="&#x110;" horiz-adv-x="683" 
d="M335 700q79 0 132 -17.5t85 -52t46 -85t15 -115.5q1 -45 1 -79.5t-1 -79.5q-2 -69 -15.5 -120t-45 -84.5t-83.5 -50t-129 -16.5h-218q-22 0 -22 22v300h-63q-22 0 -22 22v16q0 22 22 22h63v295q0 23 22 23h213zM550 425q-1 55 -13 95.5t-38 67t-67.5 39.5t-101.5 13h-167
v-258h150q22 0 22 -22v-16q0 -22 -22 -22h-150v-262h172q60 0 100.5 12t65.5 37.5t36.5 66.5t12.5 100q0 22 0.5 40t0.5 34.5t-0.5 34t-0.5 40.5z" />
    <glyph glyph-name="E" unicode="E" horiz-adv-x="592" 
d="M514 60q23 0 23 -23v-15q0 -22 -23 -22h-398q-22 0 -22 22v655q0 23 22 23h390q23 0 23 -23v-15q0 -22 -23 -22h-349v-255h327q23 0 23 -23v-15q0 -22 -23 -22h-327v-265h357z" />
    <glyph glyph-name="Eacute" unicode="&#xc9;" horiz-adv-x="592" 
d="M514 60q23 0 23 -23v-15q0 -22 -23 -22h-398q-22 0 -22 22v655q0 23 22 23h390q23 0 23 -23v-15q0 -22 -23 -22h-349v-255h327q23 0 23 -23v-15q0 -22 -23 -22h-327v-265h357zM348 862q8 10 15 14t22 4h46q19 0 19 -19q0 -7 -5 -12l-109 -89q-8 -7 -14.5 -8.5t-16.5 -1.5
h-15q-16 0 -16 16q0 8 5 13z" />
    <glyph glyph-name="Ebreve" unicode="&#x114;" horiz-adv-x="592" 
d="M514 60q23 0 23 -23v-15q0 -22 -23 -22h-398q-22 0 -22 22v655q0 23 22 23h390q23 0 23 -23v-15q0 -22 -23 -22h-349v-255h327q23 0 23 -23v-15q0 -22 -23 -22h-327v-265h357zM200 856q0 8 5 13.5t14 5.5h15q9 0 14 -5.5t5 -13.5q0 -12 3 -24t10 -21t19 -15t30 -6t30 6
t19 15t10 21t3 24q0 8 5 13.5t14 5.5h15q9 0 14 -5.5t5 -13.5q0 -21 -5 -42t-18 -37.5t-35.5 -26.5t-56.5 -10t-56.5 10t-35.5 26.5t-18 37.5t-5 42z" />
    <glyph glyph-name="Ecaron" unicode="&#x11a;" horiz-adv-x="592" 
d="M514 60q23 0 23 -23v-15q0 -22 -23 -22h-398q-22 0 -22 22v655q0 23 22 23h390q23 0 23 -23v-15q0 -22 -23 -22h-349v-255h327q23 0 23 -23v-15q0 -22 -23 -22h-327v-265h357zM310 750q-8 0 -14.5 1.5t-17.5 12.5l-87 85q-12 12 -12 20q0 11 14 11h17q6 0 13.5 -2
t11.5 -5l80 -60l80 60q4 3 11.5 5t13.5 2h17q14 0 14 -11q0 -8 -12 -20l-87 -85q-11 -11 -17.5 -12.5t-14.5 -1.5h-10z" />
    <glyph glyph-name="Ecircumflex" unicode="&#xca;" horiz-adv-x="592" 
d="M514 60q23 0 23 -23v-15q0 -22 -23 -22h-398q-22 0 -22 22v655q0 23 22 23h390q23 0 23 -23v-15q0 -22 -23 -22h-349v-255h327q23 0 23 -23v-15q0 -22 -23 -22h-327v-265h357zM320 880q8 0 14.5 -1.5t17.5 -12.5l87 -85q12 -12 12 -20q0 -11 -14 -11h-17q-6 0 -13.5 2
t-11.5 5l-80 60l-80 -60q-4 -3 -11.5 -5t-13.5 -2h-17q-14 0 -14 11q0 8 12 20l87 85q11 11 17.5 12.5t14.5 1.5h10z" />
    <glyph glyph-name="Edieresis" unicode="&#xcb;" horiz-adv-x="592" 
d="M514 60q23 0 23 -23v-15q0 -22 -23 -22h-398q-22 0 -22 22v655q0 23 22 23h390q23 0 23 -23v-15q0 -22 -23 -22h-349v-255h327q23 0 23 -23v-15q0 -22 -23 -22h-327v-265h357zM448 772q0 -10 -6.5 -16t-16.5 -6h-38q-22 0 -22 22v38q0 10 6 16.5t16 6.5h38
q10 0 16.5 -6.5t6.5 -16.5v-38zM265 772q0 -10 -6.5 -16t-16.5 -6h-38q-22 0 -22 22v38q0 10 6 16.5t16 6.5h38q10 0 16.5 -6.5t6.5 -16.5v-38z" />
    <glyph glyph-name="Edotaccent" unicode="&#x116;" horiz-adv-x="592" 
d="M514 60q23 0 23 -23v-15q0 -22 -23 -22h-398q-22 0 -22 22v655q0 23 22 23h390q23 0 23 -23v-15q0 -22 -23 -22h-349v-255h327q23 0 23 -23v-15q0 -22 -23 -22h-327v-265h357zM362 772q0 -10 -6.5 -16t-16.5 -6h-48q-22 0 -22 22v48q0 10 6 16.5t16 6.5h48
q10 0 16.5 -6.5t6.5 -16.5v-48z" />
    <glyph glyph-name="Egrave" unicode="&#xc8;" horiz-adv-x="592" 
d="M514 60q23 0 23 -23v-15q0 -22 -23 -22h-398q-22 0 -22 22v655q0 23 22 23h390q23 0 23 -23v-15q0 -22 -23 -22h-349v-255h327q23 0 23 -23v-15q0 -22 -23 -22h-327v-265h357zM345 779q5 -5 5 -13q0 -16 -16 -16h-15q-10 0 -16.5 1.5t-14.5 8.5l-109 89q-5 5 -5 12
q0 19 19 19h46q15 0 22 -4t15 -14z" />
    <glyph glyph-name="Emacron" unicode="&#x112;" horiz-adv-x="592" 
d="M514 60q23 0 23 -23v-15q0 -22 -23 -22h-398q-22 0 -22 22v655q0 23 22 23h390q23 0 23 -23v-15q0 -22 -23 -22h-349v-255h327q23 0 23 -23v-15q0 -22 -23 -22h-327v-265h357zM218 750q-22 0 -22 22v22q0 22 22 22h199q22 0 22 -22v-22q0 -22 -22 -22h-199z" />
    <glyph glyph-name="Eogonek" unicode="&#x118;" horiz-adv-x="592" 
d="M514 60q23 0 23 -23v-15q0 -22 -23 -22h-21q-30 -2 -49.5 -23.5t-19.5 -58.5q0 -38 21.5 -59.5t54.5 -21.5h15q22 0 22 -22v-13q0 -22 -22 -22h-19q-61 0 -96.5 37t-35.5 101q0 49 21 82h-269q-22 0 -22 22v655q0 23 22 23h390q23 0 23 -23v-15q0 -22 -23 -22h-349v-255
h327q23 0 23 -23v-15q0 -22 -23 -22h-327v-265h357z" />
    <glyph glyph-name="F" unicode="F" horiz-adv-x="570" 
d="M502 700q23 0 23 -23v-15q0 -22 -23 -22h-345v-269h325q23 0 23 -23v-15q0 -22 -23 -22h-325v-289q0 -22 -23 -22h-18q-22 0 -22 22v655q0 23 22 23h386z" />
    <glyph glyph-name="G" unicode="G" horiz-adv-x="664" 
d="M334 650q-45 0 -81.5 -11.5t-63 -37t-42 -65.5t-17.5 -96q-3 -90 0 -180q2 -56 17.5 -96t42 -65.5t63 -37t81.5 -11.5q44 0 82 12.5t65.5 38t43.5 65.5t16 94v51h-174q-22 0 -22 23v14q0 23 22 23h214q23 0 23 -23v-88q0 -60 -18 -109.5t-52.5 -85.5t-85 -55.5
t-114.5 -19.5q-65 0 -114 19.5t-82.5 54.5t-51 83.5t-19.5 107.5q-2 45 -2 95t2 95q2 59 20 107.5t51.5 83.5t82.5 54.5t113 19.5q69 0 118 -21t80 -50t46 -61t16 -53q1 -9 -5 -14.5t-16 -5.5h-22q-9 0 -13 4.5t-8 15.5q-8 23 -22.5 45.5t-38.5 40t-57 28.5t-78 11z" />
    <glyph glyph-name="Gbreve" unicode="&#x11e;" horiz-adv-x="664" 
d="M334 650q-45 0 -81.5 -11.5t-63 -37t-42 -65.5t-17.5 -96q-3 -90 0 -180q2 -56 17.5 -96t42 -65.5t63 -37t81.5 -11.5q44 0 82 12.5t65.5 38t43.5 65.5t16 94v51h-174q-22 0 -22 23v14q0 23 22 23h214q23 0 23 -23v-88q0 -60 -18 -109.5t-52.5 -85.5t-85 -55.5
t-114.5 -19.5q-65 0 -114 19.5t-82.5 54.5t-51 83.5t-19.5 107.5q-2 45 -2 95t2 95q2 59 20 107.5t51.5 83.5t82.5 54.5t113 19.5q69 0 118 -21t80 -50t46 -61t16 -53q1 -9 -5 -14.5t-16 -5.5h-22q-9 0 -13 4.5t-8 15.5q-8 23 -22.5 45.5t-38.5 40t-57 28.5t-78 11zM224 856
q0 8 5 13.5t14 5.5h15q9 0 14 -5.5t5 -13.5q0 -12 3 -24t10 -21t19 -15t30 -6t30 6t19 15t10 21t3 24q0 8 5 13.5t14 5.5h15q9 0 14 -5.5t5 -13.5q0 -21 -5 -42t-18 -37.5t-35.5 -26.5t-56.5 -10t-56.5 10t-35.5 26.5t-18 37.5t-5 42z" />
    <glyph glyph-name="Gcircumflex" unicode="&#x11c;" horiz-adv-x="664" 
d="M334 650q-45 0 -81.5 -11.5t-63 -37t-42 -65.5t-17.5 -96q-3 -90 0 -180q2 -56 17.5 -96t42 -65.5t63 -37t81.5 -11.5q44 0 82 12.5t65.5 38t43.5 65.5t16 94v51h-174q-22 0 -22 23v14q0 23 22 23h214q23 0 23 -23v-88q0 -60 -18 -109.5t-52.5 -85.5t-85 -55.5
t-114.5 -19.5q-65 0 -114 19.5t-82.5 54.5t-51 83.5t-19.5 107.5q-2 45 -2 95t2 95q2 59 20 107.5t51.5 83.5t82.5 54.5t113 19.5q69 0 118 -21t80 -50t46 -61t16 -53q1 -9 -5 -14.5t-16 -5.5h-22q-9 0 -13 4.5t-8 15.5q-8 23 -22.5 45.5t-38.5 40t-57 28.5t-78 11zM344 880
q8 0 14.5 -1.5t17.5 -12.5l87 -85q12 -12 12 -20q0 -11 -14 -11h-17q-6 0 -13.5 2t-11.5 5l-80 60l-80 -60q-4 -3 -11.5 -5t-13.5 -2h-17q-14 0 -14 11q0 8 12 20l87 85q11 11 17.5 12.5t14.5 1.5h10z" />
    <glyph glyph-name="Gcommaaccent" unicode="&#x122;" horiz-adv-x="664" 
d="M334 650q-45 0 -81.5 -11.5t-63 -37t-42 -65.5t-17.5 -96q-3 -90 0 -180q2 -56 17.5 -96t42 -65.5t63 -37t81.5 -11.5q44 0 82 12.5t65.5 38t43.5 65.5t16 94v51h-174q-22 0 -22 23v14q0 23 22 23h214q23 0 23 -23v-88q0 -60 -18 -109.5t-52.5 -85.5t-85 -55.5
t-114.5 -19.5q-65 0 -114 19.5t-82.5 54.5t-51 83.5t-19.5 107.5q-2 45 -2 95t2 95q2 59 20 107.5t51.5 83.5t82.5 54.5t113 19.5q69 0 118 -21t80 -50t46 -61t16 -53q1 -9 -5 -14.5t-16 -5.5h-22q-9 0 -13 4.5t-8 15.5q-8 23 -22.5 45.5t-38.5 40t-57 28.5t-78 11zM299 -77
q2 12 7.5 19.5t17.5 7.5h45q7 0 11 -5t4 -11q0 -9 -4 -18l-40 -105q-5 -10 -10 -15.5t-16 -5.5h-18q-8 0 -12 6t-2 15z" />
    <glyph glyph-name="Gdotaccent" unicode="&#x120;" horiz-adv-x="664" 
d="M334 650q-45 0 -81.5 -11.5t-63 -37t-42 -65.5t-17.5 -96q-3 -90 0 -180q2 -56 17.5 -96t42 -65.5t63 -37t81.5 -11.5q44 0 82 12.5t65.5 38t43.5 65.5t16 94v51h-174q-22 0 -22 23v14q0 23 22 23h214q23 0 23 -23v-88q0 -60 -18 -109.5t-52.5 -85.5t-85 -55.5
t-114.5 -19.5q-65 0 -114 19.5t-82.5 54.5t-51 83.5t-19.5 107.5q-2 45 -2 95t2 95q2 59 20 107.5t51.5 83.5t82.5 54.5t113 19.5q69 0 118 -21t80 -50t46 -61t16 -53q1 -9 -5 -14.5t-16 -5.5h-22q-9 0 -13 4.5t-8 15.5q-8 23 -22.5 45.5t-38.5 40t-57 28.5t-78 11zM386 772
q0 -10 -6.5 -16t-16.5 -6h-48q-22 0 -22 22v48q0 10 6 16.5t16 6.5h48q10 0 16.5 -6.5t6.5 -16.5v-48z" />
    <glyph glyph-name="H" unicode="H" horiz-adv-x="700" 
d="M583 700q23 0 23 -23v-655q0 -22 -23 -22h-18q-22 0 -22 22v303h-386v-303q0 -22 -23 -22h-18q-22 0 -22 22v655q0 23 22 23h18q23 0 23 -23v-292h386v292q0 23 22 23h18z" />
    <glyph glyph-name="Hbar" unicode="&#x126;" horiz-adv-x="710" 
d="M99 571v106q0 23 22 23h18q23 0 23 -23v-106h386v106q0 23 22 23h18q23 0 23 -23v-106h57q23 0 23 -23v-15q0 -22 -23 -22h-57v-489q0 -22 -23 -22h-18q-22 0 -22 22v303h-386v-303q0 -22 -23 -22h-18q-22 0 -22 22v489h-58q-22 0 -22 22v15q0 23 22 23h58zM548 385v126
h-386v-126h386z" />
    <glyph glyph-name="Hcircumflex" unicode="&#x124;" horiz-adv-x="700" 
d="M583 700q23 0 23 -23v-655q0 -22 -23 -22h-18q-22 0 -22 22v303h-386v-303q0 -22 -23 -22h-18q-22 0 -22 22v655q0 23 22 23h18q23 0 23 -23v-292h386v292q0 23 22 23h18zM355 880q8 0 14.5 -1.5t17.5 -12.5l87 -85q12 -12 12 -20q0 -11 -14 -11h-17q-6 0 -13.5 2
t-11.5 5l-80 60l-80 -60q-4 -3 -11.5 -5t-13.5 -2h-17q-14 0 -14 11q0 8 12 20l87 85q11 11 17.5 12.5t14.5 1.5h10z" />
    <glyph glyph-name="I" unicode="I" horiz-adv-x="251" 
d="M157 22q0 -22 -22 -22h-19q-22 0 -22 22v656q0 22 22 22h19q22 0 22 -22v-656z" />
    <glyph glyph-name="Iacute" unicode="&#xcd;" horiz-adv-x="251" 
d="M157 22q0 -22 -22 -22h-19q-22 0 -22 22v656q0 22 22 22h19q22 0 22 -22v-656zM169 862q8 10 15 14t22 4h46q19 0 19 -19q0 -7 -5 -12l-109 -89q-8 -7 -14.5 -8.5t-16.5 -1.5h-15q-16 0 -16 16q0 8 5 13z" />
    <glyph glyph-name="Ibreve" unicode="&#x12c;" horiz-adv-x="251" 
d="M157 22q0 -22 -22 -22h-19q-22 0 -22 22v656q0 22 22 22h19q22 0 22 -22v-656zM12 856q0 8 5 13.5t14 5.5h15q9 0 14 -5.5t5 -13.5q0 -12 3 -24t10 -21t19 -15t30 -6t30 6t19 15t10 21t3 24q0 8 5 13.5t14 5.5h15q9 0 14 -5.5t5 -13.5q0 -21 -5 -42t-18 -37.5
t-35.5 -26.5t-56.5 -10t-56.5 10t-35.5 26.5t-18 37.5t-5 42z" />
    <glyph glyph-name="Icircumflex" unicode="&#xce;" horiz-adv-x="251" 
d="M157 22q0 -22 -22 -22h-19q-22 0 -22 22v656q0 22 22 22h19q22 0 22 -22v-656zM132 880q8 0 14.5 -1.5t17.5 -12.5l87 -85q12 -12 12 -20q0 -11 -14 -11h-17q-6 0 -13.5 2t-11.5 5l-80 60l-80 -60q-4 -3 -11.5 -5t-13.5 -2h-17q-14 0 -14 11q0 8 12 20l87 85
q11 11 17.5 12.5t14.5 1.5h10z" />
    <glyph glyph-name="Idieresis" unicode="&#xcf;" horiz-adv-x="251" 
d="M157 22q0 -22 -22 -22h-19q-22 0 -22 22v656q0 22 22 22h19q22 0 22 -22v-656zM260 772q0 -10 -6.5 -16t-16.5 -6h-38q-22 0 -22 22v38q0 10 6 16.5t16 6.5h38q10 0 16.5 -6.5t6.5 -16.5v-38zM77 772q0 -10 -6.5 -16t-16.5 -6h-38q-22 0 -22 22v38q0 10 6 16.5t16 6.5h38
q10 0 16.5 -6.5t6.5 -16.5v-38z" />
    <glyph glyph-name="Idotaccent" unicode="&#x130;" horiz-adv-x="251" 
d="M157 22q0 -22 -22 -22h-19q-22 0 -22 22v656q0 22 22 22h19q22 0 22 -22v-656zM174 772q0 -10 -6.5 -16t-16.5 -6h-48q-22 0 -22 22v48q0 10 6 16.5t16 6.5h48q10 0 16.5 -6.5t6.5 -16.5v-48z" />
    <glyph glyph-name="Igrave" unicode="&#xcc;" horiz-adv-x="251" 
d="M157 22q0 -22 -22 -22h-19q-22 0 -22 22v656q0 22 22 22h19q22 0 22 -22v-656zM154 779q5 -5 5 -13q0 -16 -16 -16h-15q-10 0 -16.5 1.5t-14.5 8.5l-109 89q-5 5 -5 12q0 19 19 19h46q15 0 22 -4t15 -14z" />
    <glyph glyph-name="Imacron" unicode="&#x12a;" horiz-adv-x="251" 
d="M157 22q0 -22 -22 -22h-19q-22 0 -22 22v656q0 22 22 22h19q22 0 22 -22v-656zM28 750q-22 0 -22 22v22q0 22 22 22h199q22 0 22 -22v-22q0 -22 -22 -22h-199z" />
    <glyph glyph-name="Iogonek" unicode="&#x12e;" horiz-adv-x="269" 
d="M175 22q0 -22 -22 -22h-15q-33 0 -54.5 -22t-21.5 -60t21.5 -59.5t54.5 -21.5h15q22 0 22 -22v-13q0 -22 -22 -22h-19q-61 0 -96.5 37t-35.5 101q0 58 29.5 94t80.5 43v623q0 22 22 22h19q22 0 22 -22v-656z" />
    <glyph glyph-name="Itilde" unicode="&#x128;" horiz-adv-x="251" 
d="M157 22q0 -22 -22 -22h-19q-22 0 -22 22v656q0 22 22 22h19q22 0 22 -22v-656zM3 766q0 14 6 28t16 25t23.5 18t28.5 7q18 0 31 -5.5t24.5 -11.5l21.5 -11.5t21 -5.5q9 0 13.5 4.5t8 10.5t7.5 10.5t12 4.5h20q8 0 12 -5t4 -11q0 -14 -6 -28.5t-16.5 -25.5t-24 -18
t-28.5 -7q-17 0 -30.5 5.5t-25 11.5l-21.5 11.5t-20 5.5q-9 0 -13.5 -4.5t-8 -10t-7.5 -10t-12 -4.5h-20q-8 0 -12 5t-4 11z" />
    <glyph glyph-name="J" unicode="J" horiz-adv-x="618" 
d="M530 255q0 -59 -15.5 -107.5t-46.5 -83.5t-76 -54.5t-104 -19.5q-49 0 -92 12t-76 37t-53 63.5t-22 91.5q0 9 5 15.5t16 6.5h20q10 0 15.5 -6t6.5 -15q3 -39 18.5 -66.5t40 -45t55.5 -25.5t66 -8q44 0 77.5 15t56 42.5t34 65.5t11.5 83v384h-369q-22 0 -22 22v16
q0 22 22 22h409q23 0 23 -23v-422v0z" />
    <glyph glyph-name="Jcircumflex" unicode="&#x134;" horiz-adv-x="618" 
d="M530 255q0 -59 -15.5 -107.5t-46.5 -83.5t-76 -54.5t-104 -19.5q-49 0 -92 12t-76 37t-53 63.5t-22 91.5q0 9 5 15.5t16 6.5h20q10 0 15.5 -6t6.5 -15q3 -39 18.5 -66.5t40 -45t55.5 -25.5t66 -8q44 0 77.5 15t56 42.5t34 65.5t11.5 83v384h-369q-22 0 -22 22v16
q0 22 22 22h409q23 0 23 -23v-422v0zM308 880q8 0 14.5 -1.5t17.5 -12.5l87 -85q12 -12 12 -20q0 -11 -14 -11h-17q-6 0 -13.5 2t-11.5 5l-80 60l-80 -60q-4 -3 -11.5 -5t-13.5 -2h-17q-14 0 -14 11q0 8 12 20l87 85q11 11 17.5 12.5t14.5 1.5h10z" />
    <glyph glyph-name="K" unicode="K" horiz-adv-x="575" 
d="M157 417l303 268q4 3 13 9t25 6h16q8 0 14 -6t6 -14t-5 -13l-339 -302l360 -331q6 -6 6 -14t-6 -14t-14 -6h-17q-16 0 -25 6t-13 9l-324 296v-289q0 -22 -23 -22h-18q-22 0 -22 22v655q0 23 22 23h18q23 0 23 -23v-260z" />
    <glyph glyph-name="Kcommaaccent" unicode="&#x136;" horiz-adv-x="575" 
d="M157 417l303 268q4 3 13 9t25 6h16q8 0 14 -6t6 -14t-5 -13l-339 -302l360 -331q6 -6 6 -14t-6 -14t-14 -6h-17q-16 0 -25 6t-13 9l-324 296v-289q0 -22 -23 -22h-18q-22 0 -22 22v655q0 23 22 23h18q23 0 23 -23v-260zM255 -77q2 12 7.5 19.5t17.5 7.5h45q7 0 11 -5
t4 -11q0 -9 -4 -18l-40 -105q-5 -10 -10 -15.5t-16 -5.5h-18q-8 0 -12 6t-2 15z" />
    <glyph glyph-name="L" unicode="L" horiz-adv-x="548" 
d="M157 60h345q23 0 23 -23v-15q0 -22 -23 -22h-386q-22 0 -22 22v656q0 22 22 22h19q22 0 22 -22v-618z" />
    <glyph glyph-name="Lacute" unicode="&#x139;" horiz-adv-x="548" 
d="M157 60h345q23 0 23 -23v-15q0 -22 -23 -22h-386q-22 0 -22 22v656q0 22 22 22h19q22 0 22 -22v-618zM168 862q8 10 15 14t22 4h46q19 0 19 -19q0 -7 -5 -12l-109 -89q-8 -7 -14.5 -8.5t-16.5 -1.5h-15q-16 0 -16 16q0 8 5 13z" />
    <glyph glyph-name="Lcaron" unicode="&#x13d;" horiz-adv-x="548" 
d="M157 60h345q23 0 23 -23v-15q0 -22 -23 -22h-386q-22 0 -22 22v656q0 22 22 22h19q22 0 22 -22v-618zM276 683q2 12 7.5 19.5t17.5 7.5h45q7 0 11 -5t4 -11q0 -9 -4 -18l-40 -105q-5 -10 -10 -15.5t-16 -5.5h-18q-8 0 -12 6t-2 15z" />
    <glyph glyph-name="Lcommaaccent" unicode="&#x13b;" horiz-adv-x="548" 
d="M157 60h345q23 0 23 -23v-15q0 -22 -23 -22h-386q-22 0 -22 22v656q0 22 22 22h19q22 0 22 -22v-618zM259 -77q2 12 7.5 19.5t17.5 7.5h45q7 0 11 -5t4 -11q0 -9 -4 -18l-40 -105q-5 -10 -10 -15.5t-16 -5.5h-18q-8 0 -12 6t-2 15z" />
    <glyph glyph-name="Ldot" unicode="&#x13f;" horiz-adv-x="548" 
d="M157 60h345q23 0 23 -23v-15q0 -22 -23 -22h-386q-22 0 -22 22v656q0 22 22 22h19q22 0 22 -22v-618zM372 335q0 -10 -6.5 -16t-16.5 -6h-48q-22 0 -22 22v48q0 10 6 16.5t16 6.5h48q10 0 16.5 -6.5t6.5 -16.5v-48z" />
    <glyph glyph-name="Lslash" unicode="&#x141;" horiz-adv-x="556" 
d="M124 0q-22 0 -22 22v270l-58 -22q-8 -3 -13 -3q-19 0 -19 18v19q0 11 5 15.5t17 9.5l68 26v323q0 22 22 22h19q22 0 22 -22v-298l145 56q7 3 13 3q19 0 19 -18v-19q0 -11 -5 -15.5t-17 -9.5l-155 -60v-257h346q22 0 22 -22v-16q0 -22 -22 -22h-387z" />
    <glyph glyph-name="M" unicode="M" horiz-adv-x="780" 
d="M379 168q-22 0 -31 20l-191 376v-542q0 -22 -22 -22h-18q-23 0 -23 22v655q0 23 23 23h25q10 0 14.5 -5t6.5 -8l227 -442l228 442q2 3 6.5 8t14.5 5h24q23 0 23 -23v-655q0 -22 -23 -22h-18q-22 0 -22 22v542l-191 -376q-9 -20 -31 -20h-22z" />
    <glyph glyph-name="N" unicode="N" horiz-adv-x="684" 
d="M157 574v-552q0 -22 -23 -22h-18q-22 0 -22 22v655q0 23 22 23h21q10 0 14.5 -5t6.5 -7l369 -564v553q0 23 22 23h18q23 0 23 -23v-654q0 -23 -22 -23h-22q-10 0 -14.5 5t-6.5 7z" />
    <glyph glyph-name="Nacute" unicode="&#x143;" horiz-adv-x="684" 
d="M157 574v-552q0 -22 -23 -22h-18q-22 0 -22 22v655q0 23 22 23h21q10 0 14.5 -5t6.5 -7l369 -564v553q0 23 22 23h18q23 0 23 -23v-654q0 -23 -22 -23h-22q-10 0 -14.5 5t-6.5 7zM383 862q8 10 15 14t22 4h46q19 0 19 -19q0 -7 -5 -12l-109 -89q-8 -7 -14.5 -8.5
t-16.5 -1.5h-15q-16 0 -16 16q0 8 5 13z" />
    <glyph glyph-name="Ncaron" unicode="&#x147;" horiz-adv-x="684" 
d="M157 574v-552q0 -22 -23 -22h-18q-22 0 -22 22v655q0 23 22 23h21q10 0 14.5 -5t6.5 -7l369 -564v553q0 23 22 23h18q23 0 23 -23v-654q0 -23 -22 -23h-22q-10 0 -14.5 5t-6.5 7zM337 750q-8 0 -14.5 1.5t-17.5 12.5l-87 85q-12 12 -12 20q0 11 14 11h17q6 0 13.5 -2
t11.5 -5l80 -60l80 60q4 3 11.5 5t13.5 2h17q14 0 14 -11q0 -8 -12 -20l-87 -85q-11 -11 -17.5 -12.5t-14.5 -1.5h-10z" />
    <glyph glyph-name="Ncommaaccent" unicode="&#x145;" horiz-adv-x="684" 
d="M157 574v-552q0 -22 -23 -22h-18q-22 0 -22 22v655q0 23 22 23h21q10 0 14.5 -5t6.5 -7l369 -564v553q0 23 22 23h18q23 0 23 -23v-654q0 -23 -22 -23h-22q-10 0 -14.5 5t-6.5 7zM298 -77q2 12 7.5 19.5t17.5 7.5h45q7 0 11 -5t4 -11q0 -9 -4 -18l-40 -105
q-5 -10 -10 -15.5t-16 -5.5h-18q-8 0 -12 6t-2 15z" />
    <glyph glyph-name="Ntilde" unicode="&#xd1;" horiz-adv-x="684" 
d="M157 574v-552q0 -22 -23 -22h-18q-22 0 -22 22v655q0 23 22 23h21q10 0 14.5 -5t6.5 -7l369 -564v553q0 23 22 23h18q23 0 23 -23v-654q0 -23 -22 -23h-22q-10 0 -14.5 5t-6.5 7zM218 766q0 14 6 28t16 25t23.5 18t28.5 7q18 0 31 -5.5t24.5 -11.5l21.5 -11.5t21 -5.5
q9 0 13.5 4.5t8 10.5t7.5 10.5t12 4.5h20q8 0 12 -5t4 -11q0 -14 -6 -28.5t-16.5 -25.5t-24 -18t-28.5 -7q-17 0 -30.5 5.5t-25 11.5l-21.5 11.5t-20 5.5q-9 0 -13.5 -4.5t-8 -10t-7.5 -10t-12 -4.5h-20q-8 0 -12 5t-4 11z" />
    <glyph glyph-name="O" unicode="O" horiz-adv-x="662" 
d="M331 710q58 0 106 -17t82.5 -51.5t54 -86t21.5 -121.5q2 -45 2 -84t-2 -84q-4 -142 -72 -209t-192 -67q-125 0 -192.5 67t-71.5 209q-2 45 -2 84t2 84q2 70 21.5 121.5t54 86t82 51.5t106.5 17zM331 650q-42 0 -78 -12.5t-63 -39.5t-42.5 -69t-17.5 -100q-1 -23 -1.5 -42
t-0.5 -37t0.5 -37.5t1.5 -41.5q2 -59 17.5 -100.5t42 -68.5t62.5 -39.5t79 -12.5t79 12.5t62.5 39.5t42 68.5t17.5 100.5q1 22 1 41.5v37.5v37t-1 42q-2 58 -17.5 100t-42.5 69t-63 39.5t-78 12.5z" />
    <glyph glyph-name="Oacute" unicode="&#xd3;" horiz-adv-x="662" 
d="M331 710q58 0 106 -17t82.5 -51.5t54 -86t21.5 -121.5q2 -45 2 -84t-2 -84q-4 -142 -72 -209t-192 -67q-125 0 -192.5 67t-71.5 209q-2 45 -2 84t2 84q2 70 21.5 121.5t54 86t82 51.5t106.5 17zM331 650q-42 0 -78 -12.5t-63 -39.5t-42.5 -69t-17.5 -100q-1 -23 -1.5 -42
t-0.5 -37t0.5 -37.5t1.5 -41.5q2 -59 17.5 -100.5t42 -68.5t62.5 -39.5t79 -12.5t79 12.5t62.5 39.5t42 68.5t17.5 100.5q1 22 1 41.5v37.5v37t-1 42q-2 58 -17.5 100t-42.5 69t-63 39.5t-78 12.5zM372 862q8 10 15 14t22 4h46q19 0 19 -19q0 -7 -5 -12l-109 -89
q-8 -7 -14.5 -8.5t-16.5 -1.5h-15q-16 0 -16 16q0 8 5 13z" />
    <glyph glyph-name="Obreve" unicode="&#x14e;" horiz-adv-x="662" 
d="M331 710q58 0 106 -17t82.5 -51.5t54 -86t21.5 -121.5q2 -45 2 -84t-2 -84q-4 -142 -72 -209t-192 -67q-125 0 -192.5 67t-71.5 209q-2 45 -2 84t2 84q2 70 21.5 121.5t54 86t82 51.5t106.5 17zM331 650q-42 0 -78 -12.5t-63 -39.5t-42.5 -69t-17.5 -100q-1 -23 -1.5 -42
t-0.5 -37t0.5 -37.5t1.5 -41.5q2 -59 17.5 -100.5t42 -68.5t62.5 -39.5t79 -12.5t79 12.5t62.5 39.5t42 68.5t17.5 100.5q1 22 1 41.5v37.5v37t-1 42q-2 58 -17.5 100t-42.5 69t-63 39.5t-78 12.5zM216 856q0 8 5 13.5t14 5.5h15q9 0 14 -5.5t5 -13.5q0 -12 3 -24t10 -21
t19 -15t30 -6t30 6t19 15t10 21t3 24q0 8 5 13.5t14 5.5h15q9 0 14 -5.5t5 -13.5q0 -21 -5 -42t-18 -37.5t-35.5 -26.5t-56.5 -10t-56.5 10t-35.5 26.5t-18 37.5t-5 42z" />
    <glyph glyph-name="Ocircumflex" unicode="&#xd4;" horiz-adv-x="662" 
d="M331 710q58 0 106 -17t82.5 -51.5t54 -86t21.5 -121.5q2 -45 2 -84t-2 -84q-4 -142 -72 -209t-192 -67q-125 0 -192.5 67t-71.5 209q-2 45 -2 84t2 84q2 70 21.5 121.5t54 86t82 51.5t106.5 17zM331 650q-42 0 -78 -12.5t-63 -39.5t-42.5 -69t-17.5 -100q-1 -23 -1.5 -42
t-0.5 -37t0.5 -37.5t1.5 -41.5q2 -59 17.5 -100.5t42 -68.5t62.5 -39.5t79 -12.5t79 12.5t62.5 39.5t42 68.5t17.5 100.5q1 22 1 41.5v37.5v37t-1 42q-2 58 -17.5 100t-42.5 69t-63 39.5t-78 12.5zM336 880q8 0 14.5 -1.5t17.5 -12.5l87 -85q12 -12 12 -20q0 -11 -14 -11
h-17q-6 0 -13.5 2t-11.5 5l-80 60l-80 -60q-4 -3 -11.5 -5t-13.5 -2h-17q-14 0 -14 11q0 8 12 20l87 85q11 11 17.5 12.5t14.5 1.5h10z" />
    <glyph glyph-name="Odieresis" unicode="&#xd6;" horiz-adv-x="662" 
d="M331 710q58 0 106 -17t82.5 -51.5t54 -86t21.5 -121.5q2 -45 2 -84t-2 -84q-4 -142 -72 -209t-192 -67q-125 0 -192.5 67t-71.5 209q-2 45 -2 84t2 84q2 70 21.5 121.5t54 86t82 51.5t106.5 17zM331 650q-42 0 -78 -12.5t-63 -39.5t-42.5 -69t-17.5 -100q-1 -23 -1.5 -42
t-0.5 -37t0.5 -37.5t1.5 -41.5q2 -59 17.5 -100.5t42 -68.5t62.5 -39.5t79 -12.5t79 12.5t62.5 39.5t42 68.5t17.5 100.5q1 22 1 41.5v37.5v37t-1 42q-2 58 -17.5 100t-42.5 69t-63 39.5t-78 12.5zM464 772q0 -10 -6.5 -16t-16.5 -6h-38q-22 0 -22 22v38q0 10 6 16.5t16 6.5
h38q10 0 16.5 -6.5t6.5 -16.5v-38zM281 772q0 -10 -6.5 -16t-16.5 -6h-38q-22 0 -22 22v38q0 10 6 16.5t16 6.5h38q10 0 16.5 -6.5t6.5 -16.5v-38z" />
    <glyph glyph-name="Ograve" unicode="&#xd2;" horiz-adv-x="662" 
d="M331 710q58 0 106 -17t82.5 -51.5t54 -86t21.5 -121.5q2 -45 2 -84t-2 -84q-4 -142 -72 -209t-192 -67q-125 0 -192.5 67t-71.5 209q-2 45 -2 84t2 84q2 70 21.5 121.5t54 86t82 51.5t106.5 17zM331 650q-42 0 -78 -12.5t-63 -39.5t-42.5 -69t-17.5 -100q-1 -23 -1.5 -42
t-0.5 -37t0.5 -37.5t1.5 -41.5q2 -59 17.5 -100.5t42 -68.5t62.5 -39.5t79 -12.5t79 12.5t62.5 39.5t42 68.5t17.5 100.5q1 22 1 41.5v37.5v37t-1 42q-2 58 -17.5 100t-42.5 69t-63 39.5t-78 12.5zM360 779q5 -5 5 -13q0 -16 -16 -16h-15q-10 0 -16.5 1.5t-14.5 8.5l-109 89
q-5 5 -5 12q0 19 19 19h46q15 0 22 -4t15 -14z" />
    <glyph glyph-name="Ohungarumlaut" unicode="&#x150;" horiz-adv-x="662" 
d="M331 710q58 0 106 -17t82.5 -51.5t54 -86t21.5 -121.5q2 -45 2 -84t-2 -84q-4 -142 -72 -209t-192 -67q-125 0 -192.5 67t-71.5 209q-2 45 -2 84t2 84q2 70 21.5 121.5t54 86t82 51.5t106.5 17zM331 650q-42 0 -78 -12.5t-63 -39.5t-42.5 -69t-17.5 -100q-1 -23 -1.5 -42
t-0.5 -37t0.5 -37.5t1.5 -41.5q2 -59 17.5 -100.5t42 -68.5t62.5 -39.5t79 -12.5t79 12.5t62.5 39.5t42 68.5t17.5 100.5q1 22 1 41.5v37.5v37t-1 42q-2 58 -17.5 100t-42.5 69t-63 39.5t-78 12.5zM267 861q5 10 13 14.5t24 4.5h40q20 0 20 -19q0 -7 -6 -13l-71 -84
q-12 -14 -30 -14h-15q-16 0 -16 16q0 4 1.5 8t3.5 7zM415 861q5 10 13 14.5t24 4.5h40q20 0 20 -19q0 -7 -6 -13l-71 -84q-12 -14 -30 -14h-15q-16 0 -16 16q0 4 1.5 8t3.5 7z" />
    <glyph glyph-name="Omacron" unicode="&#x14c;" horiz-adv-x="662" 
d="M331 710q58 0 106 -17t82.5 -51.5t54 -86t21.5 -121.5q2 -45 2 -84t-2 -84q-4 -142 -72 -209t-192 -67q-125 0 -192.5 67t-71.5 209q-2 45 -2 84t2 84q2 70 21.5 121.5t54 86t82 51.5t106.5 17zM331 650q-42 0 -78 -12.5t-63 -39.5t-42.5 -69t-17.5 -100q-1 -23 -1.5 -42
t-0.5 -37t0.5 -37.5t1.5 -41.5q2 -59 17.5 -100.5t42 -68.5t62.5 -39.5t79 -12.5t79 12.5t62.5 39.5t42 68.5t17.5 100.5q1 22 1 41.5v37.5v37t-1 42q-2 58 -17.5 100t-42.5 69t-63 39.5t-78 12.5zM232 750q-22 0 -22 22v22q0 22 22 22h199q22 0 22 -22v-22q0 -22 -22 -22
h-199z" />
    <glyph glyph-name="Oslash" unicode="&#xd8;" horiz-adv-x="682" 
d="M342 710q106 0 174 -55t85 -167l37 14q7 3 13 3q19 0 19 -18v-19q0 -11 -5 -15.5t-17 -9.5l-42 -16q2 -43 2 -80.5t-2 -80.5q-4 -142 -72 -209t-192 -67q-115 0 -181.5 56t-79.5 176l-38 -14q-8 -3 -13 -3q-19 0 -19 18v19q0 11 5 15.5t17 9.5l44 17q-2 39 -1.5 74
t2.5 76q2 70 21.5 121.5t54 86t82 51.5t106.5 17zM543 271q1 38 1.5 67.5t-0.5 64.5l-402 -157q5 -52 21.5 -89t43 -61t60.5 -35t75 -11q43 0 79 12.5t62.5 39.5t42 68.5t17.5 100.5zM342 650q-42 0 -78 -12.5t-63 -39.5t-42.5 -69t-17.5 -100q-2 -35 -2.5 -62.5t0.5 -57.5
l401 155q-12 98 -66 142t-132 44z" />
    <glyph glyph-name="Oslashacute" unicode="&#x1fe;" horiz-adv-x="682" 
d="M376 862q8 10 15 14t22 4h46q19 0 19 -19q0 -7 -5 -12l-109 -89q-8 -7 -14.5 -8.5t-16.5 -1.5h-15q-16 0 -16 16q0 8 5 13zM342 710q106 0 174 -55t85 -167l37 14q7 3 13 3q19 0 19 -18v-19q0 -11 -5 -15.5t-17 -9.5l-42 -16q2 -43 2 -80.5t-2 -80.5q-4 -142 -72 -209
t-192 -67q-115 0 -181.5 56t-79.5 176l-38 -14q-8 -3 -13 -3q-19 0 -19 18v19q0 11 5 15.5t17 9.5l44 17q-2 39 -1.5 74t2.5 76q2 70 21.5 121.5t54 86t82 51.5t106.5 17zM543 271q1 38 1.5 67.5t-0.5 64.5l-402 -157q5 -52 21.5 -89t43 -61t60.5 -35t75 -11q43 0 79 12.5
t62.5 39.5t42 68.5t17.5 100.5zM342 650q-42 0 -78 -12.5t-63 -39.5t-42.5 -69t-17.5 -100q-2 -35 -2.5 -62.5t0.5 -57.5l401 155q-12 98 -66 142t-132 44z" />
    <glyph glyph-name="Otilde" unicode="&#xd5;" horiz-adv-x="662" 
d="M331 710q58 0 106 -17t82.5 -51.5t54 -86t21.5 -121.5q2 -45 2 -84t-2 -84q-4 -142 -72 -209t-192 -67q-125 0 -192.5 67t-71.5 209q-2 45 -2 84t2 84q2 70 21.5 121.5t54 86t82 51.5t106.5 17zM331 650q-42 0 -78 -12.5t-63 -39.5t-42.5 -69t-17.5 -100q-1 -23 -1.5 -42
t-0.5 -37t0.5 -37.5t1.5 -41.5q2 -59 17.5 -100.5t42 -68.5t62.5 -39.5t79 -12.5t79 12.5t62.5 39.5t42 68.5t17.5 100.5q1 22 1 41.5v37.5v37t-1 42q-2 58 -17.5 100t-42.5 69t-63 39.5t-78 12.5zM207 766q0 14 6 28t16 25t23.5 18t28.5 7q18 0 31 -5.5t24.5 -11.5
l21.5 -11.5t21 -5.5q9 0 13.5 4.5t8 10.5t7.5 10.5t12 4.5h20q8 0 12 -5t4 -11q0 -14 -6 -28.5t-16.5 -25.5t-24 -18t-28.5 -7q-17 0 -30.5 5.5t-25 11.5l-21.5 11.5t-20 5.5q-9 0 -13.5 -4.5t-8 -10t-7.5 -10t-12 -4.5h-20q-8 0 -12 5t-4 11z" />
    <glyph glyph-name="OE" unicode="&#x152;" horiz-adv-x="900" 
d="M343 0q-77 0 -129 16.5t-83.5 50t-45.5 84.5t-15 120q-1 45 -1 79.5t1 79.5q1 65 15 115.5t46 85t84.5 52t132.5 17.5h467q23 0 23 -23v-15q0 -22 -23 -22h-309v-255h287q23 0 23 -23v-15q0 -22 -23 -22h-287v-265h317q23 0 23 -23v-15q0 -22 -23 -22h-480zM133 425
q0 -23 -0.5 -40.5t-0.5 -34t0.5 -34.5t0.5 -40q1 -59 12.5 -100t36.5 -66.5t65.5 -37.5t100.5 -12h95v580h-90q-60 0 -101.5 -13t-67.5 -39.5t-38 -67t-13 -95.5z" />
    <glyph glyph-name="P" unicode="P" horiz-adv-x="628" 
d="M359 700q105 0 167.5 -52.5t62.5 -154.5t-62.5 -154.5t-167.5 -52.5h-202v-264q0 -22 -23 -22h-18q-22 0 -22 22v655q0 23 22 23h243zM157 346h197q88 0 130 37.5t42 109.5t-42 109.5t-130 37.5h-197v-294z" />
    <glyph glyph-name="Q" unicode="Q" horiz-adv-x="662" 
d="M331 710q58 0 106 -17t82.5 -51.5t54 -86t21.5 -121.5q2 -45 2 -84t-2 -84q-5 -143 -73 -210l64 -90l2 -4t1 -7q0 -8 -6 -14t-14 -6h-22q-11 0 -19 8.5t-13 14.5l-44 61q-60 -29 -140 -29q-125 0 -192.5 67t-71.5 209q-2 45 -2 84t2 84q2 70 21.5 121.5t54 86t82 51.5
t106.5 17zM331 650q-42 0 -78 -12.5t-63 -39.5t-42.5 -69t-17.5 -100q-1 -23 -1.5 -42t-0.5 -37t0.5 -37.5t1.5 -41.5q2 -59 17.5 -100.5t42 -68.5t62.5 -39.5t79 -12.5t79 12.5t62.5 39.5t42 68.5t17.5 100.5q1 22 1 41.5v37.5v37t-1 42q-2 58 -17.5 100t-42.5 69t-63 39.5
t-78 12.5z" />
    <glyph glyph-name="R" unicode="R" horiz-adv-x="640" 
d="M349 700q105 0 167.5 -50t62.5 -152q0 -81 -39.5 -128.5t-111.5 -64.5l161 -274q3 -6 3 -11q0 -8 -6 -14t-14 -6h-12q-17 0 -24.5 8t-13.5 19l-159 269h-206v-274q0 -22 -23 -22h-18q-22 0 -22 22v655q0 23 22 23h233zM157 356h187q172 0 172 142t-172 142h-187v-284z
" />
    <glyph glyph-name="Racute" unicode="&#x154;" horiz-adv-x="640" 
d="M349 700q105 0 167.5 -50t62.5 -152q0 -81 -39.5 -128.5t-111.5 -64.5l161 -274q3 -6 3 -11q0 -8 -6 -14t-14 -6h-12q-17 0 -24.5 8t-13.5 19l-159 269h-206v-274q0 -22 -23 -22h-18q-22 0 -22 22v655q0 23 22 23h233zM157 356h187q172 0 172 142t-172 142h-187v-284z
M341 862q8 10 15 14t22 4h46q19 0 19 -19q0 -7 -5 -12l-109 -89q-8 -7 -14.5 -8.5t-16.5 -1.5h-15q-16 0 -16 16q0 8 5 13z" />
    <glyph glyph-name="Rcaron" unicode="&#x158;" horiz-adv-x="640" 
d="M349 700q105 0 167.5 -50t62.5 -152q0 -81 -39.5 -128.5t-111.5 -64.5l161 -274q3 -6 3 -11q0 -8 -6 -14t-14 -6h-12q-17 0 -24.5 8t-13.5 19l-159 269h-206v-274q0 -22 -23 -22h-18q-22 0 -22 22v655q0 23 22 23h233zM157 356h187q172 0 172 142t-172 142h-187v-284z
M298 750q-8 0 -14.5 1.5t-17.5 12.5l-87 85q-12 12 -12 20q0 11 14 11h17q6 0 13.5 -2t11.5 -5l80 -60l80 60q4 3 11.5 5t13.5 2h17q14 0 14 -11q0 -8 -12 -20l-87 -85q-11 -11 -17.5 -12.5t-14.5 -1.5h-10z" />
    <glyph glyph-name="Rcommaaccent" unicode="&#x156;" horiz-adv-x="640" 
d="M349 700q105 0 167.5 -50t62.5 -152q0 -81 -39.5 -128.5t-111.5 -64.5l161 -274q3 -6 3 -11q0 -8 -6 -14t-14 -6h-12q-17 0 -24.5 8t-13.5 19l-159 269h-206v-274q0 -22 -23 -22h-18q-22 0 -22 22v655q0 23 22 23h233zM157 356h187q172 0 172 142t-172 142h-187v-284z
M276 -77q2 12 7.5 19.5t17.5 7.5h45q7 0 11 -5t4 -11q0 -9 -4 -18l-40 -105q-5 -10 -10 -15.5t-16 -5.5h-18q-8 0 -12 6t-2 15z" />
    <glyph glyph-name="S" unicode="S" horiz-adv-x="605" 
d="M299 710q59 0 103 -16.5t73 -42t44 -56.5t16 -60q0 -8 -5 -14t-16 -6h-20q-5 0 -12.5 4t-9.5 16q-6 50 -52.5 82.5t-120.5 32.5q-37 0 -68 -7t-53 -22t-34.5 -37.5t-12.5 -53.5q0 -30 11.5 -51t36.5 -38t63 -32t92 -32q56 -18 97.5 -35.5t69 -39.5t41 -51t13.5 -70
q0 -91 -67 -141t-184 -50q-61 0 -108 15.5t-79.5 40.5t-50 57.5t-18.5 66.5q0 8 6 14t15 6h20q10 0 15 -6t7 -14q3 -21 15 -42.5t35.5 -38.5t58.5 -28t84 -11q98 0 143 35.5t45 95.5q0 30 -13 50.5t-40 37t-68 31.5t-97 33q-54 17 -92.5 34.5t-64 40t-37.5 52t-12 70.5
q0 38 15.5 71t44.5 57t72 38t99 14z" />
    <glyph glyph-name="Sacute" unicode="&#x15a;" horiz-adv-x="605" 
d="M299 710q59 0 103 -16.5t73 -42t44 -56.5t16 -60q0 -8 -5 -14t-16 -6h-20q-5 0 -12.5 4t-9.5 16q-6 50 -52.5 82.5t-120.5 32.5q-37 0 -68 -7t-53 -22t-34.5 -37.5t-12.5 -53.5q0 -30 11.5 -51t36.5 -38t63 -32t92 -32q56 -18 97.5 -35.5t69 -39.5t41 -51t13.5 -70
q0 -91 -67 -141t-184 -50q-61 0 -108 15.5t-79.5 40.5t-50 57.5t-18.5 66.5q0 8 6 14t15 6h20q10 0 15 -6t7 -14q3 -21 15 -42.5t35.5 -38.5t58.5 -28t84 -11q98 0 143 35.5t45 95.5q0 30 -13 50.5t-40 37t-68 31.5t-97 33q-54 17 -92.5 34.5t-64 40t-37.5 52t-12 70.5
q0 38 15.5 71t44.5 57t72 38t99 14zM340 862q8 10 15 14t22 4h46q19 0 19 -19q0 -7 -5 -12l-109 -89q-8 -7 -14.5 -8.5t-16.5 -1.5h-15q-16 0 -16 16q0 8 5 13z" />
    <glyph glyph-name="Scaron" unicode="&#x160;" horiz-adv-x="605" 
d="M299 710q59 0 103 -16.5t73 -42t44 -56.5t16 -60q0 -8 -5 -14t-16 -6h-20q-5 0 -12.5 4t-9.5 16q-6 50 -52.5 82.5t-120.5 32.5q-37 0 -68 -7t-53 -22t-34.5 -37.5t-12.5 -53.5q0 -30 11.5 -51t36.5 -38t63 -32t92 -32q56 -18 97.5 -35.5t69 -39.5t41 -51t13.5 -70
q0 -91 -67 -141t-184 -50q-61 0 -108 15.5t-79.5 40.5t-50 57.5t-18.5 66.5q0 8 6 14t15 6h20q10 0 15 -6t7 -14q3 -21 15 -42.5t35.5 -38.5t58.5 -28t84 -11q98 0 143 35.5t45 95.5q0 30 -13 50.5t-40 37t-68 31.5t-97 33q-54 17 -92.5 34.5t-64 40t-37.5 52t-12 70.5
q0 38 15.5 71t44.5 57t72 38t99 14zM296 750q-8 0 -14.5 1.5t-17.5 12.5l-87 85q-12 12 -12 20q0 11 14 11h17q6 0 13.5 -2t11.5 -5l80 -60l80 60q4 3 11.5 5t13.5 2h17q14 0 14 -11q0 -8 -12 -20l-87 -85q-11 -11 -17.5 -12.5t-14.5 -1.5h-10z" />
    <glyph glyph-name="Scedilla" unicode="&#x15e;" horiz-adv-x="605" 
d="M299 710q59 0 103 -16.5t73 -42t44 -56.5t16 -60q0 -8 -5 -14t-16 -6h-20q-5 0 -12.5 4t-9.5 16q-6 50 -52.5 82.5t-120.5 32.5q-37 0 -68 -7t-53 -22t-34.5 -37.5t-12.5 -53.5q0 -30 11.5 -51t36.5 -38t63 -32t92 -32q56 -18 97.5 -35.5t69 -39.5t41 -51t13.5 -70
q0 -91 -67 -141t-184 -50l-23 -48q13 8 38 8q33 0 54.5 -23t21.5 -59t-23 -62.5t-71 -25.5q-21 0 -39 6t-29.5 14t-15.5 16.5t2 14.5l14 13q6 6 11.5 4t12.5 -7t17 -10t27 -5t30 10.5t13 29.5q0 18 -13 28t-30 10q-12 0 -21 -3l-15.5 -5t-12 -2t-11.5 6l-16 17q-5 6 -1.5 14
t6.5 16l20 47q-48 6 -85.5 23t-63 41t-39 53t-14.5 59q0 8 6 14t15 6h20q10 0 15 -6t7 -14q3 -21 15 -42.5t35.5 -38.5t58.5 -28t84 -11q98 0 143 35.5t45 95.5q0 30 -13 50.5t-40 37t-68 31.5t-97 33q-54 17 -92.5 34.5t-64 40t-37.5 52t-12 70.5q0 38 15.5 71t44.5 57
t72 38t99 14z" />
    <glyph glyph-name="Scircumflex" unicode="&#x15c;" horiz-adv-x="605" 
d="M299 710q59 0 103 -16.5t73 -42t44 -56.5t16 -60q0 -8 -5 -14t-16 -6h-20q-5 0 -12.5 4t-9.5 16q-6 50 -52.5 82.5t-120.5 32.5q-37 0 -68 -7t-53 -22t-34.5 -37.5t-12.5 -53.5q0 -30 11.5 -51t36.5 -38t63 -32t92 -32q56 -18 97.5 -35.5t69 -39.5t41 -51t13.5 -70
q0 -91 -67 -141t-184 -50q-61 0 -108 15.5t-79.5 40.5t-50 57.5t-18.5 66.5q0 8 6 14t15 6h20q10 0 15 -6t7 -14q3 -21 15 -42.5t35.5 -38.5t58.5 -28t84 -11q98 0 143 35.5t45 95.5q0 30 -13 50.5t-40 37t-68 31.5t-97 33q-54 17 -92.5 34.5t-64 40t-37.5 52t-12 70.5
q0 38 15.5 71t44.5 57t72 38t99 14zM306 880q8 0 14.5 -1.5t17.5 -12.5l87 -85q12 -12 12 -20q0 -11 -14 -11h-17q-6 0 -13.5 2t-11.5 5l-80 60l-80 -60q-4 -3 -11.5 -5t-13.5 -2h-17q-14 0 -14 11q0 8 12 20l87 85q11 11 17.5 12.5t14.5 1.5h10z" />
    <glyph glyph-name="Scommaaccent" unicode="&#x218;" horiz-adv-x="605" 
d="M299 710q59 0 103 -16.5t73 -42t44 -56.5t16 -60q0 -8 -5 -14t-16 -6h-20q-5 0 -12.5 4t-9.5 16q-6 50 -52.5 82.5t-120.5 32.5q-37 0 -68 -7t-53 -22t-34.5 -37.5t-12.5 -53.5q0 -30 11.5 -51t36.5 -38t63 -32t92 -32q56 -18 97.5 -35.5t69 -39.5t41 -51t13.5 -70
q0 -91 -67 -141t-184 -50q-61 0 -108 15.5t-79.5 40.5t-50 57.5t-18.5 66.5q0 8 6 14t15 6h20q10 0 15 -6t7 -14q3 -21 15 -42.5t35.5 -38.5t58.5 -28t84 -11q98 0 143 35.5t45 95.5q0 30 -13 50.5t-40 37t-68 31.5t-97 33q-54 17 -92.5 34.5t-64 40t-37.5 52t-12 70.5
q0 38 15.5 71t44.5 57t72 38t99 14zM257 -77q2 12 7.5 19.5t17.5 7.5h45q7 0 11 -5t4 -11q0 -9 -4 -18l-40 -105q-5 -10 -10 -15.5t-16 -5.5h-18q-8 0 -12 6t-2 15z" />
    <glyph glyph-name="T" unicode="T" horiz-adv-x="557" 
d="M507 700q23 0 23 -23v-15q0 -22 -23 -22h-197v-618q0 -22 -23 -22h-18q-22 0 -22 22v618h-198q-22 0 -22 22v15q0 23 22 23h458z" />
    <glyph glyph-name="Tbar" unicode="&#x166;" horiz-adv-x="567" 
d="M252 410v230h-198q-22 0 -22 22v15q0 23 22 23h458q23 0 23 -23v-15q0 -22 -23 -22h-197v-230h117q23 0 23 -23v-15q0 -22 -23 -22h-117v-328q0 -22 -23 -22h-18q-22 0 -22 22v328h-118q-22 0 -22 22v15q0 23 22 23h118z" />
    <glyph glyph-name="Tcaron" unicode="&#x164;" horiz-adv-x="557" 
d="M507 700q23 0 23 -23v-15q0 -22 -23 -22h-197v-618q0 -22 -23 -22h-18q-22 0 -22 22v618h-198q-22 0 -22 22v15q0 23 22 23h458zM274 750q-8 0 -14.5 1.5t-17.5 12.5l-87 85q-12 12 -12 20q0 11 14 11h17q6 0 13.5 -2t11.5 -5l80 -60l80 60q4 3 11.5 5t13.5 2h17
q14 0 14 -11q0 -8 -12 -20l-87 -85q-11 -11 -17.5 -12.5t-14.5 -1.5h-10z" />
    <glyph glyph-name="Tcommaaccent" unicode="&#x162;" horiz-adv-x="557" 
d="M507 700q23 0 23 -23v-15q0 -22 -23 -22h-197v-618q0 -22 -23 -22h-18q-22 0 -22 22v618h-198q-22 0 -22 22v15q0 23 22 23h458zM231 -77q2 12 7.5 19.5t17.5 7.5h45q7 0 11 -5t4 -11q0 -9 -4 -18l-40 -105q-5 -10 -10 -15.5t-16 -5.5h-18q-8 0 -12 6t-2 15z" />
    <glyph glyph-name="U" unicode="U" horiz-adv-x="691" 
d="M540 677q0 23 23 23h18q22 0 22 -23v-406q0 -146 -67 -213.5t-190 -67.5q-61 0 -109 16.5t-81 51t-50.5 87.5t-17.5 126v406q0 23 22 23h18q23 0 23 -23v-409q0 -113 52.5 -165.5t142.5 -52.5t142 52.5t52 165.5v409z" />
    <glyph glyph-name="Uacute" unicode="&#xda;" horiz-adv-x="691" 
d="M540 677q0 23 23 23h18q22 0 22 -23v-406q0 -146 -67 -213.5t-190 -67.5q-61 0 -109 16.5t-81 51t-50.5 87.5t-17.5 126v406q0 23 22 23h18q23 0 23 -23v-409q0 -113 52.5 -165.5t142.5 -52.5t142 52.5t52 165.5v409zM384 862q8 10 15 14t22 4h46q19 0 19 -19
q0 -7 -5 -12l-109 -89q-8 -7 -14.5 -8.5t-16.5 -1.5h-15q-16 0 -16 16q0 8 5 13z" />
    <glyph glyph-name="Ubreve" unicode="&#x16c;" horiz-adv-x="691" 
d="M540 677q0 23 23 23h18q22 0 22 -23v-406q0 -146 -67 -213.5t-190 -67.5q-61 0 -109 16.5t-81 51t-50.5 87.5t-17.5 126v406q0 23 22 23h18q23 0 23 -23v-409q0 -113 52.5 -165.5t142.5 -52.5t142 52.5t52 165.5v409zM230 856q0 8 5 13.5t14 5.5h15q9 0 14 -5.5t5 -13.5
q0 -12 3 -24t10 -21t19 -15t30 -6t30 6t19 15t10 21t3 24q0 8 5 13.5t14 5.5h15q9 0 14 -5.5t5 -13.5q0 -21 -5 -42t-18 -37.5t-35.5 -26.5t-56.5 -10t-56.5 10t-35.5 26.5t-18 37.5t-5 42z" />
    <glyph glyph-name="Ucircumflex" unicode="&#xdb;" horiz-adv-x="691" 
d="M540 677q0 23 23 23h18q22 0 22 -23v-406q0 -146 -67 -213.5t-190 -67.5q-61 0 -109 16.5t-81 51t-50.5 87.5t-17.5 126v406q0 23 22 23h18q23 0 23 -23v-409q0 -113 52.5 -165.5t142.5 -52.5t142 52.5t52 165.5v409zM350 880q8 0 14.5 -1.5t17.5 -12.5l87 -85
q12 -12 12 -20q0 -11 -14 -11h-17q-6 0 -13.5 2t-11.5 5l-80 60l-80 -60q-4 -3 -11.5 -5t-13.5 -2h-17q-14 0 -14 11q0 8 12 20l87 85q11 11 17.5 12.5t14.5 1.5h10z" />
    <glyph glyph-name="Udieresis" unicode="&#xdc;" horiz-adv-x="691" 
d="M540 677q0 23 23 23h18q22 0 22 -23v-406q0 -146 -67 -213.5t-190 -67.5q-61 0 -109 16.5t-81 51t-50.5 87.5t-17.5 126v406q0 23 22 23h18q23 0 23 -23v-409q0 -113 52.5 -165.5t142.5 -52.5t142 52.5t52 165.5v409zM478 772q0 -10 -6.5 -16t-16.5 -6h-38q-22 0 -22 22
v38q0 10 6 16.5t16 6.5h38q10 0 16.5 -6.5t6.5 -16.5v-38zM295 772q0 -10 -6.5 -16t-16.5 -6h-38q-22 0 -22 22v38q0 10 6 16.5t16 6.5h38q10 0 16.5 -6.5t6.5 -16.5v-38z" />
    <glyph glyph-name="Ugrave" unicode="&#xd9;" horiz-adv-x="691" 
d="M540 677q0 23 23 23h18q22 0 22 -23v-406q0 -146 -67 -213.5t-190 -67.5q-61 0 -109 16.5t-81 51t-50.5 87.5t-17.5 126v406q0 23 22 23h18q23 0 23 -23v-409q0 -113 52.5 -165.5t142.5 -52.5t142 52.5t52 165.5v409zM383 779q5 -5 5 -13q0 -16 -16 -16h-15
q-10 0 -16.5 1.5t-14.5 8.5l-109 89q-5 5 -5 12q0 19 19 19h46q15 0 22 -4t15 -14z" />
    <glyph glyph-name="Uhungarumlaut" unicode="&#x170;" horiz-adv-x="691" 
d="M540 677q0 23 23 23h18q22 0 22 -23v-406q0 -146 -67 -213.5t-190 -67.5q-61 0 -109 16.5t-81 51t-50.5 87.5t-17.5 126v406q0 23 22 23h18q23 0 23 -23v-409q0 -113 52.5 -165.5t142.5 -52.5t142 52.5t52 165.5v409zM277 861q5 10 13 14.5t24 4.5h40q20 0 20 -19
q0 -7 -6 -13l-71 -84q-12 -14 -30 -14h-15q-16 0 -16 16q0 4 1.5 8t3.5 7zM425 861q5 10 13 14.5t24 4.5h40q20 0 20 -19q0 -7 -6 -13l-71 -84q-12 -14 -30 -14h-15q-16 0 -16 16q0 4 1.5 8t3.5 7z" />
    <glyph glyph-name="Umacron" unicode="&#x16a;" horiz-adv-x="691" 
d="M540 677q0 23 23 23h18q22 0 22 -23v-406q0 -146 -67 -213.5t-190 -67.5q-61 0 -109 16.5t-81 51t-50.5 87.5t-17.5 126v406q0 23 22 23h18q23 0 23 -23v-409q0 -113 52.5 -165.5t142.5 -52.5t142 52.5t52 165.5v409zM246 750q-22 0 -22 22v22q0 22 22 22h199
q22 0 22 -22v-22q0 -22 -22 -22h-199z" />
    <glyph glyph-name="Uogonek" unicode="&#x172;" horiz-adv-x="691" 
d="M540 677q0 23 23 23h18q22 0 22 -23v-406q0 -125 -49.5 -192.5t-141.5 -83.5q-32 -7 -53.5 -23t-21.5 -54t21.5 -59.5t54.5 -21.5h15q22 0 22 -22v-13q0 -22 -22 -22h-19q-61 0 -96.5 37t-35.5 101q0 26 3.5 44t11.5 32q-97 13 -150.5 80t-53.5 197v406q0 23 22 23h18
q23 0 23 -23v-409q0 -113 52.5 -165.5t142.5 -52.5t142 52.5t52 165.5v409z" />
    <glyph glyph-name="Uring" unicode="&#x16e;" horiz-adv-x="691" 
d="M540 677q0 23 23 23h18q22 0 22 -23v-406q0 -146 -67 -213.5t-190 -67.5q-61 0 -109 16.5t-81 51t-50.5 87.5t-17.5 126v406q0 23 22 23h18q23 0 23 -23v-409q0 -113 52.5 -165.5t142.5 -52.5t142 52.5t52 165.5v409zM315 815q0 -13 8.5 -21.5t21.5 -8.5t21.5 8.5
t8.5 21.5t-8.5 21.5t-21.5 8.5t-21.5 -8.5t-8.5 -21.5zM265 815q0 33 23.5 54t56.5 21t56.5 -21t23.5 -54t-23.5 -54t-56.5 -21t-56.5 21t-23.5 54z" />
    <glyph glyph-name="Utilde" unicode="&#x168;" horiz-adv-x="691" 
d="M540 677q0 23 23 23h18q22 0 22 -23v-406q0 -146 -67 -213.5t-190 -67.5q-61 0 -109 16.5t-81 51t-50.5 87.5t-17.5 126v406q0 23 22 23h18q23 0 23 -23v-409q0 -113 52.5 -165.5t142.5 -52.5t142 52.5t52 165.5v409zM221 766q0 14 6 28t16 25t23.5 18t28.5 7
q18 0 31 -5.5t24.5 -11.5l21.5 -11.5t21 -5.5q9 0 13.5 4.5t8 10.5t7.5 10.5t12 4.5h20q8 0 12 -5t4 -11q0 -14 -6 -28.5t-16.5 -25.5t-24 -18t-28.5 -7q-17 0 -30.5 5.5t-25 11.5l-21.5 11.5t-20 5.5q-9 0 -13.5 -4.5t-8 -10t-7.5 -10t-12 -4.5h-20q-8 0 -12 5t-4 11z" />
    <glyph glyph-name="V" unicode="V" horiz-adv-x="638" 
d="M538 685q2 4 7 9.5t15 5.5h21q8 0 14 -6t6 -14q0 -5 -2 -11l-232 -645q-9 -24 -34 -24h-28q-25 0 -34 24l-232 645q-2 6 -2 11q0 8 6 14t14 6h21q10 0 15 -5.5t7 -9.5l219 -612z" />
    <glyph glyph-name="W" unicode="W" horiz-adv-x="788" 
d="M560 115l117 570q3 15 22 15h21q8 0 14 -6t6 -14q0 -2 -2 -12l-137 -644q-6 -24 -28 -24h-15q-24 0 -31 24l-133 422l-133 -422q-8 -24 -31 -24h-15q-22 0 -28 24l-137 644q-2 10 -2 12q0 8 6 14t14 6h21q19 0 22 -15l117 -570l124 407q3 9 10 16t21 7h22q14 0 21 -7
t10 -16z" />
    <glyph glyph-name="Wacute" unicode="&#x1e82;" horiz-adv-x="788" 
d="M560 115l117 570q3 15 22 15h21q8 0 14 -6t6 -14q0 -2 -2 -12l-137 -644q-6 -24 -28 -24h-15q-24 0 -31 24l-133 422l-133 -422q-8 -24 -31 -24h-15q-22 0 -28 24l-137 644q-2 10 -2 12q0 8 6 14t14 6h21q19 0 22 -15l117 -570l124 407q3 9 10 16t21 7h22q14 0 21 -7
t10 -16zM434 862q8 10 15 14t22 4h46q19 0 19 -19q0 -7 -5 -12l-109 -89q-8 -7 -14.5 -8.5t-16.5 -1.5h-15q-16 0 -16 16q0 8 5 13z" />
    <glyph glyph-name="Wcircumflex" unicode="&#x174;" horiz-adv-x="788" 
d="M560 115l117 570q3 15 22 15h21q8 0 14 -6t6 -14q0 -2 -2 -12l-137 -644q-6 -24 -28 -24h-15q-24 0 -31 24l-133 422l-133 -422q-8 -24 -31 -24h-15q-22 0 -28 24l-137 644q-2 10 -2 12q0 8 6 14t14 6h21q19 0 22 -15l117 -570l124 407q3 9 10 16t21 7h22q14 0 21 -7
t10 -16zM399 880q8 0 14.5 -1.5t17.5 -12.5l87 -85q12 -12 12 -20q0 -11 -14 -11h-17q-6 0 -13.5 2t-11.5 5l-80 60l-80 -60q-4 -3 -11.5 -5t-13.5 -2h-17q-14 0 -14 11q0 8 12 20l87 85q11 11 17.5 12.5t14.5 1.5h10z" />
    <glyph glyph-name="Wdieresis" unicode="&#x1e84;" horiz-adv-x="788" 
d="M560 115l117 570q3 15 22 15h21q8 0 14 -6t6 -14q0 -2 -2 -12l-137 -644q-6 -24 -28 -24h-15q-24 0 -31 24l-133 422l-133 -422q-8 -24 -31 -24h-15q-22 0 -28 24l-137 644q-2 10 -2 12q0 8 6 14t14 6h21q19 0 22 -15l117 -570l124 407q3 9 10 16t21 7h22q14 0 21 -7
t10 -16zM527 772q0 -10 -6.5 -16t-16.5 -6h-38q-22 0 -22 22v38q0 10 6 16.5t16 6.5h38q10 0 16.5 -6.5t6.5 -16.5v-38zM344 772q0 -10 -6.5 -16t-16.5 -6h-38q-22 0 -22 22v38q0 10 6 16.5t16 6.5h38q10 0 16.5 -6.5t6.5 -16.5v-38z" />
    <glyph glyph-name="Wgrave" unicode="&#x1e80;" horiz-adv-x="788" 
d="M560 115l117 570q3 15 22 15h21q8 0 14 -6t6 -14q0 -2 -2 -12l-137 -644q-6 -24 -28 -24h-15q-24 0 -31 24l-133 422l-133 -422q-8 -24 -31 -24h-15q-22 0 -28 24l-137 644q-2 10 -2 12q0 8 6 14t14 6h21q19 0 22 -15l117 -570l124 407q3 9 10 16t21 7h22q14 0 21 -7
t10 -16zM423 779q5 -5 5 -13q0 -16 -16 -16h-15q-10 0 -16.5 1.5t-14.5 8.5l-109 89q-5 5 -5 12q0 19 19 19h46q15 0 22 -4t15 -14z" />
    <glyph glyph-name="X" unicode="X" horiz-adv-x="609" 
d="M344 354l232 -321q4 -6 4 -13q0 -8 -6 -14t-14 -6h-24q-13 0 -23 15l-209 289l-209 -289q-11 -15 -23 -15h-22q-8 0 -14 6t-6 14q0 7 4 13l233 323l-224 311q-4 6 -4 13q0 8 6 14t14 6h24q12 0 23 -15l201 -280l197 280q10 15 23 15h22q8 0 14 -6t6 -14q0 -7 -4 -13z" />
    <glyph glyph-name="Y" unicode="Y" horiz-adv-x="632" 
d="M316 332l217 353q9 15 23 15h20q8 0 14 -6t6 -14q0 -5 -4 -13l-244 -400v-245q0 -22 -23 -22h-19q-22 0 -22 22v245l-244 400q-4 8 -4 13q0 8 6 14t14 6h20q14 0 23 -15z" />
    <glyph glyph-name="Yacute" unicode="&#xdd;" horiz-adv-x="632" 
d="M316 332l217 353q9 15 23 15h20q8 0 14 -6t6 -14q0 -5 -4 -13l-244 -400v-245q0 -22 -23 -22h-19q-22 0 -22 22v245l-244 400q-4 8 -4 13q0 8 6 14t14 6h20q14 0 23 -15zM353 862q8 10 15 14t22 4h46q19 0 19 -19q0 -7 -5 -12l-109 -89q-8 -7 -14.5 -8.5t-16.5 -1.5h-15
q-16 0 -16 16q0 8 5 13z" />
    <glyph glyph-name="Ycircumflex" unicode="&#x176;" horiz-adv-x="632" 
d="M316 332l217 353q9 15 23 15h20q8 0 14 -6t6 -14q0 -5 -4 -13l-244 -400v-245q0 -22 -23 -22h-19q-22 0 -22 22v245l-244 400q-4 8 -4 13q0 8 6 14t14 6h20q14 0 23 -15zM321 880q8 0 14.5 -1.5t17.5 -12.5l87 -85q12 -12 12 -20q0 -11 -14 -11h-17q-6 0 -13.5 2t-11.5 5
l-80 60l-80 -60q-4 -3 -11.5 -5t-13.5 -2h-17q-14 0 -14 11q0 8 12 20l87 85q11 11 17.5 12.5t14.5 1.5h10z" />
    <glyph glyph-name="Ydieresis" unicode="&#x178;" horiz-adv-x="632" 
d="M316 332l217 353q9 15 23 15h20q8 0 14 -6t6 -14q0 -5 -4 -13l-244 -400v-245q0 -22 -23 -22h-19q-22 0 -22 22v245l-244 400q-4 8 -4 13q0 8 6 14t14 6h20q14 0 23 -15zM449 772q0 -10 -6.5 -16t-16.5 -6h-38q-22 0 -22 22v38q0 10 6 16.5t16 6.5h38q10 0 16.5 -6.5
t6.5 -16.5v-38zM266 772q0 -10 -6.5 -16t-16.5 -6h-38q-22 0 -22 22v38q0 10 6 16.5t16 6.5h38q10 0 16.5 -6.5t6.5 -16.5v-38z" />
    <glyph glyph-name="Ygrave" unicode="&#x1ef2;" horiz-adv-x="632" 
d="M316 332l217 353q9 15 23 15h20q8 0 14 -6t6 -14q0 -5 -4 -13l-244 -400v-245q0 -22 -23 -22h-19q-22 0 -22 22v245l-244 400q-4 8 -4 13q0 8 6 14t14 6h20q14 0 23 -15zM344 779q5 -5 5 -13q0 -16 -16 -16h-15q-10 0 -16.5 1.5t-14.5 8.5l-109 89q-5 5 -5 12q0 19 19 19
h46q15 0 22 -4t15 -14z" />
    <glyph glyph-name="Z" unicode="Z" horiz-adv-x="579" 
d="M514 60q23 0 23 -23v-15q0 -22 -23 -22h-450q-22 0 -22 23v20q0 15 6 24t9 14l394 559h-378q-22 0 -22 22v15q0 23 22 23h431q23 0 23 -23v-20q0 -13 -4 -21t-9 -15l-392 -561h392z" />
    <glyph glyph-name="Zacute" unicode="&#x179;" horiz-adv-x="579" 
d="M514 60q23 0 23 -23v-15q0 -22 -23 -22h-450q-22 0 -22 23v20q0 15 6 24t9 14l394 559h-378q-22 0 -22 22v15q0 23 22 23h431q23 0 23 -23v-20q0 -13 -4 -21t-9 -15l-392 -561h392zM330 862q8 10 15 14t22 4h46q19 0 19 -19q0 -7 -5 -12l-109 -89q-8 -7 -14.5 -8.5
t-16.5 -1.5h-15q-16 0 -16 16q0 8 5 13z" />
    <glyph glyph-name="Zcaron" unicode="&#x17d;" horiz-adv-x="579" 
d="M514 60q23 0 23 -23v-15q0 -22 -23 -22h-450q-22 0 -22 23v20q0 15 6 24t9 14l394 559h-378q-22 0 -22 22v15q0 23 22 23h431q23 0 23 -23v-20q0 -13 -4 -21t-9 -15l-392 -561h392zM284 750q-8 0 -14.5 1.5t-17.5 12.5l-87 85q-12 12 -12 20q0 11 14 11h17q6 0 13.5 -2
t11.5 -5l80 -60l80 60q4 3 11.5 5t13.5 2h17q14 0 14 -11q0 -8 -12 -20l-87 -85q-11 -11 -17.5 -12.5t-14.5 -1.5h-10z" />
    <glyph glyph-name="Zdotaccent" unicode="&#x17b;" horiz-adv-x="579" 
d="M514 60q23 0 23 -23v-15q0 -22 -23 -22h-450q-22 0 -22 23v20q0 15 6 24t9 14l394 559h-378q-22 0 -22 22v15q0 23 22 23h431q23 0 23 -23v-20q0 -13 -4 -21t-9 -15l-392 -561h392zM336 772q0 -10 -6.5 -16t-16.5 -6h-48q-22 0 -22 22v48q0 10 6 16.5t16 6.5h48
q10 0 16.5 -6.5t6.5 -16.5v-48z" />
    <glyph glyph-name="a" unicode="a" 
d="M420 0q-22 0 -22 22v47q-9 -14 -23.5 -28t-35.5 -25t-50 -18.5t-68 -7.5q-36 0 -68.5 11.5t-57 31.5t-39 47t-14.5 59q0 34 14.5 61t40.5 47.5t62.5 34t80.5 19.5l158 22v35q0 54 -32.5 84t-103.5 30q-56 0 -86.5 -21.5t-38.5 -46.5q-4 -12 -9.5 -16.5t-14.5 -4.5h-14
q-9 0 -15.5 6.5t-6.5 15.5q0 14 10 35t32.5 41t57.5 34.5t85 14.5q59 0 97.5 -16t60.5 -41.5t30.5 -56.5t8.5 -61v-333q0 -22 -22 -22h-17zM231 48q34 0 64.5 11.5t53.5 34.5t36 58t13 82v34l-129 -18q-166 -23 -166 -106q0 -25 11.5 -43t29.5 -30t41 -17.5t46 -5.5z" />
    <glyph glyph-name="aacute" unicode="&#xe1;" 
d="M420 0q-22 0 -22 22v47q-9 -14 -23.5 -28t-35.5 -25t-50 -18.5t-68 -7.5q-36 0 -68.5 11.5t-57 31.5t-39 47t-14.5 59q0 34 14.5 61t40.5 47.5t62.5 34t80.5 19.5l158 22v35q0 54 -32.5 84t-103.5 30q-56 0 -86.5 -21.5t-38.5 -46.5q-4 -12 -9.5 -16.5t-14.5 -4.5h-14
q-9 0 -15.5 6.5t-6.5 15.5q0 14 10 35t32.5 41t57.5 34.5t85 14.5q59 0 97.5 -16t60.5 -41.5t30.5 -56.5t8.5 -61v-333q0 -22 -22 -22h-17zM231 48q34 0 64.5 11.5t53.5 34.5t36 58t13 82v34l-129 -18q-166 -23 -166 -106q0 -25 11.5 -43t29.5 -30t41 -17.5t46 -5.5z
M287 707q8 10 15 14t22 4h41q19 0 19 -19q0 -7 -5 -12l-109 -89q-8 -7 -14.5 -8.5t-16.5 -1.5h-10q-16 0 -16 16q0 8 5 13z" />
    <glyph glyph-name="abreve" unicode="&#x103;" 
d="M420 0q-22 0 -22 22v47q-9 -14 -23.5 -28t-35.5 -25t-50 -18.5t-68 -7.5q-36 0 -68.5 11.5t-57 31.5t-39 47t-14.5 59q0 34 14.5 61t40.5 47.5t62.5 34t80.5 19.5l158 22v35q0 54 -32.5 84t-103.5 30q-56 0 -86.5 -21.5t-38.5 -46.5q-4 -12 -9.5 -16.5t-14.5 -4.5h-14
q-9 0 -15.5 6.5t-6.5 15.5q0 14 10 35t32.5 41t57.5 34.5t85 14.5q59 0 97.5 -16t60.5 -41.5t30.5 -56.5t8.5 -61v-333q0 -22 -22 -22h-17zM231 48q34 0 64.5 11.5t53.5 34.5t36 58t13 82v34l-129 -18q-166 -23 -166 -106q0 -25 11.5 -43t29.5 -30t41 -17.5t46 -5.5z
M151 706q0 8 5 13.5t14 5.5h15q9 0 14 -5.5t5 -13.5q0 -12 2.5 -24t9 -21t17.5 -15t28 -6t28 6t17.5 15t9 21t2.5 24q0 8 5 13.5t14 5.5h15q9 0 14 -5.5t5 -13.5q0 -21 -5 -42t-17 -37.5t-33.5 -26.5t-54.5 -10t-54.5 10t-33.5 26.5t-17 37.5t-5 42z" />
    <glyph glyph-name="acircumflex" unicode="&#xe2;" 
d="M420 0q-22 0 -22 22v47q-9 -14 -23.5 -28t-35.5 -25t-50 -18.5t-68 -7.5q-36 0 -68.5 11.5t-57 31.5t-39 47t-14.5 59q0 34 14.5 61t40.5 47.5t62.5 34t80.5 19.5l158 22v35q0 54 -32.5 84t-103.5 30q-56 0 -86.5 -21.5t-38.5 -46.5q-4 -12 -9.5 -16.5t-14.5 -4.5h-14
q-9 0 -15.5 6.5t-6.5 15.5q0 14 10 35t32.5 41t57.5 34.5t85 14.5q59 0 97.5 -16t60.5 -41.5t30.5 -56.5t8.5 -61v-333q0 -22 -22 -22h-17zM231 48q34 0 64.5 11.5t53.5 34.5t36 58t13 82v34l-129 -18q-166 -23 -166 -106q0 -25 11.5 -43t29.5 -30t41 -17.5t46 -5.5z
M265 725q8 0 14.5 -1.5t17.5 -12.5l87 -85q12 -12 12 -20q0 -11 -14 -11h-17q-6 0 -13.5 2t-11.5 5l-80 60l-80 -60q-4 -3 -11.5 -5t-13.5 -2h-17q-14 0 -14 11q0 8 12 20l87 85q11 11 17.5 12.5t14.5 1.5h10z" />
    <glyph glyph-name="adieresis" unicode="&#xe4;" 
d="M420 0q-22 0 -22 22v47q-9 -14 -23.5 -28t-35.5 -25t-50 -18.5t-68 -7.5q-36 0 -68.5 11.5t-57 31.5t-39 47t-14.5 59q0 34 14.5 61t40.5 47.5t62.5 34t80.5 19.5l158 22v35q0 54 -32.5 84t-103.5 30q-56 0 -86.5 -21.5t-38.5 -46.5q-4 -12 -9.5 -16.5t-14.5 -4.5h-14
q-9 0 -15.5 6.5t-6.5 15.5q0 14 10 35t32.5 41t57.5 34.5t85 14.5q59 0 97.5 -16t60.5 -41.5t30.5 -56.5t8.5 -61v-333q0 -22 -22 -22h-17zM231 48q34 0 64.5 11.5t53.5 34.5t36 58t13 82v34l-129 -18q-166 -23 -166 -106q0 -25 11.5 -43t29.5 -30t41 -17.5t46 -5.5z
M383 649q0 -10 -6.5 -16t-16.5 -6h-38q-22 0 -22 22v38q0 10 6 16.5t16 6.5h38q10 0 16.5 -6.5t6.5 -16.5v-38zM230 649q0 -10 -6.5 -16t-16.5 -6h-38q-22 0 -22 22v38q0 10 6 16.5t16 6.5h38q10 0 16.5 -6.5t6.5 -16.5v-38z" />
    <glyph glyph-name="agrave" unicode="&#xe0;" 
d="M420 0q-22 0 -22 22v47q-9 -14 -23.5 -28t-35.5 -25t-50 -18.5t-68 -7.5q-36 0 -68.5 11.5t-57 31.5t-39 47t-14.5 59q0 34 14.5 61t40.5 47.5t62.5 34t80.5 19.5l158 22v35q0 54 -32.5 84t-103.5 30q-56 0 -86.5 -21.5t-38.5 -46.5q-4 -12 -9.5 -16.5t-14.5 -4.5h-14
q-9 0 -15.5 6.5t-6.5 15.5q0 14 10 35t32.5 41t57.5 34.5t85 14.5q59 0 97.5 -16t60.5 -41.5t30.5 -56.5t8.5 -61v-333q0 -22 -22 -22h-17zM231 48q34 0 64.5 11.5t53.5 34.5t36 58t13 82v34l-129 -18q-166 -23 -166 -106q0 -25 11.5 -43t29.5 -30t41 -17.5t46 -5.5z
M294 624q5 -5 5 -13q0 -16 -16 -16h-10q-10 0 -16.5 1.5t-14.5 8.5l-109 89q-5 5 -5 12q0 19 19 19h41q15 0 22 -4t15 -14z" />
    <glyph glyph-name="amacron" unicode="&#x101;" 
d="M420 0q-22 0 -22 22v47q-9 -14 -23.5 -28t-35.5 -25t-50 -18.5t-68 -7.5q-36 0 -68.5 11.5t-57 31.5t-39 47t-14.5 59q0 34 14.5 61t40.5 47.5t62.5 34t80.5 19.5l158 22v35q0 54 -32.5 84t-103.5 30q-56 0 -86.5 -21.5t-38.5 -46.5q-4 -12 -9.5 -16.5t-14.5 -4.5h-14
q-9 0 -15.5 6.5t-6.5 15.5q0 14 10 35t32.5 41t57.5 34.5t85 14.5q59 0 97.5 -16t60.5 -41.5t30.5 -56.5t8.5 -61v-333q0 -22 -22 -22h-17zM231 48q34 0 64.5 11.5t53.5 34.5t36 58t13 82v34l-129 -18q-166 -23 -166 -106q0 -25 11.5 -43t29.5 -30t41 -17.5t46 -5.5z
M161 622q-22 0 -22 22v14q0 22 22 22h199q22 0 22 -22v-14q0 -22 -22 -22h-199z" />
    <glyph glyph-name="aogonek" unicode="&#x105;" 
d="M428 -220q-46 0 -79 33t-33 97q0 24 7.5 44t19.5 36t26.5 27.5t28.5 17.5v34q-9 -14 -23.5 -28t-35.5 -25t-50 -18.5t-68 -7.5q-36 0 -68.5 11.5t-57 31.5t-39 47t-14.5 59q0 34 14.5 61t40.5 47.5t62.5 34t80.5 19.5l158 22v35q0 54 -32.5 84t-103.5 30
q-56 0 -86.5 -21.5t-38.5 -46.5q-4 -12 -9.5 -16.5t-14.5 -4.5h-14q-9 0 -15.5 6.5t-6.5 15.5q0 14 10 35t32.5 41t57.5 34.5t85 14.5q59 0 97.5 -16t60.5 -41.5t30.5 -56.5t8.5 -61v-333q0 -14 -16 -22q-34 -15 -50.5 -35t-16.5 -55q0 -38 15 -55.5t41 -17.5h5q22 0 22 -22
v-13q0 -22 -22 -22h-9zM231 48q34 0 64.5 11.5t53.5 34.5t36 58t13 82v34l-129 -18q-166 -23 -166 -106q0 -25 11.5 -43t29.5 -30t41 -17.5t46 -5.5z" />
    <glyph glyph-name="aring" unicode="&#xe5;" 
d="M420 0q-22 0 -22 22v47q-9 -14 -23.5 -28t-35.5 -25t-50 -18.5t-68 -7.5q-36 0 -68.5 11.5t-57 31.5t-39 47t-14.5 59q0 34 14.5 61t40.5 47.5t62.5 34t80.5 19.5l158 22v35q0 54 -32.5 84t-103.5 30q-56 0 -86.5 -21.5t-38.5 -46.5q-4 -12 -9.5 -16.5t-14.5 -4.5h-14
q-9 0 -15.5 6.5t-6.5 15.5q0 14 10 35t32.5 41t57.5 34.5t85 14.5q59 0 97.5 -16t60.5 -41.5t30.5 -56.5t8.5 -61v-333q0 -22 -22 -22h-17zM231 48q34 0 64.5 11.5t53.5 34.5t36 58t13 82v34l-129 -18q-166 -23 -166 -106q0 -25 11.5 -43t29.5 -30t41 -17.5t46 -5.5z
M230 665q0 -13 8.5 -21.5t21.5 -8.5t21.5 8.5t8.5 21.5t-8.5 21.5t-21.5 8.5t-21.5 -8.5t-8.5 -21.5zM180 665q0 33 23.5 54t56.5 21t56.5 -21t23.5 -54t-23.5 -54t-56.5 -21t-56.5 21t-23.5 54z" />
    <glyph glyph-name="atilde" unicode="&#xe3;" 
d="M420 0q-22 0 -22 22v47q-9 -14 -23.5 -28t-35.5 -25t-50 -18.5t-68 -7.5q-36 0 -68.5 11.5t-57 31.5t-39 47t-14.5 59q0 34 14.5 61t40.5 47.5t62.5 34t80.5 19.5l158 22v35q0 54 -32.5 84t-103.5 30q-56 0 -86.5 -21.5t-38.5 -46.5q-4 -12 -9.5 -16.5t-14.5 -4.5h-14
q-9 0 -15.5 6.5t-6.5 15.5q0 14 10 35t32.5 41t57.5 34.5t85 14.5q59 0 97.5 -16t60.5 -41.5t30.5 -56.5t8.5 -61v-333q0 -22 -22 -22h-17zM231 48q34 0 64.5 11.5t53.5 34.5t36 58t13 82v34l-129 -18q-166 -23 -166 -106q0 -25 11.5 -43t29.5 -30t41 -17.5t46 -5.5z
M141 611q0 29 20 51t51 22q18 0 30 -5.5t22 -11.5l19 -11.5t20 -5.5q9 0 13.5 4.5t8 10.5t7.5 10.5t12 4.5h20q8 0 12 -5t4 -11q0 -29 -21 -51.5t-51 -22.5q-17 0 -29.5 5.5t-22.5 11.5l-19 11.5t-19 5.5q-9 0 -13.5 -4.5t-8 -10t-7.5 -10t-12 -4.5h-20q-8 0 -12 5t-4 11z
" />
    <glyph glyph-name="ae" unicode="&#xe6;" horiz-adv-x="881" 
d="M263 530q76 0 118 -25.5t60 -62.5q26 39 68.5 63.5t105.5 24.5q70 0 112 -26t65 -65t30.5 -84t7.5 -83v-15q0 -10 -6.5 -16t-16.5 -6h-346v-10q1 -49 15.5 -82.5t36.5 -54.5t48.5 -30.5t52.5 -9.5q39 0 77 15t62 50q8 12 13.5 15t16.5 3h12q9 0 15 -5.5t6 -14.5
q0 -11 -12.5 -31.5t-38 -40.5t-63 -34.5t-88.5 -14.5q-74 0 -119 31t-68 79q-58 -110 -205 -110q-40 0 -73 11.5t-56.5 31.5t-36.5 47t-13 59q0 34 14.5 61.5t40.5 48.5t62.5 35t80.5 20l158 22v32q0 54 -32.5 84t-103.5 30q-56 0 -87 -21.5t-39 -46.5q-4 -12 -9.5 -16.5
t-14.5 -4.5h-14q-9 0 -15.5 6.5t-6.5 15.5q0 14 10.5 35t33 41t57.5 34.5t85 14.5zM232 48q34 0 64.5 11.5t53.5 34.5t36 58t13 82v34l-129 -18q-166 -23 -166 -106q0 -25 11.5 -43t29.5 -30t41 -17.5t46 -5.5zM461 291h308v4q0 38 -9.5 70.5t-28.5 56t-48 37t-68 13.5
q-29 0 -56 -10.5t-48 -32.5t-35 -55.5t-15 -78.5v-4z" />
    <glyph glyph-name="aeacute" unicode="&#x1fd;" horiz-adv-x="881" 
d="M482 707q8 10 15 14t22 4h41q19 0 19 -19q0 -7 -5 -12l-109 -89q-8 -7 -14.5 -8.5t-16.5 -1.5h-10q-16 0 -16 16q0 8 5 13zM263 530q76 0 118 -25.5t60 -62.5q26 39 68.5 63.5t105.5 24.5q70 0 112 -26t65 -65t30.5 -84t7.5 -83v-15q0 -10 -6.5 -16t-16.5 -6h-346v-10
q1 -49 15.5 -82.5t36.5 -54.5t48.5 -30.5t52.5 -9.5q39 0 77 15t62 50q8 12 13.5 15t16.5 3h12q9 0 15 -5.5t6 -14.5q0 -11 -12.5 -31.5t-38 -40.5t-63 -34.5t-88.5 -14.5q-74 0 -119 31t-68 79q-58 -110 -205 -110q-40 0 -73 11.5t-56.5 31.5t-36.5 47t-13 59
q0 34 14.5 61.5t40.5 48.5t62.5 35t80.5 20l158 22v32q0 54 -32.5 84t-103.5 30q-56 0 -87 -21.5t-39 -46.5q-4 -12 -9.5 -16.5t-14.5 -4.5h-14q-9 0 -15.5 6.5t-6.5 15.5q0 14 10.5 35t33 41t57.5 34.5t85 14.5zM232 48q34 0 64.5 11.5t53.5 34.5t36 58t13 82v34l-129 -18
q-166 -23 -166 -106q0 -25 11.5 -43t29.5 -30t41 -17.5t46 -5.5zM461 291h308v4q0 38 -9.5 70.5t-28.5 56t-48 37t-68 13.5q-29 0 -56 -10.5t-48 -32.5t-35 -55.5t-15 -78.5v-4z" />
    <glyph glyph-name="b" unicode="b" horiz-adv-x="580" 
d="M311 530q58 0 98.5 -21.5t65.5 -56t36.5 -77.5t13.5 -87q1 -28 0 -56q-2 -44 -13.5 -87t-36.5 -77.5t-65.5 -56t-98.5 -21.5q-63 0 -103 22.5t-65 56.5v-47q0 -22 -22 -22h-17q-22 0 -22 22v666q0 22 22 22h17q22 0 22 -22v-237q25 33 65 56t103 23zM143 224
q1 -31 10.5 -62t29 -56.5t49.5 -41.5t73 -16q44 0 73.5 15t48 40.5t27 59t10.5 69.5q1 28 0 56q-2 36 -10.5 69t-27 58.5t-48 41t-73.5 15.5q-42 0 -72 -15.5t-50 -39.5t-29.5 -54.5t-10.5 -60.5q-1 -15 -1 -39t1 -39z" />
    <glyph glyph-name="c" unicode="c" 
d="M118 295q-1 -15 -1 -35t1 -35q3 -94 47.5 -135.5t112.5 -41.5q53 0 89.5 22.5t57.5 79.5q5 12 9 16.5t15 4.5h14q9 0 16 -6t6 -16q-1 -27 -13.5 -55t-38 -51.5t-64 -38t-91.5 -14.5q-106 0 -162 61t-59 169q-1 15 -1 40t1 40q3 108 59 169t162 61q53 0 91.5 -14.5t64 -38
t38 -51.5t13.5 -55q1 -10 -6 -16t-16 -6h-14q-11 0 -15 4.5t-9 16.5q-21 57 -57.5 79.5t-89.5 22.5q-68 0 -112.5 -41.5t-47.5 -135.5z" />
    <glyph glyph-name="cacute" unicode="&#x107;" 
d="M118 295q-1 -15 -1 -35t1 -35q3 -94 47.5 -135.5t112.5 -41.5q53 0 89.5 22.5t57.5 79.5q5 12 9 16.5t15 4.5h14q9 0 16 -6t6 -16q-1 -27 -13.5 -55t-38 -51.5t-64 -38t-91.5 -14.5q-106 0 -162 61t-59 169q-1 15 -1 40t1 40q3 108 59 169t162 61q53 0 91.5 -14.5t64 -38
t38 -51.5t13.5 -55q1 -10 -6 -16t-16 -6h-14q-11 0 -15 4.5t-9 16.5q-21 57 -57.5 79.5t-89.5 22.5q-68 0 -112.5 -41.5t-47.5 -135.5zM309 707q8 10 15 14t22 4h41q19 0 19 -19q0 -7 -5 -12l-109 -89q-8 -7 -14.5 -8.5t-16.5 -1.5h-10q-16 0 -16 16q0 8 5 13z" />
    <glyph glyph-name="ccaron" unicode="&#x10d;" 
d="M118 295q-1 -15 -1 -35t1 -35q3 -94 47.5 -135.5t112.5 -41.5q53 0 89.5 22.5t57.5 79.5q5 12 9 16.5t15 4.5h14q9 0 16 -6t6 -16q-1 -27 -13.5 -55t-38 -51.5t-64 -38t-91.5 -14.5q-106 0 -162 61t-59 169q-1 15 -1 40t1 40q3 108 59 169t162 61q53 0 91.5 -14.5t64 -38
t38 -51.5t13.5 -55q1 -10 -6 -16t-16 -6h-14q-11 0 -15 4.5t-9 16.5q-21 57 -57.5 79.5t-89.5 22.5q-68 0 -112.5 -41.5t-47.5 -135.5zM266 595q-8 0 -14.5 1.5t-17.5 12.5l-87 85q-12 12 -12 20q0 11 14 11h17q6 0 13.5 -2t11.5 -5l80 -60l80 60q4 3 11.5 5t13.5 2h17
q14 0 14 -11q0 -8 -12 -20l-87 -85q-11 -11 -17.5 -12.5t-14.5 -1.5h-10z" />
    <glyph glyph-name="ccedilla" unicode="&#xe7;" 
d="M118 295q-1 -15 -1 -35t1 -35q3 -94 47.5 -135.5t112.5 -41.5q53 0 89.5 22.5t57.5 79.5q5 12 9 16.5t15 4.5h14q9 0 16 -6t6 -16q-1 -27 -13.5 -55t-38 -51.5t-64 -38t-91.5 -14.5l-23 -48q13 8 38 8q33 0 54.5 -23t21.5 -59t-23 -62.5t-71 -25.5q-21 0 -39 6t-29.5 14
t-15.5 16.5t2 14.5l14 13q6 6 11.5 4t12.5 -7t17 -10t27 -5t30 10.5t13 29.5q0 18 -13 28t-30 10q-12 0 -21 -3l-15.5 -5t-12 -2t-11.5 6l-16 17q-5 6 -1.5 14t6.5 16l21 48q-81 14 -123.5 72.5t-44.5 152.5q-1 15 -1 40t1 40q3 108 59 169t162 61q53 0 91.5 -14.5t64 -38
t38 -51.5t13.5 -55q1 -10 -6 -16t-16 -6h-14q-11 0 -15 4.5t-9 16.5q-21 57 -57.5 79.5t-89.5 22.5q-68 0 -112.5 -41.5t-47.5 -135.5z" />
    <glyph glyph-name="ccircumflex" unicode="&#x109;" 
d="M118 295q-1 -15 -1 -35t1 -35q3 -94 47.5 -135.5t112.5 -41.5q53 0 89.5 22.5t57.5 79.5q5 12 9 16.5t15 4.5h14q9 0 16 -6t6 -16q-1 -27 -13.5 -55t-38 -51.5t-64 -38t-91.5 -14.5q-106 0 -162 61t-59 169q-1 15 -1 40t1 40q3 108 59 169t162 61q53 0 91.5 -14.5t64 -38
t38 -51.5t13.5 -55q1 -10 -6 -16t-16 -6h-14q-11 0 -15 4.5t-9 16.5q-21 57 -57.5 79.5t-89.5 22.5q-68 0 -112.5 -41.5t-47.5 -135.5zM276 735q8 0 14.5 -1.5t17.5 -12.5l87 -85q12 -12 12 -20q0 -11 -14 -11h-17q-6 0 -13.5 2t-11.5 5l-80 60l-80 -60q-4 -3 -11.5 -5
t-13.5 -2h-17q-14 0 -14 11q0 8 12 20l87 85q11 11 17.5 12.5t14.5 1.5h10z" />
    <glyph glyph-name="cdotaccent" unicode="&#x10b;" 
d="M118 295q-1 -15 -1 -35t1 -35q3 -94 47.5 -135.5t112.5 -41.5q53 0 89.5 22.5t57.5 79.5q5 12 9 16.5t15 4.5h14q9 0 16 -6t6 -16q-1 -27 -13.5 -55t-38 -51.5t-64 -38t-91.5 -14.5q-106 0 -162 61t-59 169q-1 15 -1 40t1 40q3 108 59 169t162 61q53 0 91.5 -14.5t64 -38
t38 -51.5t13.5 -55q1 -10 -6 -16t-16 -6h-14q-11 0 -15 4.5t-9 16.5q-21 57 -57.5 79.5t-89.5 22.5q-68 0 -112.5 -41.5t-47.5 -135.5zM318 639q0 -10 -6.5 -16t-16.5 -6h-48q-22 0 -22 22v48q0 10 6 16.5t16 6.5h48q10 0 16.5 -6.5t6.5 -16.5v-48z" />
    <glyph glyph-name="d" unicode="d" horiz-adv-x="580" 
d="M269 530q63 0 103 -23t65 -56v237q0 22 22 22h17q22 0 22 -22v-666q0 -22 -22 -22h-17q-22 0 -22 22v47q-25 -34 -65 -56.5t-103 -22.5q-59 0 -99 21.5t-65 56t-37 77.5t-13 87q-1 28 0 56q1 44 13 87t37 77.5t65 56t99 21.5zM437 224q1 15 1 39t-1 39q-1 30 -10.5 60.5
t-29.5 54.5t-50 39.5t-72 15.5q-44 0 -73.5 -15.5t-48 -41t-27.5 -58.5t-10 -69q-1 -28 0 -56q1 -36 10 -69.5t27.5 -59t48 -40.5t73.5 -15q43 0 73 16t49.5 41.5t29 56.5t10.5 62z" />
    <glyph glyph-name="dcaron" unicode="&#x10f;" horiz-adv-x="591" 
d="M269 530q63 0 103 -23t65 -56v237q0 22 22 22h17q22 0 22 -22v-666q0 -22 -22 -22h-17q-22 0 -22 22v47q-25 -34 -65 -56.5t-103 -22.5q-59 0 -99 21.5t-65 56t-37 77.5t-13 87q-1 28 0 56q1 44 13 87t37 77.5t65 56t99 21.5zM437 224q1 15 1 39t-1 39q-1 30 -10.5 60.5
t-29.5 54.5t-50 39.5t-72 15.5q-44 0 -73.5 -15.5t-48 -41t-27.5 -58.5t-10 -69q-1 -28 0 -56q1 -36 10 -69.5t27.5 -59t48 -40.5t73.5 -15q43 0 73 16t49.5 41.5t29 56.5t10.5 62zM570 683q2 12 7.5 19.5t17.5 7.5h45q7 0 11 -5t4 -11q0 -9 -4 -18l-40 -105
q-5 -10 -10 -15.5t-16 -5.5h-18q-8 0 -12 6t-2 15z" />
    <glyph glyph-name="dcroat" unicode="&#x111;" horiz-adv-x="580" 
d="M270 530q63 0 103 -23t65 -56v120h-58q-22 0 -22 22v14q0 22 22 22h58v59q0 22 22 22h17q22 0 22 -22v-59h58q22 0 22 -22v-14q0 -22 -22 -22h-58v-549q0 -22 -22 -22h-17q-22 0 -22 22v47q-25 -34 -65 -56.5t-103 -22.5q-66 0 -107.5 24t-64.5 60.5t-32 79t-10 78.5
q-1 28 0 56q1 36 10 78.5t32 79t64.5 60.5t107.5 24zM438 224q1 15 1 39t-1 39q-1 30 -10.5 60.5t-29.5 54.5t-50 39.5t-72 15.5q-44 0 -74 -15.5t-48.5 -41t-27 -58.5t-9.5 -69q-1 -28 0 -56q1 -36 9.5 -69.5t27 -59t48.5 -40.5t74 -15q43 0 73 16t49.5 41.5t29 56.5
t10.5 62z" />
    <glyph glyph-name="e" unicode="e" horiz-adv-x="546" 
d="M55 300q4 51 20.5 93.5t44 72.5t66.5 47t88 17q105 0 163 -68.5t58 -189.5v-15q0 -10 -6.5 -16t-16.5 -6h-356v-10q1 -34 12.5 -66t31.5 -56.5t49 -39.5t65 -15q32 0 56 8t41 18.5t27.5 21.5t14.5 17q9 13 14 15.5t16 2.5h16q9 0 15.5 -5.5t5.5 -14.5q-1 -14 -15.5 -35
t-41 -40t-64.5 -32.5t-85 -13.5q-48 0 -87 16.5t-67 47t-44.5 73t-20.5 93.5q-1 15 -1 40t1 40zM116 291h318v4q0 37 -11 69.5t-31.5 56.5t-50.5 37.5t-67 13.5q-38 0 -67 -13.5t-49.5 -37.5t-31 -56.5t-10.5 -69.5v-4z" />
    <glyph glyph-name="eacute" unicode="&#xe9;" horiz-adv-x="546" 
d="M55 300q4 51 20.5 93.5t44 72.5t66.5 47t88 17q105 0 163 -68.5t58 -189.5v-15q0 -10 -6.5 -16t-16.5 -6h-356v-10q1 -34 12.5 -66t31.5 -56.5t49 -39.5t65 -15q32 0 56 8t41 18.5t27.5 21.5t14.5 17q9 13 14 15.5t16 2.5h16q9 0 15.5 -5.5t5.5 -14.5q-1 -14 -15.5 -35
t-41 -40t-64.5 -32.5t-85 -13.5q-48 0 -87 16.5t-67 47t-44.5 73t-20.5 93.5q-1 15 -1 40t1 40zM116 291h318v4q0 37 -11 69.5t-31.5 56.5t-50.5 37.5t-67 13.5q-38 0 -67 -13.5t-49.5 -37.5t-31 -56.5t-10.5 -69.5v-4zM317 707q8 10 15 14t22 4h41q19 0 19 -19q0 -7 -5 -12
l-109 -89q-8 -7 -14.5 -8.5t-16.5 -1.5h-10q-16 0 -16 16q0 8 5 13z" />
    <glyph glyph-name="ebreve" unicode="&#x115;" horiz-adv-x="546" 
d="M55 300q4 51 20.5 93.5t44 72.5t66.5 47t88 17q105 0 163 -68.5t58 -189.5v-15q0 -10 -6.5 -16t-16.5 -6h-356v-10q1 -34 12.5 -66t31.5 -56.5t49 -39.5t65 -15q32 0 56 8t41 18.5t27.5 21.5t14.5 17q9 13 14 15.5t16 2.5h16q9 0 15.5 -5.5t5.5 -14.5q-1 -14 -15.5 -35
t-41 -40t-64.5 -32.5t-85 -13.5q-48 0 -87 16.5t-67 47t-44.5 73t-20.5 93.5q-1 15 -1 40t1 40zM116 291h318v4q0 37 -11 69.5t-31.5 56.5t-50.5 37.5t-67 13.5q-38 0 -67 -13.5t-49.5 -37.5t-31 -56.5t-10.5 -69.5v-4zM164 706q0 8 5 13.5t14 5.5h15q9 0 14 -5.5t5 -13.5
q0 -12 2.5 -24t9 -21t17.5 -15t28 -6t28 6t17.5 15t9 21t2.5 24q0 8 5 13.5t14 5.5h15q9 0 14 -5.5t5 -13.5q0 -21 -5 -42t-17 -37.5t-33.5 -26.5t-54.5 -10t-54.5 10t-33.5 26.5t-17 37.5t-5 42z" />
    <glyph glyph-name="ecaron" unicode="&#x11b;" horiz-adv-x="546" 
d="M55 300q4 51 20.5 93.5t44 72.5t66.5 47t88 17q105 0 163 -68.5t58 -189.5v-15q0 -10 -6.5 -16t-16.5 -6h-356v-10q1 -34 12.5 -66t31.5 -56.5t49 -39.5t65 -15q32 0 56 8t41 18.5t27.5 21.5t14.5 17q9 13 14 15.5t16 2.5h16q9 0 15.5 -5.5t5.5 -14.5q-1 -14 -15.5 -35
t-41 -40t-64.5 -32.5t-85 -13.5q-48 0 -87 16.5t-67 47t-44.5 73t-20.5 93.5q-1 15 -1 40t1 40zM116 291h318v4q0 37 -11 69.5t-31.5 56.5t-50.5 37.5t-67 13.5q-38 0 -67 -13.5t-49.5 -37.5t-31 -56.5t-10.5 -69.5v-4zM269 595q-8 0 -14.5 1.5t-17.5 12.5l-87 85
q-12 12 -12 20q0 11 14 11h17q6 0 13.5 -2t11.5 -5l80 -60l80 60q4 3 11.5 5t13.5 2h17q14 0 14 -11q0 -8 -12 -20l-87 -85q-11 -11 -17.5 -12.5t-14.5 -1.5h-10z" />
    <glyph glyph-name="ecircumflex" unicode="&#xea;" horiz-adv-x="546" 
d="M55 300q4 51 20.5 93.5t44 72.5t66.5 47t88 17q105 0 163 -68.5t58 -189.5v-15q0 -10 -6.5 -16t-16.5 -6h-356v-10q1 -34 12.5 -66t31.5 -56.5t49 -39.5t65 -15q32 0 56 8t41 18.5t27.5 21.5t14.5 17q9 13 14 15.5t16 2.5h16q9 0 15.5 -5.5t5.5 -14.5q-1 -14 -15.5 -35
t-41 -40t-64.5 -32.5t-85 -13.5q-48 0 -87 16.5t-67 47t-44.5 73t-20.5 93.5q-1 15 -1 40t1 40zM116 291h318v4q0 37 -11 69.5t-31.5 56.5t-50.5 37.5t-67 13.5q-38 0 -67 -13.5t-49.5 -37.5t-31 -56.5t-10.5 -69.5v-4zM279 725q8 0 14.5 -1.5t17.5 -12.5l87 -85
q12 -12 12 -20q0 -11 -14 -11h-17q-6 0 -13.5 2t-11.5 5l-80 60l-80 -60q-4 -3 -11.5 -5t-13.5 -2h-17q-14 0 -14 11q0 8 12 20l87 85q11 11 17.5 12.5t14.5 1.5h10z" />
    <glyph glyph-name="edieresis" unicode="&#xeb;" horiz-adv-x="546" 
d="M55 300q4 51 20.5 93.5t44 72.5t66.5 47t88 17q105 0 163 -68.5t58 -189.5v-15q0 -10 -6.5 -16t-16.5 -6h-356v-10q1 -34 12.5 -66t31.5 -56.5t49 -39.5t65 -15q32 0 56 8t41 18.5t27.5 21.5t14.5 17q9 13 14 15.5t16 2.5h16q9 0 15.5 -5.5t5.5 -14.5q-1 -14 -15.5 -35
t-41 -40t-64.5 -32.5t-85 -13.5q-48 0 -87 16.5t-67 47t-44.5 73t-20.5 93.5q-1 15 -1 40t1 40zM116 291h318v4q0 37 -11 69.5t-31.5 56.5t-50.5 37.5t-67 13.5q-38 0 -67 -13.5t-49.5 -37.5t-31 -56.5t-10.5 -69.5v-4zM392 649q0 -10 -6.5 -16t-16.5 -6h-38q-22 0 -22 22
v38q0 10 6 16.5t16 6.5h38q10 0 16.5 -6.5t6.5 -16.5v-38zM239 649q0 -10 -6.5 -16t-16.5 -6h-38q-22 0 -22 22v38q0 10 6 16.5t16 6.5h38q10 0 16.5 -6.5t6.5 -16.5v-38z" />
    <glyph glyph-name="edotaccent" unicode="&#x117;" horiz-adv-x="546" 
d="M55 300q4 51 20.5 93.5t44 72.5t66.5 47t88 17q105 0 163 -68.5t58 -189.5v-15q0 -10 -6.5 -16t-16.5 -6h-356v-10q1 -34 12.5 -66t31.5 -56.5t49 -39.5t65 -15q32 0 56 8t41 18.5t27.5 21.5t14.5 17q9 13 14 15.5t16 2.5h16q9 0 15.5 -5.5t5.5 -14.5q-1 -14 -15.5 -35
t-41 -40t-64.5 -32.5t-85 -13.5q-48 0 -87 16.5t-67 47t-44.5 73t-20.5 93.5q-1 15 -1 40t1 40zM116 291h318v4q0 37 -11 69.5t-31.5 56.5t-50.5 37.5t-67 13.5q-38 0 -67 -13.5t-49.5 -37.5t-31 -56.5t-10.5 -69.5v-4zM321 639q0 -10 -6.5 -16t-16.5 -6h-48q-22 0 -22 22
v48q0 10 6 16.5t16 6.5h48q10 0 16.5 -6.5t6.5 -16.5v-48z" />
    <glyph glyph-name="egrave" unicode="&#xe8;" horiz-adv-x="546" 
d="M55 300q4 51 20.5 93.5t44 72.5t66.5 47t88 17q105 0 163 -68.5t58 -189.5v-15q0 -10 -6.5 -16t-16.5 -6h-356v-10q1 -34 12.5 -66t31.5 -56.5t49 -39.5t65 -15q32 0 56 8t41 18.5t27.5 21.5t14.5 17q9 13 14 15.5t16 2.5h16q9 0 15.5 -5.5t5.5 -14.5q-1 -14 -15.5 -35
t-41 -40t-64.5 -32.5t-85 -13.5q-48 0 -87 16.5t-67 47t-44.5 73t-20.5 93.5q-1 15 -1 40t1 40zM116 291h318v4q0 37 -11 69.5t-31.5 56.5t-50.5 37.5t-67 13.5q-38 0 -67 -13.5t-49.5 -37.5t-31 -56.5t-10.5 -69.5v-4zM302 624q5 -5 5 -13q0 -16 -16 -16h-10
q-10 0 -16.5 1.5t-14.5 8.5l-109 89q-5 5 -5 12q0 19 19 19h41q15 0 22 -4t15 -14z" />
    <glyph glyph-name="emacron" unicode="&#x113;" horiz-adv-x="546" 
d="M55 300q4 51 20.5 93.5t44 72.5t66.5 47t88 17q105 0 163 -68.5t58 -189.5v-15q0 -10 -6.5 -16t-16.5 -6h-356v-10q1 -34 12.5 -66t31.5 -56.5t49 -39.5t65 -15q32 0 56 8t41 18.5t27.5 21.5t14.5 17q9 13 14 15.5t16 2.5h16q9 0 15.5 -5.5t5.5 -14.5q-1 -14 -15.5 -35
t-41 -40t-64.5 -32.5t-85 -13.5q-48 0 -87 16.5t-67 47t-44.5 73t-20.5 93.5q-1 15 -1 40t1 40zM116 291h318v4q0 37 -11 69.5t-31.5 56.5t-50.5 37.5t-67 13.5q-38 0 -67 -13.5t-49.5 -37.5t-31 -56.5t-10.5 -69.5v-4zM175 622q-22 0 -22 22v14q0 22 22 22h199q22 0 22 -22
v-14q0 -22 -22 -22h-199z" />
    <glyph glyph-name="eogonek" unicode="&#x119;" horiz-adv-x="547" 
d="M56 300q4 51 20.5 93.5t44 72.5t66.5 47t88 17q105 0 163 -68.5t58 -189.5v-15q0 -10 -6.5 -16t-16.5 -6h-356v-10q1 -34 12.5 -66t31.5 -56.5t49 -39.5t65 -15q32 0 56 8t41 18.5t27.5 21.5t14.5 17q9 13 14 15.5t16 2.5h16q9 0 15.5 -5.5t5.5 -14.5q-1 -13 -12.5 -30
t-32 -34t-50 -31.5t-66.5 -21.5q-30 -6 -48 -23.5t-18 -52.5q0 -38 21.5 -59.5t54.5 -21.5h15q22 0 22 -22v-13q0 -22 -22 -22h-19q-61 0 -96.5 37t-35.5 101q0 49 19 80q-70 19 -110.5 77.5t-46.5 144.5q-1 15 -1 40t1 40zM117 291h318v4q0 37 -11 69.5t-31.5 56.5
t-50.5 37.5t-67 13.5q-38 0 -67 -13.5t-49.5 -37.5t-31 -56.5t-10.5 -69.5v-4z" />
    <glyph glyph-name="f" unicode="f" horiz-adv-x="360" 
d="M191 520h132q22 0 22 -22v-14q0 -22 -22 -22h-132v-440q0 -22 -22 -22h-17q-22 0 -22 22v440h-89q-22 0 -22 22v14q0 22 22 22h89v57q0 33 6.5 63t23.5 52t46 35t75 13h52q22 0 22 -22v-14q0 -22 -22 -22h-52q-53 0 -71.5 -28.5t-18.5 -81.5v-52z" />
    <glyph glyph-name="g" unicode="g" horiz-adv-x="581" 
d="M56 288q1 44 12.5 87t37 77.5t65.5 56t99 21.5q62 0 102.5 -23t65.5 -56v46q0 10 6 16.5t16 6.5h16q10 0 16.5 -6.5t6.5 -16.5v-487q0 -48 -10 -90t-35.5 -73t-68.5 -49t-110 -18q-64 0 -104 17.5t-63.5 41t-32 48.5t-9.5 40q-1 10 6 16.5t16 6.5h14q8 0 13.5 -3.5
t10.5 -17.5q4 -12 12.5 -27.5t24.5 -30t42 -24t65 -9.5q41 0 72.5 7.5t52.5 26t32 49.5t11 79v69q-25 -34 -65.5 -56.5t-102.5 -22.5q-59 0 -99 21.5t-65.5 56t-37 77.5t-12.5 87q-1 28 0 56zM438 296q-2 31 -11 62t-28.5 56.5t-49.5 41.5t-73 16q-44 0 -74 -15.5t-48.5 -41
t-27 -58.5t-9.5 -69q-1 -28 0 -56q1 -36 9.5 -69.5t27 -59t48.5 -40.5t74 -15q43 0 73 16t49.5 41.5t28.5 56.5t11 62q1 15 1 36t-1 36z" />
    <glyph glyph-name="gbreve" unicode="&#x11f;" horiz-adv-x="581" 
d="M56 288q1 44 12.5 87t37 77.5t65.5 56t99 21.5q62 0 102.5 -23t65.5 -56v46q0 10 6 16.5t16 6.5h16q10 0 16.5 -6.5t6.5 -16.5v-487q0 -48 -10 -90t-35.5 -73t-68.5 -49t-110 -18q-64 0 -104 17.5t-63.5 41t-32 48.5t-9.5 40q-1 10 6 16.5t16 6.5h14q8 0 13.5 -3.5
t10.5 -17.5q4 -12 12.5 -27.5t24.5 -30t42 -24t65 -9.5q41 0 72.5 7.5t52.5 26t32 49.5t11 79v69q-25 -34 -65.5 -56.5t-102.5 -22.5q-59 0 -99 21.5t-65.5 56t-37 77.5t-12.5 87q-1 28 0 56zM438 296q-2 31 -11 62t-28.5 56.5t-49.5 41.5t-73 16q-44 0 -74 -15.5t-48.5 -41
t-27 -58.5t-9.5 -69q-1 -28 0 -56q1 -36 9.5 -69.5t27 -59t48.5 -40.5t74 -15q43 0 73 16t49.5 41.5t28.5 56.5t11 62q1 15 1 36t-1 36zM167 706q0 8 5 13.5t14 5.5h15q9 0 14 -5.5t5 -13.5q0 -12 2.5 -24t9 -21t17.5 -15t28 -6t28 6t17.5 15t9 21t2.5 24q0 8 5 13.5t14 5.5
h15q9 0 14 -5.5t5 -13.5q0 -21 -5 -42t-17 -37.5t-33.5 -26.5t-54.5 -10t-54.5 10t-33.5 26.5t-17 37.5t-5 42z" />
    <glyph glyph-name="gcircumflex" unicode="&#x11d;" horiz-adv-x="581" 
d="M56 288q1 44 12.5 87t37 77.5t65.5 56t99 21.5q62 0 102.5 -23t65.5 -56v46q0 10 6 16.5t16 6.5h16q10 0 16.5 -6.5t6.5 -16.5v-487q0 -48 -10 -90t-35.5 -73t-68.5 -49t-110 -18q-64 0 -104 17.5t-63.5 41t-32 48.5t-9.5 40q-1 10 6 16.5t16 6.5h14q8 0 13.5 -3.5
t10.5 -17.5q4 -12 12.5 -27.5t24.5 -30t42 -24t65 -9.5q41 0 72.5 7.5t52.5 26t32 49.5t11 79v69q-25 -34 -65.5 -56.5t-102.5 -22.5q-59 0 -99 21.5t-65.5 56t-37 77.5t-12.5 87q-1 28 0 56zM438 296q-2 31 -11 62t-28.5 56.5t-49.5 41.5t-73 16q-44 0 -74 -15.5t-48.5 -41
t-27 -58.5t-9.5 -69q-1 -28 0 -56q1 -36 9.5 -69.5t27 -59t48.5 -40.5t74 -15q43 0 73 16t49.5 41.5t28.5 56.5t11 62q1 15 1 36t-1 36zM282 725q8 0 14.5 -1.5t17.5 -12.5l87 -85q12 -12 12 -20q0 -11 -14 -11h-17q-6 0 -13.5 2t-11.5 5l-80 60l-80 -60q-4 -3 -11.5 -5
t-13.5 -2h-17q-14 0 -14 11q0 8 12 20l87 85q11 11 17.5 12.5t14.5 1.5h10z" />
    <glyph glyph-name="gcommaaccent" unicode="&#x123;" horiz-adv-x="581" 
d="M56 288q1 44 12.5 87t37 77.5t65.5 56t99 21.5q62 0 102.5 -23t65.5 -56v46q0 10 6 16.5t16 6.5h16q10 0 16.5 -6.5t6.5 -16.5v-487q0 -48 -10 -90t-35.5 -73t-68.5 -49t-110 -18q-64 0 -104 17.5t-63.5 41t-32 48.5t-9.5 40q-1 10 6 16.5t16 6.5h14q8 0 13.5 -3.5
t10.5 -17.5q4 -12 12.5 -27.5t24.5 -30t42 -24t65 -9.5q41 0 72.5 7.5t52.5 26t32 49.5t11 79v69q-25 -34 -65.5 -56.5t-102.5 -22.5q-59 0 -99 21.5t-65.5 56t-37 77.5t-12.5 87q-1 28 0 56zM438 296q-2 31 -11 62t-28.5 56.5t-49.5 41.5t-73 16q-44 0 -74 -15.5t-48.5 -41
t-27 -58.5t-9.5 -69q-1 -28 0 -56q1 -36 9.5 -69.5t27 -59t48.5 -40.5t74 -15q43 0 73 16t49.5 41.5t28.5 56.5t11 62q1 15 1 36t-1 36zM322.006 621.995q-2 -11.999 -7.5 -19.499q-5.5 -7.49902 -17.499 -7.49902h-44.9971q-7 0 -10.999 5q-4 4.99902 -4 10.999
q0 8.99902 4 17.999l39.9971 104.993q5 10 10 15.499q4.99902 5.5 15.999 5.5h17.999q7.99902 0 11.999 -6q3.99902 -5.99902 2 -14.999z" />
    <glyph glyph-name="gdotaccent" unicode="&#x121;" horiz-adv-x="581" 
d="M56 288q1 44 12.5 87t37 77.5t65.5 56t99 21.5q62 0 102.5 -23t65.5 -56v46q0 10 6 16.5t16 6.5h16q10 0 16.5 -6.5t6.5 -16.5v-487q0 -48 -10 -90t-35.5 -73t-68.5 -49t-110 -18q-64 0 -104 17.5t-63.5 41t-32 48.5t-9.5 40q-1 10 6 16.5t16 6.5h14q8 0 13.5 -3.5
t10.5 -17.5q4 -12 12.5 -27.5t24.5 -30t42 -24t65 -9.5q41 0 72.5 7.5t52.5 26t32 49.5t11 79v69q-25 -34 -65.5 -56.5t-102.5 -22.5q-59 0 -99 21.5t-65.5 56t-37 77.5t-12.5 87q-1 28 0 56zM438 296q-2 31 -11 62t-28.5 56.5t-49.5 41.5t-73 16q-44 0 -74 -15.5t-48.5 -41
t-27 -58.5t-9.5 -69q-1 -28 0 -56q1 -36 9.5 -69.5t27 -59t48.5 -40.5t74 -15q43 0 73 16t49.5 41.5t28.5 56.5t11 62q1 15 1 36t-1 36zM324 639q0 -10 -6.5 -16t-16.5 -6h-48q-22 0 -22 22v48q0 10 6 16.5t16 6.5h48q10 0 16.5 -6.5t6.5 -16.5v-48z" />
    <glyph glyph-name="h" unicode="h" horiz-adv-x="591" 
d="M143 451q27 35 65 57t103 22q51 0 89 -17t63.5 -47t38.5 -71t13 -89v-284q0 -22 -22 -22h-17q-22 0 -22 22v279q0 80 -39 125.5t-114 45.5q-72 0 -115 -45t-43 -126v-279q0 -22 -22 -22h-17q-22 0 -22 22v666q0 22 22 22h17q22 0 22 -22v-237z" />
    <glyph glyph-name="hbar" unicode="&#x127;" horiz-adv-x="590" 
d="M142 629h58q22 0 22 -22v-14q0 -22 -22 -22h-58v-120q27 35 65 57t103 22q51 0 89 -17t63.5 -47t38.5 -71t13 -89v-284q0 -22 -22 -22h-17q-22 0 -22 22v279q0 80 -39 125.5t-114 45.5q-72 0 -115 -45t-43 -126v-279q0 -22 -22 -22h-17q-22 0 -22 22v549h-58
q-22 0 -22 22v14q0 22 22 22h58v59q0 22 22 22h17q22 0 22 -22v-59z" />
    <glyph glyph-name="hcircumflex" unicode="&#x125;" horiz-adv-x="591" 
d="M143 451q27 35 65 57t103 22q51 0 89 -17t63.5 -47t38.5 -71t13 -89v-284q0 -22 -22 -22h-17q-22 0 -22 22v279q0 80 -39 125.5t-114 45.5q-72 0 -115 -45t-43 -126v-279q0 -22 -22 -22h-17q-22 0 -22 22v666q0 22 22 22h17q22 0 22 -22v-237zM303 880q8 0 14.5 -1.5
t17.5 -12.5l87 -85q12 -12 12 -20q0 -11 -14 -11h-17q-6 0 -13.5 2t-11.5 5l-80 60l-80 -60q-4 -3 -11.5 -5t-13.5 -2h-17q-14 0 -14 11q0 8 12 20l87 85q11 11 17.5 12.5t14.5 1.5h10z" />
    <glyph glyph-name="i" unicode="i" horiz-adv-x="223" 
d="M153 649q0 -10 -6.5 -16t-16.5 -6h-38q-22 0 -22 22v38q0 10 6 16.5t16 6.5h38q10 0 16.5 -6.5t6.5 -16.5v-38zM142 22q0 -22 -22 -22h-17q-22 0 -22 22v476q0 22 22 22h17q22 0 22 -22v-476z" />
    <glyph glyph-name="iacute" unicode="&#xed;" horiz-adv-x="223" 
d="M142 22q0 -22 -22 -22h-17q-22 0 -22 22v476q0 22 22 22h17q22 0 22 -22v-476zM153 707q8 10 15 14t22 4h41q19 0 19 -19q0 -7 -5 -12l-109 -89q-8 -7 -14.5 -8.5t-16.5 -1.5h-10q-16 0 -16 16q0 8 5 13z" />
    <glyph glyph-name="ibreve" unicode="&#x12d;" horiz-adv-x="223" 
d="M142 22q0 -22 -22 -22h-17q-22 0 -22 22v476q0 22 22 22h17q22 0 22 -22v-476zM1 706q0 8 5 13.5t14 5.5h15q9 0 14 -5.5t5 -13.5q0 -12 2.5 -24t9 -21t17.5 -15t28 -6t28 6t17.5 15t9 21t2.5 24q0 8 5 13.5t14 5.5h15q9 0 14 -5.5t5 -13.5q0 -21 -5 -42t-17 -37.5
t-33.5 -26.5t-54.5 -10t-54.5 10t-33.5 26.5t-17 37.5t-5 42z" />
    <glyph glyph-name="icircumflex" unicode="&#xee;" horiz-adv-x="223" 
d="M142 22q0 -22 -22 -22h-17q-22 0 -22 22v476q0 22 22 22h17q22 0 22 -22v-476zM116 725q8 0 14.5 -1.5t17.5 -12.5l87 -85q12 -12 12 -20q0 -11 -14 -11h-17q-6 0 -13.5 2t-11.5 5l-80 60l-80 -60q-4 -3 -11.5 -5t-13.5 -2h-17q-14 0 -14 11q0 8 12 20l87 85
q11 11 17.5 12.5t14.5 1.5h10z" />
    <glyph glyph-name="idieresis" unicode="&#xef;" horiz-adv-x="223" 
d="M142 22q0 -22 -22 -22h-17q-22 0 -22 22v476q0 22 22 22h17q22 0 22 -22v-476zM229 649q0 -10 -6.5 -16t-16.5 -6h-38q-22 0 -22 22v38q0 10 6 16.5t16 6.5h38q10 0 16.5 -6.5t6.5 -16.5v-38zM76 649q0 -10 -6.5 -16t-16.5 -6h-38q-22 0 -22 22v38q0 10 6 16.5t16 6.5h38
q10 0 16.5 -6.5t6.5 -16.5v-38z" />
    <glyph glyph-name="igrave" unicode="&#xec;" horiz-adv-x="223" 
d="M142 22q0 -22 -22 -22h-17q-22 0 -22 22v476q0 22 22 22h17q22 0 22 -22v-476zM139 624q5 -5 5 -13q0 -16 -16 -16h-10q-10 0 -16.5 1.5t-14.5 8.5l-109 89q-5 5 -5 12q0 19 19 19h41q15 0 22 -4t15 -14z" />
    <glyph glyph-name="imacron" unicode="&#x12b;" horiz-adv-x="223" 
d="M142 22q0 -22 -22 -22h-17q-22 0 -22 22v476q0 22 22 22h17q22 0 22 -22v-476zM12 622q-22 0 -22 22v14q0 22 22 22h199q22 0 22 -22v-14q0 -22 -22 -22h-199z" />
    <glyph glyph-name="iogonek" unicode="&#x12f;" horiz-adv-x="244" 
d="M163 22q0 -22 -22 -22h-5q-33 0 -54.5 -22t-21.5 -60t21.5 -59.5t54.5 -21.5h15q22 0 22 -22v-13q0 -22 -22 -22h-19q-61 0 -96.5 37t-35.5 101q0 56 27 91.5t75 44.5v444q0 22 22 22h17q22 0 22 -22v-476zM174 649q0 -10 -6.5 -16t-16.5 -6h-38q-22 0 -22 22v38
q0 10 6 16.5t16 6.5h38q10 0 16.5 -6.5t6.5 -16.5v-38z" />
    <glyph glyph-name="itilde" unicode="&#x129;" horiz-adv-x="223" 
d="M142 22q0 -22 -22 -22h-17q-22 0 -22 22v476q0 22 22 22h17q22 0 22 -22v-476zM-8 611q0 29 20 51t51 22q18 0 30 -5.5t22 -11.5l19 -11.5t20 -5.5q9 0 13.5 4.5t8 10.5t7.5 10.5t12 4.5h20q8 0 12 -5t4 -11q0 -29 -21 -51.5t-51 -22.5q-17 0 -29.5 5.5t-22.5 11.5
l-19 11.5t-19 5.5q-9 0 -13.5 -4.5t-8 -10t-7.5 -10t-12 -4.5h-20q-8 0 -12 5t-4 11z" />
    <glyph glyph-name="dotlessi" unicode="&#x131;" horiz-adv-x="223" 
d="M142 22q0 -22 -22 -22h-17q-22 0 -22 22v476q0 22 22 22h17q22 0 22 -22v-476z" />
    <glyph glyph-name="j" unicode="j" horiz-adv-x="233" 
d="M90 498q0 22 22 22h17q22 0 22 -22v-520q0 -35 -6.5 -66t-23.5 -53.5t-46 -35.5t-75 -13h-4q-22 0 -22 22v14q0 22 22 22h4q30 0 48 8.5t27.5 23.5t12 35t2.5 43v520zM162 649q0 -10 -6.5 -16t-16.5 -6h-38q-22 0 -22 22v38q0 10 6 16.5t16 6.5h38q10 0 16.5 -6.5
t6.5 -16.5v-38z" />
    <glyph glyph-name="jcircumflex" unicode="&#x135;" horiz-adv-x="268" 
d="M126 462h-84q-22 0 -22 22v14q0 22 22 22h123q22 0 22 -22v-520q0 -35 -6.5 -66t-23.5 -53.5t-46 -35.5t-75 -13h-4q-22 0 -22 22v14q0 22 22 22h4q30 0 48 8.5t27.5 23.5t12 35t2.5 43v484zM121 725q8 0 14.5 -1.5t17.5 -12.5l87 -85q12 -12 12 -20q0 -11 -14 -11h-17
q-6 0 -13.5 2t-11.5 5l-80 60l-80 -60q-4 -3 -11.5 -5t-13.5 -2h-17q-14 0 -14 11q0 8 12 20l87 85q11 11 17.5 12.5t14.5 1.5h10z" />
    <glyph glyph-name="dotlessj" unicode="&#x237;" horiz-adv-x="269" 
d="M126 462h-84q-22 0 -22 22v14q0 22 22 22h123q22 0 22 -22v-520q0 -35 -6.5 -66t-23.5 -53.5t-46 -35.5t-75 -13h-4q-22 0 -22 22v14q0 22 22 22h4q30 0 48 8.5t27.5 23.5t12 35t2.5 43v484z" />
    <glyph glyph-name="k" unicode="k" horiz-adv-x="487" 
d="M181 288l278 -248q13 -12 13 -20q0 -20 -20 -20h-16q-15 0 -21.5 2.5t-20.5 14.5l-251 223v-218q0 -22 -22 -22h-17q-22 0 -22 22v666q0 22 22 22h17q22 0 22 -22v-354l223 169q14 11 20.5 14t21.5 3h19q20 0 20 -20q0 -4 -2.5 -9.5t-10.5 -10.5z" />
    <glyph glyph-name="kcommaaccent" unicode="&#x137;" horiz-adv-x="487" 
d="M181 288l278 -248q13 -12 13 -20q0 -20 -20 -20h-16q-15 0 -21.5 2.5t-20.5 14.5l-251 223v-218q0 -22 -22 -22h-17q-22 0 -22 22v666q0 22 22 22h17q22 0 22 -22v-354l223 169q14 11 20.5 14t21.5 3h19q20 0 20 -20q0 -4 -2.5 -9.5t-10.5 -10.5zM197 -77q2 12 7.5 19.5
t17.5 7.5h45q7 0 11 -5t4 -11q0 -9 -4 -18l-40 -105q-5 -10 -10 -15.5t-16 -5.5h-18q-8 0 -12 6t-2 15z" />
    <glyph glyph-name="kgreenlandic" unicode="&#x138;" horiz-adv-x="488" 
d="M178 260l280 -220q13 -10 13 -20q0 -20 -20 -20h-18q-15 0 -22 3.5t-20 13.5l-249 195v-190q0 -22 -22 -22h-17q-22 0 -22 22v476q0 22 22 22h17q22 0 22 -22v-190l231 195q14 11 20.5 14t21.5 3h16q20 0 20 -20q0 -4 -2.5 -9.5t-10.5 -10.5z" />
    <glyph glyph-name="l" unicode="l" horiz-adv-x="225" 
d="M143 22q0 -22 -22 -22h-17q-22 0 -22 22v666q0 22 22 22h17q22 0 22 -22v-666z" />
    <glyph glyph-name="lacute" unicode="&#x13a;" horiz-adv-x="225" 
d="M143 22q0 -22 -22 -22h-17q-22 0 -22 22v666q0 22 22 22h17q22 0 22 -22v-666zM162 862q8 10 15 14t22 4h41q19 0 19 -19q0 -7 -5 -12l-109 -89q-8 -7 -14.5 -8.5t-16.5 -1.5h-10q-16 0 -16 16q0 8 5 13z" />
    <glyph glyph-name="lcaron" unicode="&#x13e;" horiz-adv-x="236" 
d="M143 22q0 -22 -22 -22h-17q-22 0 -22 22v666q0 22 22 22h17q22 0 22 -22v-666zM215 683q2 12 7.5 19.5t17.5 7.5h45q7 0 11 -5t4 -11q0 -9 -4 -18l-40 -105q-5 -10 -10 -15.5t-16 -5.5h-18q-8 0 -12 6t-2 15z" />
    <glyph glyph-name="lcommaaccent" unicode="&#x13c;" horiz-adv-x="225" 
d="M143 22q0 -22 -22 -22h-17q-22 0 -22 22v666q0 22 22 22h17q22 0 22 -22v-666zM66 -77q2 12 7.5 19.5t17.5 7.5h45q7 0 11 -5t4 -11q0 -9 -4 -18l-40 -105q-5 -10 -10 -15.5t-16 -5.5h-18q-8 0 -12 6t-2 15z" />
    <glyph glyph-name="ldot" unicode="&#x140;" horiz-adv-x="254" 
d="M143 22q0 -22 -22 -22h-17q-22 0 -22 22v666q0 22 22 22h17q22 0 22 -22v-666zM286 335q0 -10 -6.5 -16t-16.5 -6h-48q-22 0 -22 22v48q0 10 6 16.5t16 6.5h48q10 0 16.5 -6.5t6.5 -16.5v-48z" />
    <glyph glyph-name="lslash" unicode="&#x142;" horiz-adv-x="247" 
d="M225 385q0 -11 -5 -15.5t-17 -9.5l-48 -19v-319q0 -22 -22 -22h-17q-22 0 -22 22v296l-38 -14q-8 -3 -13 -3q-19 0 -19 18v19q0 11 5 15.5t17 9.5l48 18v307q0 22 22 22h17q22 0 22 -22v-284l38 15q7 3 13 3q19 0 19 -18v-19z" />
    <glyph glyph-name="m" unicode="m" horiz-adv-x="878" 
d="M142 463q25 32 59 49.5t84 17.5q57 0 97 -24t63 -70q23 43 67.5 68.5t102.5 25.5q40 0 74 -14t59 -41t39.5 -67.5t14.5 -94.5v-291q0 -22 -22 -22h-17q-22 0 -22 22v281q0 49 -11 81.5t-30 52t-43.5 27.5t-51.5 8q-23 0 -46.5 -8t-43 -27.5t-31.5 -52t-12 -81.5v-281
q0 -22 -22 -22h-17q-22 0 -22 22v281q0 49 -12 81.5t-31 52t-43.5 27.5t-49.5 8q-23 0 -46.5 -8t-43 -27.5t-31.5 -51.5t-12 -81v-282q0 -22 -22 -22h-17q-22 0 -22 22v476q0 22 22 22h17q22 0 22 -22v-35z" />
    <glyph glyph-name="n" unicode="n" horiz-adv-x="590" 
d="M514 22q0 -22 -22 -22h-17q-22 0 -22 22v279q0 80 -39 125.5t-114 45.5q-72 0 -115 -45t-43 -126v-279q0 -22 -22 -22h-17q-22 0 -22 22v476q0 22 22 22h17q22 0 22 -22v-47q27 35 65 57t103 22q51 0 89 -17t63.5 -47t38.5 -71t13 -89v-284z" />
    <glyph glyph-name="nacute" unicode="&#x144;" horiz-adv-x="590" 
d="M514 22q0 -22 -22 -22h-17q-22 0 -22 22v279q0 80 -39 125.5t-114 45.5q-72 0 -115 -45t-43 -126v-279q0 -22 -22 -22h-17q-22 0 -22 22v476q0 22 22 22h17q22 0 22 -22v-47q27 35 65 57t103 22q51 0 89 -17t63.5 -47t38.5 -71t13 -89v-284zM335 707q8 10 15 14t22 4h41
q19 0 19 -19q0 -7 -5 -12l-109 -89q-8 -7 -14.5 -8.5t-16.5 -1.5h-10q-16 0 -16 16q0 8 5 13z" />
    <glyph glyph-name="napostrophe" unicode="&#x149;" horiz-adv-x="590" 
d="M514 22q0 -22 -22 -22h-17q-22 0 -22 22v279q0 80 -39 125.5t-114 45.5q-72 0 -115 -45t-43 -126v-279q0 -22 -22 -22h-17q-22 0 -22 22v476q0 22 22 22h17q22 0 22 -22v-47q27 35 65 57t103 22q51 0 89 -17t63.5 -47t38.5 -71t13 -89v-284zM106 715q2 12 7.5 19.5
t17.5 7.5h45q7 0 11 -5t4 -11q0 -9 -4 -18l-40 -105q-5 -10 -10 -15.5t-16 -5.5h-18q-8 0 -12 6t-2 15z" />
    <glyph glyph-name="ncaron" unicode="&#x148;" horiz-adv-x="590" 
d="M514 22q0 -22 -22 -22h-17q-22 0 -22 22v279q0 80 -39 125.5t-114 45.5q-72 0 -115 -45t-43 -126v-279q0 -22 -22 -22h-17q-22 0 -22 22v476q0 22 22 22h17q22 0 22 -22v-47q27 35 65 57t103 22q51 0 89 -17t63.5 -47t38.5 -71t13 -89v-284zM292 595q-8 0 -14.5 1.5
t-17.5 12.5l-87 85q-12 12 -12 20q0 11 14 11h17q6 0 13.5 -2t11.5 -5l80 -60l80 60q4 3 11.5 5t13.5 2h17q14 0 14 -11q0 -8 -12 -20l-87 -85q-11 -11 -17.5 -12.5t-14.5 -1.5h-10z" />
    <glyph glyph-name="ncommaaccent" unicode="&#x146;" horiz-adv-x="590" 
d="M514 22q0 -22 -22 -22h-17q-22 0 -22 22v279q0 80 -39 125.5t-114 45.5q-72 0 -115 -45t-43 -126v-279q0 -22 -22 -22h-17q-22 0 -22 22v476q0 22 22 22h17q22 0 22 -22v-47q27 35 65 57t103 22q51 0 89 -17t63.5 -47t38.5 -71t13 -89v-284zM255 -77q2 12 7.5 19.5
t17.5 7.5h45q7 0 11 -5t4 -11q0 -9 -4 -18l-40 -105q-5 -10 -10 -15.5t-16 -5.5h-18q-8 0 -12 6t-2 15z" />
    <glyph glyph-name="ntilde" unicode="&#xf1;" horiz-adv-x="590" 
d="M514 22q0 -22 -22 -22h-17q-22 0 -22 22v279q0 80 -39 125.5t-114 45.5q-72 0 -115 -45t-43 -126v-279q0 -22 -22 -22h-17q-22 0 -22 22v476q0 22 22 22h17q22 0 22 -22v-47q27 35 65 57t103 22q51 0 89 -17t63.5 -47t38.5 -71t13 -89v-284zM178 611q0 29 20 51t51 22
q18 0 30 -5.5t22 -11.5l19 -11.5t20 -5.5q9 0 13.5 4.5t8 10.5t7.5 10.5t12 4.5h20q8 0 12 -5t4 -11q0 -29 -21 -51.5t-51 -22.5q-17 0 -29.5 5.5t-22.5 11.5l-19 11.5t-19 5.5q-9 0 -13.5 -4.5t-8 -10t-7.5 -10t-12 -4.5h-20q-8 0 -12 5t-4 11z" />
    <glyph glyph-name="o" unicode="o" horiz-adv-x="558" 
d="M279 530q54 0 95 -17.5t68.5 -48t42 -72.5t16.5 -90q0 -8 0.5 -19t0.5 -23t-0.5 -23.5t-0.5 -18.5q-2 -48 -16.5 -90t-42 -72.5t-68.5 -48t-95 -17.5t-95 17.5t-68.5 48t-42.5 72.5t-16 90q0 7 -0.5 18.5t-0.5 23.5t0.5 23t0.5 19q1 48 16 90t42.5 72.5t68.5 48t95 17.5z
M440 297q-3 86 -47 130.5t-114 44.5t-114 -44.5t-47 -130.5q-1 -15 -1 -37t1 -37q3 -86 47 -130.5t114 -44.5t114 44.5t47 130.5q1 15 1 37t-1 37z" />
    <glyph glyph-name="oacute" unicode="&#xf3;" horiz-adv-x="558" 
d="M279 530q54 0 95 -17.5t68.5 -48t42 -72.5t16.5 -90q0 -8 0.5 -19t0.5 -23t-0.5 -23.5t-0.5 -18.5q-2 -48 -16.5 -90t-42 -72.5t-68.5 -48t-95 -17.5t-95 17.5t-68.5 48t-42.5 72.5t-16 90q0 7 -0.5 18.5t-0.5 23.5t0.5 23t0.5 19q1 48 16 90t42.5 72.5t68.5 48t95 17.5z
M440 297q-3 86 -47 130.5t-114 44.5t-114 -44.5t-47 -130.5q-1 -15 -1 -37t1 -37q3 -86 47 -130.5t114 -44.5t114 44.5t47 130.5q1 15 1 37t-1 37zM320 707q8 10 15 14t22 4h41q19 0 19 -19q0 -7 -5 -12l-109 -89q-8 -7 -14.5 -8.5t-16.5 -1.5h-10q-16 0 -16 16q0 8 5 13z
" />
    <glyph glyph-name="obreve" unicode="&#x14f;" horiz-adv-x="558" 
d="M279 530q54 0 95 -17.5t68.5 -48t42 -72.5t16.5 -90q0 -8 0.5 -19t0.5 -23t-0.5 -23.5t-0.5 -18.5q-2 -48 -16.5 -90t-42 -72.5t-68.5 -48t-95 -17.5t-95 17.5t-68.5 48t-42.5 72.5t-16 90q0 7 -0.5 18.5t-0.5 23.5t0.5 23t0.5 19q1 48 16 90t42.5 72.5t68.5 48t95 17.5z
M440 297q-3 86 -47 130.5t-114 44.5t-114 -44.5t-47 -130.5q-1 -15 -1 -37t1 -37q3 -86 47 -130.5t114 -44.5t114 44.5t47 130.5q1 15 1 37t-1 37zM169 706q0 8 5 13.5t14 5.5h15q9 0 14 -5.5t5 -13.5q0 -12 2.5 -24t9 -21t17.5 -15t28 -6t28 6t17.5 15t9 21t2.5 24
q0 8 5 13.5t14 5.5h15q9 0 14 -5.5t5 -13.5q0 -21 -5 -42t-17 -37.5t-33.5 -26.5t-54.5 -10t-54.5 10t-33.5 26.5t-17 37.5t-5 42z" />
    <glyph glyph-name="ocircumflex" unicode="&#xf4;" horiz-adv-x="558" 
d="M279 530q54 0 95 -17.5t68.5 -48t42 -72.5t16.5 -90q0 -8 0.5 -19t0.5 -23t-0.5 -23.5t-0.5 -18.5q-2 -48 -16.5 -90t-42 -72.5t-68.5 -48t-95 -17.5t-95 17.5t-68.5 48t-42.5 72.5t-16 90q0 7 -0.5 18.5t-0.5 23.5t0.5 23t0.5 19q1 48 16 90t42.5 72.5t68.5 48t95 17.5z
M440 297q-3 86 -47 130.5t-114 44.5t-114 -44.5t-47 -130.5q-1 -15 -1 -37t1 -37q3 -86 47 -130.5t114 -44.5t114 44.5t47 130.5q1 15 1 37t-1 37zM284 725q8 0 14.5 -1.5t17.5 -12.5l87 -85q12 -12 12 -20q0 -11 -14 -11h-17q-6 0 -13.5 2t-11.5 5l-80 60l-80 -60
q-4 -3 -11.5 -5t-13.5 -2h-17q-14 0 -14 11q0 8 12 20l87 85q11 11 17.5 12.5t14.5 1.5h10z" />
    <glyph glyph-name="odieresis" unicode="&#xf6;" horiz-adv-x="558" 
d="M279 530q54 0 95 -17.5t68.5 -48t42 -72.5t16.5 -90q0 -8 0.5 -19t0.5 -23t-0.5 -23.5t-0.5 -18.5q-2 -48 -16.5 -90t-42 -72.5t-68.5 -48t-95 -17.5t-95 17.5t-68.5 48t-42.5 72.5t-16 90q0 7 -0.5 18.5t-0.5 23.5t0.5 23t0.5 19q1 48 16 90t42.5 72.5t68.5 48t95 17.5z
M440 297q-3 86 -47 130.5t-114 44.5t-114 -44.5t-47 -130.5q-1 -15 -1 -37t1 -37q3 -86 47 -130.5t114 -44.5t114 44.5t47 130.5q1 15 1 37t-1 37zM397 649q0 -10 -6.5 -16t-16.5 -6h-38q-22 0 -22 22v38q0 10 6 16.5t16 6.5h38q10 0 16.5 -6.5t6.5 -16.5v-38zM244 649
q0 -10 -6.5 -16t-16.5 -6h-38q-22 0 -22 22v38q0 10 6 16.5t16 6.5h38q10 0 16.5 -6.5t6.5 -16.5v-38z" />
    <glyph glyph-name="ograve" unicode="&#xf2;" horiz-adv-x="558" 
d="M279 530q54 0 95 -17.5t68.5 -48t42 -72.5t16.5 -90q0 -8 0.5 -19t0.5 -23t-0.5 -23.5t-0.5 -18.5q-2 -48 -16.5 -90t-42 -72.5t-68.5 -48t-95 -17.5t-95 17.5t-68.5 48t-42.5 72.5t-16 90q0 7 -0.5 18.5t-0.5 23.5t0.5 23t0.5 19q1 48 16 90t42.5 72.5t68.5 48t95 17.5z
M440 297q-3 86 -47 130.5t-114 44.5t-114 -44.5t-47 -130.5q-1 -15 -1 -37t1 -37q3 -86 47 -130.5t114 -44.5t114 44.5t47 130.5q1 15 1 37t-1 37zM307 624q5 -5 5 -13q0 -16 -16 -16h-10q-10 0 -16.5 1.5t-14.5 8.5l-109 89q-5 5 -5 12q0 19 19 19h41q15 0 22 -4t15 -14z
" />
    <glyph glyph-name="ohungarumlaut" unicode="&#x151;" horiz-adv-x="558" 
d="M279 530q54 0 95 -17.5t68.5 -48t42 -72.5t16.5 -90q0 -8 0.5 -19t0.5 -23t-0.5 -23.5t-0.5 -18.5q-2 -48 -16.5 -90t-42 -72.5t-68.5 -48t-95 -17.5t-95 17.5t-68.5 48t-42.5 72.5t-16 90q0 7 -0.5 18.5t-0.5 23.5t0.5 23t0.5 19q1 48 16 90t42.5 72.5t68.5 48t95 17.5z
M440 297q-3 86 -47 130.5t-114 44.5t-114 -44.5t-47 -130.5q-1 -15 -1 -37t1 -37q3 -86 47 -130.5t114 -44.5t114 44.5t47 130.5q1 15 1 37t-1 37zM215 706q5 10 13 14.5t24 4.5h35q20 0 20 -19q0 -7 -6 -13l-71 -84q-12 -14 -30 -14h-10q-16 0 -16 16q0 4 1.5 8t3.5 7z
M358 706q5 10 13 14.5t24 4.5h35q20 0 20 -19q0 -7 -6 -13l-71 -84q-12 -14 -30 -14h-10q-16 0 -16 16q0 4 1.5 8t3.5 7z" />
    <glyph glyph-name="omacron" unicode="&#x14d;" horiz-adv-x="558" 
d="M279 530q54 0 95 -17.5t68.5 -48t42 -72.5t16.5 -90q0 -8 0.5 -19t0.5 -23t-0.5 -23.5t-0.5 -18.5q-2 -48 -16.5 -90t-42 -72.5t-68.5 -48t-95 -17.5t-95 17.5t-68.5 48t-42.5 72.5t-16 90q0 7 -0.5 18.5t-0.5 23.5t0.5 23t0.5 19q1 48 16 90t42.5 72.5t68.5 48t95 17.5z
M440 297q-3 86 -47 130.5t-114 44.5t-114 -44.5t-47 -130.5q-1 -15 -1 -37t1 -37q3 -86 47 -130.5t114 -44.5t114 44.5t47 130.5q1 15 1 37t-1 37zM180 622q-22 0 -22 22v14q0 22 22 22h199q22 0 22 -22v-14q0 -22 -22 -22h-199z" />
    <glyph glyph-name="oslash" unicode="&#xf8;" horiz-adv-x="594" 
d="M297 530q48 0 84.5 -13t62 -34.5t41.5 -50.5t24 -61l38 15q7 3 13 3q19 0 19 -18v-19q0 -11 -5 -15.5t-17 -9.5l-39 -15q1 -9 1.5 -21t0.5 -25.5t-0.5 -26t-0.5 -21.5q-1 -41 -13 -81.5t-38 -73t-68 -53t-103 -20.5q-48 0 -83.5 12.5t-61.5 33.5t-42 49t-25 59l-38 -15
q-8 -3 -13 -3q-19 0 -19 18v19q0 11 5 15.5t17 9.5l39 15q-2 26 -2.5 50.5t1.5 48.5q1 41 13 81.5t38 73t67.5 53t103.5 20.5zM136 302q-1 -14 -1 -36.5t1 -39.5l316 123q-7 33 -22 56.5t-36 38.5t-45.5 21.5t-51.5 6.5q-31 0 -59.5 -9t-50.5 -29.5t-36 -53t-15 -78.5z
M458 218q1 12 1 33t-1 38l-316 -123q16 -64 59 -91t96 -27q31 0 59.5 9t50.5 29.5t35.5 52.5t15.5 79z" />
    <glyph glyph-name="oslashacute" unicode="&#x1ff;" horiz-adv-x="594" 
d="M338 707q8 10 15 14t22 4h41q19 0 19 -19q0 -7 -5 -12l-109 -89q-8 -7 -14.5 -8.5t-16.5 -1.5h-10q-16 0 -16 16q0 8 5 13zM297 530q48 0 84.5 -13t62 -34.5t41.5 -50.5t24 -61l38 15q7 3 13 3q19 0 19 -18v-19q0 -11 -5 -15.5t-17 -9.5l-39 -15q1 -9 1.5 -21t0.5 -25.5
t-0.5 -26t-0.5 -21.5q-1 -41 -13 -81.5t-38 -73t-68 -53t-103 -20.5q-48 0 -83.5 12.5t-61.5 33.5t-42 49t-25 59l-38 -15q-8 -3 -13 -3q-19 0 -19 18v19q0 11 5 15.5t17 9.5l39 15q-2 26 -2.5 50.5t1.5 48.5q1 41 13 81.5t38 73t67.5 53t103.5 20.5zM136 302
q-1 -14 -1 -36.5t1 -39.5l316 123q-7 33 -22 56.5t-36 38.5t-45.5 21.5t-51.5 6.5q-31 0 -59.5 -9t-50.5 -29.5t-36 -53t-15 -78.5zM458 218q1 12 1 33t-1 38l-316 -123q16 -64 59 -91t96 -27q31 0 59.5 9t50.5 29.5t35.5 52.5t15.5 79z" />
    <glyph glyph-name="otilde" unicode="&#xf5;" horiz-adv-x="558" 
d="M279 530q54 0 95 -17.5t68.5 -48t42 -72.5t16.5 -90q0 -8 0.5 -19t0.5 -23t-0.5 -23.5t-0.5 -18.5q-2 -48 -16.5 -90t-42 -72.5t-68.5 -48t-95 -17.5t-95 17.5t-68.5 48t-42.5 72.5t-16 90q0 7 -0.5 18.5t-0.5 23.5t0.5 23t0.5 19q1 48 16 90t42.5 72.5t68.5 48t95 17.5z
M440 297q-3 86 -47 130.5t-114 44.5t-114 -44.5t-47 -130.5q-1 -15 -1 -37t1 -37q3 -86 47 -130.5t114 -44.5t114 44.5t47 130.5q1 15 1 37t-1 37zM160 611q0 29 20 51t51 22q18 0 30 -5.5t22 -11.5l19 -11.5t20 -5.5q9 0 13.5 4.5t8 10.5t7.5 10.5t12 4.5h20q8 0 12 -5
t4 -11q0 -29 -21 -51.5t-51 -22.5q-17 0 -29.5 5.5t-22.5 11.5l-19 11.5t-19 5.5q-9 0 -13.5 -4.5t-8 -10t-7.5 -10t-12 -4.5h-20q-8 0 -12 5t-4 11z" />
    <glyph glyph-name="oe" unicode="&#x153;" horiz-adv-x="931" 
d="M280 530q72 0 120 -30.5t74 -81.5q27 52 74.5 82t113.5 30q105 0 163 -68.5t58 -189.5v-15q0 -10 -6.5 -16t-16.5 -6h-356v-10q1 -34 12.5 -66t31.5 -56.5t49 -39.5t65 -15q30 0 53 8t39.5 18.5t27 21.5t14.5 17q9 13 14 15.5t16 2.5h16q9 0 15.5 -5.5t5.5 -14.5
q-1 -14 -15.5 -35t-40.5 -40t-63 -32.5t-82 -13.5q-66 0 -113.5 29.5t-74.5 81.5q-26 -51 -74 -81t-120 -30q-54 0 -95 17.5t-68.5 48t-42.5 72.5t-16 90q0 7 -0.5 18.5t-0.5 23.5t0.5 23t0.5 19q1 48 16 90t42.5 72.5t68.5 48t95 17.5zM441 297q-3 86 -47 130.5t-114 44.5
t-114 -44.5t-47 -130.5q-1 -15 -1 -37t1 -37q3 -86 47 -130.5t114 -44.5t114 44.5t47 130.5q1 15 1 37t-1 37zM504 291h318v4q0 37 -11 69.5t-31.5 56.5t-50.5 37.5t-67 13.5q-38 0 -67 -13.5t-49.5 -37.5t-31 -56.5t-10.5 -69.5v-4z" />
    <glyph glyph-name="p" unicode="p" horiz-adv-x="581" 
d="M311 -10q-63 0 -103 23t-65 56v-237q0 -22 -22 -22h-17q-22 0 -22 22v666q0 22 22 22h17q22 0 22 -22v-47q25 34 65 56.5t103 22.5q58 0 98.5 -20.5t65.5 -54t36.5 -76t13.5 -86.5q1 -15 1 -33t-1 -33q-2 -44 -13.5 -86.5t-36.5 -76t-65.5 -54t-98.5 -20.5zM143 296
q-1 -15 -1 -39t1 -39q1 -30 10.5 -60.5t29.5 -54.5t50 -39.5t72 -15.5q44 0 73.5 15t48 40.5t27 59t10.5 69.5q1 28 0 56q-2 36 -10.5 69t-27 58.5t-48 41t-73.5 15.5q-43 0 -73 -16t-49.5 -41.5t-29 -56.5t-10.5 -62z" />
    <glyph glyph-name="q" unicode="q" horiz-adv-x="581" 
d="M270 -10q-59 0 -99 20.5t-65 54t-37 76t-13 86.5q-1 15 -1 33t1 33q1 44 13 86.5t37 76t65 54t99 20.5q63 0 103 -22.5t65 -56.5v47q0 22 22 22h17q22 0 22 -22v-666q0 -22 -22 -22h-17q-22 0 -22 22v237q-25 -33 -65 -56t-103 -23zM438 296q-1 31 -10.5 62t-29 56.5
t-49.5 41.5t-73 16q-44 0 -73.5 -15.5t-48 -41t-27.5 -58.5t-10 -69q-1 -28 0 -56q1 -36 10 -69.5t27.5 -59t48 -40.5t73.5 -15q42 0 72 15.5t50 39.5t29.5 54.5t10.5 60.5q1 15 1 39t-1 39z" />
    <glyph glyph-name="r" unicode="r" horiz-adv-x="348" 
d="M142 451q36 69 136 69h37q22 0 22 -22v-14q0 -22 -22 -22h-43q-60 0 -95 -35t-35 -95v-310q0 -10 -6.5 -16t-16.5 -6h-16q-22 0 -22 22v475q0 10 6 16.5t16 6.5h16q10 0 16.5 -6.5t6.5 -16.5v-46v0z" />
    <glyph glyph-name="racute" unicode="&#x155;" horiz-adv-x="348" 
d="M142 451q36 69 136 69h37q22 0 22 -22v-14q0 -22 -22 -22h-43q-60 0 -95 -35t-35 -95v-310q0 -10 -6.5 -16t-16.5 -6h-16q-22 0 -22 22v475q0 10 6 16.5t16 6.5h16q10 0 16.5 -6.5t6.5 -16.5v-46v0zM235 707q8 10 15 14t22 4h41q19 0 19 -19q0 -7 -5 -12l-109 -89
q-8 -7 -14.5 -8.5t-16.5 -1.5h-10q-16 0 -16 16q0 8 5 13z" />
    <glyph glyph-name="rcaron" unicode="&#x159;" horiz-adv-x="348" 
d="M142 451q36 69 136 69h37q22 0 22 -22v-14q0 -22 -22 -22h-43q-60 0 -95 -35t-35 -95v-310q0 -10 -6.5 -16t-16.5 -6h-16q-22 0 -22 22v475q0 10 6 16.5t16 6.5h16q10 0 16.5 -6.5t6.5 -16.5v-46v0zM181 595q-8 0 -14.5 1.5t-17.5 12.5l-87 85q-12 12 -12 20q0 11 14 11
h17q6 0 13.5 -2t11.5 -5l80 -60l80 60q4 3 11.5 5t13.5 2h17q14 0 14 -11q0 -8 -12 -20l-87 -85q-11 -11 -17.5 -12.5t-14.5 -1.5h-10z" />
    <glyph glyph-name="rcommaaccent" unicode="&#x157;" horiz-adv-x="348" 
d="M142 451q36 69 136 69h37q22 0 22 -22v-14q0 -22 -22 -22h-43q-60 0 -95 -35t-35 -95v-310q0 -10 -6.5 -16t-16.5 -6h-16q-22 0 -22 22v475q0 10 6 16.5t16 6.5h16q10 0 16.5 -6.5t6.5 -16.5v-46v0zM58 -77q2 12 7.5 19.5t17.5 7.5h45q7 0 11 -5t4 -11q0 -9 -4 -18
l-40 -105q-5 -10 -10 -15.5t-16 -5.5h-18q-8 0 -12 6t-2 15z" />
    <glyph glyph-name="s" unicode="s" horiz-adv-x="492" 
d="M384 139q0 21 -8.5 35t-28 25.5t-52 21t-79.5 20.5q-48 11 -78 25.5t-47 33t-23 40t-6 45.5q0 26 11 52t33.5 46.5t56 33.5t78.5 13q49 0 83.5 -13t56.5 -31t32.5 -36.5t11.5 -29.5q1 -10 -6 -16t-16 -6h-15q-14 0 -22 13q-8 12 -17 23t-23 19.5t-34.5 13.5t-50.5 5
q-60 0 -89 -24.5t-29 -62.5q0 -17 6 -30t23 -24.5t46.5 -21.5t77.5 -21t80.5 -25t52 -32t28 -41t8.5 -51q0 -30 -13 -57t-38 -47.5t-62 -32.5t-86 -12q-53 0 -90 14t-61 33t-35.5 38.5t-12.5 29.5q-1 11 7 16.5t15 5.5h15q6 0 10.5 -2t11.5 -11q9 -13 21 -25t28.5 -21
t38.5 -14.5t52 -5.5q60 0 99 23t39 68z" />
    <glyph glyph-name="sacute" unicode="&#x15b;" horiz-adv-x="492" 
d="M384 139q0 21 -8.5 35t-28 25.5t-52 21t-79.5 20.5q-48 11 -78 25.5t-47 33t-23 40t-6 45.5q0 26 11 52t33.5 46.5t56 33.5t78.5 13q49 0 83.5 -13t56.5 -31t32.5 -36.5t11.5 -29.5q1 -10 -6 -16t-16 -6h-15q-14 0 -22 13q-8 12 -17 23t-23 19.5t-34.5 13.5t-50.5 5
q-60 0 -89 -24.5t-29 -62.5q0 -17 6 -30t23 -24.5t46.5 -21.5t77.5 -21t80.5 -25t52 -32t28 -41t8.5 -51q0 -30 -13 -57t-38 -47.5t-62 -32.5t-86 -12q-53 0 -90 14t-61 33t-35.5 38.5t-12.5 29.5q-1 11 7 16.5t15 5.5h15q6 0 10.5 -2t11.5 -11q9 -13 21 -25t28.5 -21
t38.5 -14.5t52 -5.5q60 0 99 23t39 68zM279 707q8 10 15 14t22 4h41q19 0 19 -19q0 -7 -5 -12l-109 -89q-8 -7 -14.5 -8.5t-16.5 -1.5h-10q-16 0 -16 16q0 8 5 13z" />
    <glyph glyph-name="scaron" unicode="&#x161;" horiz-adv-x="492" 
d="M384 139q0 21 -8.5 35t-28 25.5t-52 21t-79.5 20.5q-48 11 -78 25.5t-47 33t-23 40t-6 45.5q0 26 11 52t33.5 46.5t56 33.5t78.5 13q49 0 83.5 -13t56.5 -31t32.5 -36.5t11.5 -29.5q1 -10 -6 -16t-16 -6h-15q-14 0 -22 13q-8 12 -17 23t-23 19.5t-34.5 13.5t-50.5 5
q-60 0 -89 -24.5t-29 -62.5q0 -17 6 -30t23 -24.5t46.5 -21.5t77.5 -21t80.5 -25t52 -32t28 -41t8.5 -51q0 -30 -13 -57t-38 -47.5t-62 -32.5t-86 -12q-53 0 -90 14t-61 33t-35.5 38.5t-12.5 29.5q-1 11 7 16.5t15 5.5h15q6 0 10.5 -2t11.5 -11q9 -13 21 -25t28.5 -21
t38.5 -14.5t52 -5.5q60 0 99 23t39 68zM240 595q-8 0 -14.5 1.5t-17.5 12.5l-87 85q-12 12 -12 20q0 11 14 11h17q6 0 13.5 -2t11.5 -5l80 -60l80 60q4 3 11.5 5t13.5 2h17q14 0 14 -11q0 -8 -12 -20l-87 -85q-11 -11 -17.5 -12.5t-14.5 -1.5h-10z" />
    <glyph glyph-name="scedilla" unicode="&#x15f;" horiz-adv-x="492" 
d="M384 139q0 21 -8.5 35t-28 25.5t-52 21t-79.5 20.5q-48 11 -78 25.5t-47 33t-23 40t-6 45.5q0 26 11 52t33.5 46.5t56 33.5t78.5 13q49 0 83.5 -13t56.5 -31t32.5 -36.5t11.5 -29.5q1 -10 -6 -16t-16 -6h-15q-14 0 -22 13q-8 12 -17 23t-23 19.5t-34.5 13.5t-50.5 5
q-60 0 -89 -24.5t-29 -62.5q0 -17 6 -30t23 -24.5t46.5 -21.5t77.5 -21t80.5 -25t52 -32t28 -41t8.5 -51q0 -30 -13 -57t-38 -47.5t-62 -32.5t-86 -12l-23 -48q13 8 38 8q33 0 54.5 -23t21.5 -59t-23 -62.5t-71 -25.5q-21 0 -39 6t-29.5 14t-15.5 16.5t2 14.5l14 13
q6 6 11.5 4t12.5 -7t17 -10t27 -5t30 10.5t13 29.5q0 18 -13 28t-30 10q-12 0 -21 -3l-15.5 -5t-12 -2t-11.5 6l-16 17q-5 6 -1.5 14t6.5 16l21 48q-38 7 -65.5 21.5t-45.5 31t-26.5 32.5t-8.5 25q-1 11 7 16.5t15 5.5h15q6 0 10.5 -2t11.5 -11q9 -13 21 -25t28.5 -21
t38.5 -14.5t52 -5.5q60 0 99 23t39 68z" />
    <glyph glyph-name="scircumflex" unicode="&#x15d;" horiz-adv-x="492" 
d="M384 139q0 21 -8.5 35t-28 25.5t-52 21t-79.5 20.5q-48 11 -78 25.5t-47 33t-23 40t-6 45.5q0 26 11 52t33.5 46.5t56 33.5t78.5 13q49 0 83.5 -13t56.5 -31t32.5 -36.5t11.5 -29.5q1 -10 -6 -16t-16 -6h-15q-14 0 -22 13q-8 12 -17 23t-23 19.5t-34.5 13.5t-50.5 5
q-60 0 -89 -24.5t-29 -62.5q0 -17 6 -30t23 -24.5t46.5 -21.5t77.5 -21t80.5 -25t52 -32t28 -41t8.5 -51q0 -30 -13 -57t-38 -47.5t-62 -32.5t-86 -12q-53 0 -90 14t-61 33t-35.5 38.5t-12.5 29.5q-1 11 7 16.5t15 5.5h15q6 0 10.5 -2t11.5 -11q9 -13 21 -25t28.5 -21
t38.5 -14.5t52 -5.5q60 0 99 23t39 68zM250 725q8 0 14.5 -1.5t17.5 -12.5l87 -85q12 -12 12 -20q0 -11 -14 -11h-17q-6 0 -13.5 2t-11.5 5l-80 60l-80 -60q-4 -3 -11.5 -5t-13.5 -2h-17q-14 0 -14 11q0 8 12 20l87 85q11 11 17.5 12.5t14.5 1.5h10z" />
    <glyph glyph-name="scommaaccent" unicode="&#x219;" horiz-adv-x="492" 
d="M384 139q0 21 -8.5 35t-28 25.5t-52 21t-79.5 20.5q-48 11 -78 25.5t-47 33t-23 40t-6 45.5q0 26 11 52t33.5 46.5t56 33.5t78.5 13q49 0 83.5 -13t56.5 -31t32.5 -36.5t11.5 -29.5q1 -10 -6 -16t-16 -6h-15q-14 0 -22 13q-8 12 -17 23t-23 19.5t-34.5 13.5t-50.5 5
q-60 0 -89 -24.5t-29 -62.5q0 -17 6 -30t23 -24.5t46.5 -21.5t77.5 -21t80.5 -25t52 -32t28 -41t8.5 -51q0 -30 -13 -57t-38 -47.5t-62 -32.5t-86 -12q-53 0 -90 14t-61 33t-35.5 38.5t-12.5 29.5q-1 11 7 16.5t15 5.5h15q6 0 10.5 -2t11.5 -11q9 -13 21 -25t28.5 -21
t38.5 -14.5t52 -5.5q60 0 99 23t39 68zM200 -77q2 12 7.5 19.5t17.5 7.5h45q7 0 11 -5t4 -11q0 -9 -4 -18l-40 -105q-5 -10 -10 -15.5t-16 -5.5h-18q-8 0 -12 6t-2 15z" />
    <glyph glyph-name="t" unicode="t" horiz-adv-x="359" 
d="M181 171q0 -54 17.5 -83.5t62.5 -29.5h54q22 0 22 -22v-14q0 -22 -22 -22h-59q-39 0 -65.5 13t-42 35.5t-22 53t-6.5 65.5v295h-78q-22 0 -22 22v14q0 22 22 22h78v168q0 22 22 22h17q22 0 22 -22v-168h124q22 0 22 -22v-14q0 -22 -22 -22h-124v-291z" />
    <glyph glyph-name="tbar" unicode="&#x167;" horiz-adv-x="367" 
d="M186 304v-133q0 -54 17.5 -83.5t62.5 -29.5h54q22 0 22 -22v-14q0 -22 -22 -22h-59q-39 0 -65.5 13t-42 35.5t-22 53t-6.5 65.5v137h-78q-22 0 -22 22v14q0 22 22 22h78v100h-78q-22 0 -22 22v14q0 22 22 22h78v168q0 22 22 22h17q22 0 22 -22v-168h124q22 0 22 -22v-14
q0 -22 -22 -22h-124v-100h124q22 0 22 -22v-14q0 -22 -22 -22h-124z" />
    <glyph glyph-name="tcaron" unicode="&#x165;" horiz-adv-x="359" 
d="M181 171q0 -54 17.5 -83.5t62.5 -29.5h54q22 0 22 -22v-14q0 -22 -22 -22h-59q-39 0 -65.5 13t-42 35.5t-22 53t-6.5 65.5v295h-78q-22 0 -22 22v14q0 22 22 22h78v168q0 22 22 22h17q22 0 22 -22v-168h124q22 0 22 -22v-14q0 -22 -22 -22h-124v-291zM370 683
q2 12 7.5 19.5t17.5 7.5h45q7 0 11 -5t4 -11q0 -9 -4 -18l-40 -105q-5 -10 -10 -15.5t-16 -5.5h-18q-8 0 -12 6t-2 15z" />
    <glyph glyph-name="tcommaaccent" unicode="&#x163;" horiz-adv-x="359" 
d="M181 171q0 -54 17.5 -83.5t62.5 -29.5h54q22 0 22 -22v-14q0 -22 -22 -22h-59q-39 0 -65.5 13t-42 35.5t-22 53t-6.5 65.5v295h-78q-22 0 -22 22v14q0 22 22 22h78v168q0 22 22 22h17q22 0 22 -22v-168h124q22 0 22 -22v-14q0 -22 -22 -22h-124v-291zM112 -77
q2 12 7.5 19.5t17.5 7.5h45q7 0 11 -5t4 -11q0 -9 -4 -18l-40 -105q-5 -10 -10 -15.5t-16 -5.5h-18q-8 0 -12 6t-2 15z" />
    <glyph glyph-name="u" unicode="u" horiz-adv-x="585" 
d="M76 498q0 22 22 22h17q22 0 22 -22v-279q0 -171 149 -171q72 0 114.5 45t42.5 126v279q0 22 22 22h17q22 0 22 -22v-476q0 -22 -22 -22h-17q-22 0 -22 22v47q-27 -35 -65 -57t-102 -22q-51 0 -88.5 17t-62.5 47t-37 71t-12 89v284z" />
    <glyph glyph-name="uacute" unicode="&#xfa;" horiz-adv-x="585" 
d="M76 498q0 22 22 22h17q22 0 22 -22v-279q0 -171 149 -171q72 0 114.5 45t42.5 126v279q0 22 22 22h17q22 0 22 -22v-476q0 -22 -22 -22h-17q-22 0 -22 22v47q-27 -35 -65 -57t-102 -22q-51 0 -88.5 17t-62.5 47t-37 71t-12 89v284zM329 707q8 10 15 14t22 4h41
q19 0 19 -19q0 -7 -5 -12l-109 -89q-8 -7 -14.5 -8.5t-16.5 -1.5h-10q-16 0 -16 16q0 8 5 13z" />
    <glyph glyph-name="ubreve" unicode="&#x16d;" horiz-adv-x="585" 
d="M76 498q0 22 22 22h17q22 0 22 -22v-279q0 -171 149 -171q72 0 114.5 45t42.5 126v279q0 22 22 22h17q22 0 22 -22v-476q0 -22 -22 -22h-17q-22 0 -22 22v47q-27 -35 -65 -57t-102 -22q-51 0 -88.5 17t-62.5 47t-37 71t-12 89v284zM180 706q0 8 5 13.5t14 5.5h15
q9 0 14 -5.5t5 -13.5q0 -12 2.5 -24t9 -21t17.5 -15t28 -6t28 6t17.5 15t9 21t2.5 24q0 8 5 13.5t14 5.5h15q9 0 14 -5.5t5 -13.5q0 -21 -5 -42t-17 -37.5t-33.5 -26.5t-54.5 -10t-54.5 10t-33.5 26.5t-17 37.5t-5 42z" />
    <glyph glyph-name="ucircumflex" unicode="&#xfb;" horiz-adv-x="585" 
d="M76 498q0 22 22 22h17q22 0 22 -22v-279q0 -171 149 -171q72 0 114.5 45t42.5 126v279q0 22 22 22h17q22 0 22 -22v-476q0 -22 -22 -22h-17q-22 0 -22 22v47q-27 -35 -65 -57t-102 -22q-51 0 -88.5 17t-62.5 47t-37 71t-12 89v284zM295 725q8 0 14.5 -1.5t17.5 -12.5
l87 -85q12 -12 12 -20q0 -11 -14 -11h-17q-6 0 -13.5 2t-11.5 5l-80 60l-80 -60q-4 -3 -11.5 -5t-13.5 -2h-17q-14 0 -14 11q0 8 12 20l87 85q11 11 17.5 12.5t14.5 1.5h10z" />
    <glyph glyph-name="udieresis" unicode="&#xfc;" horiz-adv-x="585" 
d="M76 498q0 22 22 22h17q22 0 22 -22v-279q0 -171 149 -171q72 0 114.5 45t42.5 126v279q0 22 22 22h17q22 0 22 -22v-476q0 -22 -22 -22h-17q-22 0 -22 22v47q-27 -35 -65 -57t-102 -22q-51 0 -88.5 17t-62.5 47t-37 71t-12 89v284zM408 649q0 -10 -6.5 -16t-16.5 -6h-38
q-22 0 -22 22v38q0 10 6 16.5t16 6.5h38q10 0 16.5 -6.5t6.5 -16.5v-38zM255 649q0 -10 -6.5 -16t-16.5 -6h-38q-22 0 -22 22v38q0 10 6 16.5t16 6.5h38q10 0 16.5 -6.5t6.5 -16.5v-38z" />
    <glyph glyph-name="uhungarumlaut" unicode="&#x171;" horiz-adv-x="585" 
d="M76 498q0 22 22 22h17q22 0 22 -22v-279q0 -171 149 -171q72 0 114.5 45t42.5 126v279q0 22 22 22h17q22 0 22 -22v-476q0 -22 -22 -22h-17q-22 0 -22 22v47q-27 -35 -65 -57t-102 -22q-51 0 -88.5 17t-62.5 47t-37 71t-12 89v284zM217 706q5 10 13 14.5t24 4.5h35
q20 0 20 -19q0 -7 -6 -13l-71 -84q-12 -14 -30 -14h-10q-16 0 -16 16q0 4 1.5 8t3.5 7zM360 706q5 10 13 14.5t24 4.5h35q20 0 20 -19q0 -7 -6 -13l-71 -84q-12 -14 -30 -14h-10q-16 0 -16 16q0 4 1.5 8t3.5 7z" />
    <glyph glyph-name="ugrave" unicode="&#xf9;" horiz-adv-x="585" 
d="M76 498q0 22 22 22h17q22 0 22 -22v-279q0 -171 149 -171q72 0 114.5 45t42.5 126v279q0 22 22 22h17q22 0 22 -22v-476q0 -22 -22 -22h-17q-22 0 -22 22v47q-27 -35 -65 -57t-102 -22q-51 0 -88.5 17t-62.5 47t-37 71t-12 89v284zM319 624q5 -5 5 -13q0 -16 -16 -16h-10
q-10 0 -16.5 1.5t-14.5 8.5l-109 89q-5 5 -5 12q0 19 19 19h41q15 0 22 -4t15 -14z" />
    <glyph glyph-name="umacron" unicode="&#x16b;" horiz-adv-x="585" 
d="M76 498q0 22 22 22h17q22 0 22 -22v-279q0 -171 149 -171q72 0 114.5 45t42.5 126v279q0 22 22 22h17q22 0 22 -22v-476q0 -22 -22 -22h-17q-22 0 -22 22v47q-27 -35 -65 -57t-102 -22q-51 0 -88.5 17t-62.5 47t-37 71t-12 89v284zM191 622q-22 0 -22 22v14q0 22 22 22
h199q22 0 22 -22v-14q0 -22 -22 -22h-199z" />
    <glyph glyph-name="uogonek" unicode="&#x173;" horiz-adv-x="585" 
d="M473 -220q-46 0 -79 33t-33 97q0 24 7.5 44t19.5 36t26.5 27.5t28.5 17.5v34q-27 -35 -65 -57t-102 -22q-51 0 -88.5 17t-62.5 47t-37 71t-12 89v284q0 22 22 22h17q22 0 22 -22v-279q0 -171 149 -171q72 0 114.5 45t42.5 126v279q0 22 22 22h17q22 0 22 -22v-476
q0 -14 -16 -22q-34 -15 -50.5 -35t-16.5 -55q0 -38 15 -55.5t41 -17.5h5q22 0 22 -22v-13q0 -22 -22 -22h-9z" />
    <glyph glyph-name="uring" unicode="&#x16f;" horiz-adv-x="585" 
d="M76 498q0 22 22 22h17q22 0 22 -22v-279q0 -171 149 -171q72 0 114.5 45t42.5 126v279q0 22 22 22h17q22 0 22 -22v-476q0 -22 -22 -22h-17q-22 0 -22 22v47q-27 -35 -65 -57t-102 -22q-51 0 -88.5 17t-62.5 47t-37 71t-12 89v284zM260 665q0 -13 8.5 -21.5t21.5 -8.5
t21.5 8.5t8.5 21.5t-8.5 21.5t-21.5 8.5t-21.5 -8.5t-8.5 -21.5zM210 665q0 33 23.5 54t56.5 21t56.5 -21t23.5 -54t-23.5 -54t-56.5 -21t-56.5 21t-23.5 54z" />
    <glyph glyph-name="utilde" unicode="&#x169;" horiz-adv-x="585" 
d="M76 498q0 22 22 22h17q22 0 22 -22v-279q0 -171 149 -171q72 0 114.5 45t42.5 126v279q0 22 22 22h17q22 0 22 -22v-476q0 -22 -22 -22h-17q-22 0 -22 22v47q-27 -35 -65 -57t-102 -22q-51 0 -88.5 17t-62.5 47t-37 71t-12 89v284zM171 611q0 29 20 51t51 22
q18 0 30 -5.5t22 -11.5l19 -11.5t20 -5.5q9 0 13.5 4.5t8 10.5t7.5 10.5t12 4.5h20q8 0 12 -5t4 -11q0 -29 -21 -51.5t-51 -22.5q-17 0 -29.5 5.5t-22.5 11.5l-19 11.5t-19 5.5q-9 0 -13.5 -4.5t-8 -10t-7.5 -10t-12 -4.5h-20q-8 0 -12 5t-4 11z" />
    <glyph glyph-name="v" unicode="v" 
d="M260 0q-16 0 -24.5 7t-13.5 18l-184 464q-2 6 -2 11q0 8 6 14t14 6h21q10 0 15 -5.5t7 -9.5l169 -432l169 432q2 4 7 9.5t15 5.5h21q8 0 14 -6t6 -14q0 -5 -2 -11l-184 -464q-5 -11 -13.5 -18t-24.5 -7h-16v0z" />
    <glyph glyph-name="w" unicode="w" horiz-adv-x="786" 
d="M561 89l123 416q1 4 6.5 9.5t15.5 5.5h19q8 0 14 -6t6 -14q0 -5 -2 -11l-141 -464q-5 -13 -11.5 -19t-20.5 -6h-17q-27 0 -34 25l-126 394l-126 -394q-7 -25 -34 -25h-17q-14 0 -20.5 6t-11.5 19l-141 464q-2 6 -2 11q0 8 6 14t14 6h19q10 0 15.5 -5.5t6.5 -9.5l123 -416
l131 411q2 6 8 13t19 7h20q13 0 19 -7t8 -13z" />
    <glyph glyph-name="wacute" unicode="&#x1e83;" horiz-adv-x="786" 
d="M561 89l123 416q1 4 6.5 9.5t15.5 5.5h19q8 0 14 -6t6 -14q0 -5 -2 -11l-141 -464q-5 -13 -11.5 -19t-20.5 -6h-17q-27 0 -34 25l-126 394l-126 -394q-7 -25 -34 -25h-17q-14 0 -20.5 6t-11.5 19l-141 464q-2 6 -2 11q0 8 6 14t14 6h19q10 0 15.5 -5.5t6.5 -9.5l123 -416
l131 411q2 6 8 13t19 7h20q13 0 19 -7t8 -13zM435 707q8 10 15 14t22 4h41q19 0 19 -19q0 -7 -5 -12l-109 -89q-8 -7 -14.5 -8.5t-16.5 -1.5h-10q-16 0 -16 16q0 8 5 13z" />
    <glyph glyph-name="wcircumflex" unicode="&#x175;" horiz-adv-x="786" 
d="M561 89l123 416q1 4 6.5 9.5t15.5 5.5h19q8 0 14 -6t6 -14q0 -5 -2 -11l-141 -464q-5 -13 -11.5 -19t-20.5 -6h-17q-27 0 -34 25l-126 394l-126 -394q-7 -25 -34 -25h-17q-14 0 -20.5 6t-11.5 19l-141 464q-2 6 -2 11q0 8 6 14t14 6h19q10 0 15.5 -5.5t6.5 -9.5l123 -416
l131 411q2 6 8 13t19 7h20q13 0 19 -7t8 -13zM398 725q8 0 14.5 -1.5t17.5 -12.5l87 -85q12 -12 12 -20q0 -11 -14 -11h-17q-6 0 -13.5 2t-11.5 5l-80 60l-80 -60q-4 -3 -11.5 -5t-13.5 -2h-17q-14 0 -14 11q0 8 12 20l87 85q11 11 17.5 12.5t14.5 1.5h10z" />
    <glyph glyph-name="wdieresis" unicode="&#x1e85;" horiz-adv-x="786" 
d="M561 89l123 416q1 4 6.5 9.5t15.5 5.5h19q8 0 14 -6t6 -14q0 -5 -2 -11l-141 -464q-5 -13 -11.5 -19t-20.5 -6h-17q-27 0 -34 25l-126 394l-126 -394q-7 -25 -34 -25h-17q-14 0 -20.5 6t-11.5 19l-141 464q-2 6 -2 11q0 8 6 14t14 6h19q10 0 15.5 -5.5t6.5 -9.5l123 -416
l131 411q2 6 8 13t19 7h20q13 0 19 -7t8 -13zM511 649q0 -10 -6.5 -16t-16.5 -6h-38q-22 0 -22 22v38q0 10 6 16.5t16 6.5h38q10 0 16.5 -6.5t6.5 -16.5v-38zM358 649q0 -10 -6.5 -16t-16.5 -6h-38q-22 0 -22 22v38q0 10 6 16.5t16 6.5h38q10 0 16.5 -6.5t6.5 -16.5v-38z
" />
    <glyph glyph-name="wgrave" unicode="&#x1e81;" horiz-adv-x="786" 
d="M561 89l123 416q1 4 6.5 9.5t15.5 5.5h19q8 0 14 -6t6 -14q0 -5 -2 -11l-141 -464q-5 -13 -11.5 -19t-20.5 -6h-17q-27 0 -34 25l-126 394l-126 -394q-7 -25 -34 -25h-17q-14 0 -20.5 6t-11.5 19l-141 464q-2 6 -2 11q0 8 6 14t14 6h19q10 0 15.5 -5.5t6.5 -9.5l123 -416
l131 411q2 6 8 13t19 7h20q13 0 19 -7t8 -13zM419 624q5 -5 5 -13q0 -16 -16 -16h-10q-10 0 -16.5 1.5t-14.5 8.5l-109 89q-5 5 -5 12q0 19 19 19h41q15 0 22 -4t15 -14z" />
    <glyph glyph-name="x" unicode="x" horiz-adv-x="518" 
d="M258 217l-158 -202l-10 -10t-15 -5h-20q-8 0 -14 6t-6 14q0 4 1.5 8.5t6.5 11.5l176 226l-167 214q-5 7 -6.5 11.5t-1.5 8.5q0 8 6 14t14 6h21q10 0 15 -5l10 -10l150 -193l150 192l10 10.5t15 5.5h20q8 0 14 -6t6 -14q0 -4 -1.5 -8.5t-6.5 -11.5l-169 -217l176 -223
q5 -7 6.5 -11.5t1.5 -8.5q0 -8 -6 -14t-14 -6h-21q-10 0 -15.5 5t-9.5 10z" />
    <glyph glyph-name="y" unicode="y" horiz-adv-x="532" 
d="M212 -175q-3 -6 -8 -10.5t-15 -4.5h-20q-8 0 -14 6t-6 14q0 5 6 20l77 180l-191 450q-6 15 -6 20q0 8 6 14t14 6h21q10 0 15 -4.5t8 -10.5l168 -396l172 396q3 6 8 10.5t15 4.5h20q8 0 14 -6t6 -14q0 -5 -6 -20z" />
    <glyph glyph-name="yacute" unicode="&#xfd;" horiz-adv-x="532" 
d="M212 -175q-3 -6 -8 -10.5t-15 -4.5h-20q-8 0 -14 6t-6 14q0 5 6 20l77 180l-191 450q-6 15 -6 20q0 8 6 14t14 6h21q10 0 15 -4.5t8 -10.5l168 -396l172 396q3 6 8 10.5t15 4.5h20q8 0 14 -6t6 -14q0 -5 -6 -20zM307 707q8 10 15 14t22 4h41q19 0 19 -19q0 -7 -5 -12
l-109 -89q-8 -7 -14.5 -8.5t-16.5 -1.5h-10q-16 0 -16 16q0 8 5 13z" />
    <glyph glyph-name="ycircumflex" unicode="&#x177;" horiz-adv-x="532" 
d="M212 -175q-3 -6 -8 -10.5t-15 -4.5h-20q-8 0 -14 6t-6 14q0 5 6 20l77 180l-191 450q-6 15 -6 20q0 8 6 14t14 6h21q10 0 15 -4.5t8 -10.5l168 -396l172 396q3 6 8 10.5t15 4.5h20q8 0 14 -6t6 -14q0 -5 -6 -20zM272 725q8 0 14.5 -1.5t17.5 -12.5l87 -85q12 -12 12 -20
q0 -11 -14 -11h-17q-6 0 -13.5 2t-11.5 5l-80 60l-80 -60q-4 -3 -11.5 -5t-13.5 -2h-17q-14 0 -14 11q0 8 12 20l87 85q11 11 17.5 12.5t14.5 1.5h10z" />
    <glyph glyph-name="ydieresis" unicode="&#xff;" horiz-adv-x="532" 
d="M212 -175q-3 -6 -8 -10.5t-15 -4.5h-20q-8 0 -14 6t-6 14q0 5 6 20l77 180l-191 450q-6 15 -6 20q0 8 6 14t14 6h21q10 0 15 -4.5t8 -10.5l168 -396l172 396q3 6 8 10.5t15 4.5h20q8 0 14 -6t6 -14q0 -5 -6 -20zM385 649q0 -10 -6.5 -16t-16.5 -6h-38q-22 0 -22 22v38
q0 10 6 16.5t16 6.5h38q10 0 16.5 -6.5t6.5 -16.5v-38zM232 649q0 -10 -6.5 -16t-16.5 -6h-38q-22 0 -22 22v38q0 10 6 16.5t16 6.5h38q10 0 16.5 -6.5t6.5 -16.5v-38z" />
    <glyph glyph-name="ygrave" unicode="&#x1ef3;" horiz-adv-x="532" 
d="M212 -175q-3 -6 -8 -10.5t-15 -4.5h-20q-8 0 -14 6t-6 14q0 5 6 20l77 180l-191 450q-6 15 -6 20q0 8 6 14t14 6h21q10 0 15 -4.5t8 -10.5l168 -396l172 396q3 6 8 10.5t15 4.5h20q8 0 14 -6t6 -14q0 -5 -6 -20zM295 624q5 -5 5 -13q0 -16 -16 -16h-10q-10 0 -16.5 1.5
t-14.5 8.5l-109 89q-5 5 -5 12q0 19 19 19h41q15 0 22 -4t15 -14z" />
    <glyph glyph-name="z" unicode="z" horiz-adv-x="490" 
d="M430 58q22 0 22 -22v-14q0 -22 -22 -22h-366q-22 0 -22 22v17q0 8 4.5 15.5l9.5 15.5l294 392h-276q-22 0 -22 22v14q0 22 22 22h336q22 0 22 -22v-17q0 -8 -4.5 -15.5l-9.5 -15.5l-292 -392h304z" />
    <glyph glyph-name="zacute" unicode="&#x17a;" horiz-adv-x="490" 
d="M430 58q22 0 22 -22v-14q0 -22 -22 -22h-366q-22 0 -22 22v17q0 8 4.5 15.5l9.5 15.5l294 392h-276q-22 0 -22 22v14q0 22 22 22h336q22 0 22 -22v-17q0 -8 -4.5 -15.5l-9.5 -15.5l-292 -392h304zM287 707q8 10 15 14t22 4h41q19 0 19 -19q0 -7 -5 -12l-109 -89
q-8 -7 -14.5 -8.5t-16.5 -1.5h-10q-16 0 -16 16q0 8 5 13z" />
    <glyph glyph-name="zcaron" unicode="&#x17e;" horiz-adv-x="490" 
d="M430 58q22 0 22 -22v-14q0 -22 -22 -22h-366q-22 0 -22 22v17q0 8 4.5 15.5l9.5 15.5l294 392h-276q-22 0 -22 22v14q0 22 22 22h336q22 0 22 -22v-17q0 -8 -4.5 -15.5l-9.5 -15.5l-292 -392h304zM242 595q-8 0 -14.5 1.5t-17.5 12.5l-87 85q-12 12 -12 20q0 11 14 11h17
q6 0 13.5 -2t11.5 -5l80 -60l80 60q4 3 11.5 5t13.5 2h17q14 0 14 -11q0 -8 -12 -20l-87 -85q-11 -11 -17.5 -12.5t-14.5 -1.5h-10z" />
    <glyph glyph-name="zdotaccent" unicode="&#x17c;" horiz-adv-x="490" 
d="M430 58q22 0 22 -22v-14q0 -22 -22 -22h-366q-22 0 -22 22v17q0 8 4.5 15.5l9.5 15.5l294 392h-276q-22 0 -22 22v14q0 22 22 22h336q22 0 22 -22v-17q0 -8 -4.5 -15.5l-9.5 -15.5l-292 -392h304zM294 639q0 -10 -6.5 -16t-16.5 -6h-48q-22 0 -22 22v48q0 10 6 16.5
t16 6.5h48q10 0 16.5 -6.5t6.5 -16.5v-48z" />
    <glyph glyph-name="Eth" unicode="&#xd0;" horiz-adv-x="683" 
d="M335 700q79 0 132 -17.5t85 -52t46 -85t15 -115.5q1 -45 1 -79.5t-1 -79.5q-2 -69 -15.5 -120t-45 -84.5t-83.5 -50t-129 -16.5h-218q-22 0 -22 22v300h-63q-22 0 -22 22v16q0 22 22 22h63v295q0 23 22 23h213zM550 425q-1 55 -13 95.5t-38 67t-67.5 39.5t-101.5 13h-167
v-258h150q22 0 22 -22v-16q0 -22 -22 -22h-150v-262h172q60 0 100.5 12t65.5 37.5t36.5 66.5t12.5 100q0 22 0.5 40t0.5 34.5t-0.5 34t-0.5 40.5z" />
    <glyph glyph-name="eth" unicode="&#xf0;" horiz-adv-x="550" 
d="M54 231q0 51 13.5 95t41.5 76t69 50t95 18q79 0 132 -39q-23 70 -65 122l-96 -37q-8 -3 -13 -3q-19 0 -19 18v19q0 11 5 15.5t17 9.5l62 24l-32 29l-35 30q-11 8 -14 13t-3 9q0 20 20 20h20q12 0 20 -3.5t16 -9.5l36 -32.5t33 -32.5l93 36q7 3 13 3q19 0 19 -18v-19
q0 -11 -5 -15.5t-17 -9.5l-62 -24q21 -28 38.5 -61t29.5 -74.5t18.5 -93t7.5 -115.5q0 -51 -13.5 -95.5t-41.5 -76.5t-69 -50.5t-95 -18.5t-95 18.5t-69 50.5t-41.5 76.5t-13.5 95.5zM431 231q0 38 -10 71t-29.5 57.5t-49.5 38.5t-69 14t-69 -14t-49.5 -38.5t-29.5 -57.5
t-10 -71t10 -71.5t29.5 -58t49.5 -39t69 -14.5t69 14.5t49.5 39t29.5 58t10 71.5z" />
    <glyph glyph-name="Thorn" unicode="&#xde;" horiz-adv-x="633" 
d="M157 557h202q105 0 167.5 -52.5t62.5 -154.5t-62.5 -154.5t-167.5 -52.5h-202v-121q0 -22 -23 -22h-18q-22 0 -22 22v656q0 22 22 22h19q22 0 22 -22v-121zM157 203h197q88 0 130 37.5t42 109.5t-42 109.5t-130 37.5h-197v-294z" />
    <glyph glyph-name="Eng" unicode="&#x14a;" horiz-adv-x="684" 
d="M527 8l-370 566v-552q0 -22 -23 -22h-18q-22 0 -22 22v655q0 23 22 23h21q10 0 14.5 -5t6.5 -7l369 -564v553q0 23 22 23h18q23 0 23 -23v-734q0 -35 -6 -66t-22.5 -53.5t-46 -35.5t-76.5 -13h-4q-22 0 -22 22v16q0 22 22 22h4q28 0 45.5 8.5t27 23t12.5 34t3 42.5v65z
" />
    <glyph glyph-name="eng" unicode="&#x14b;" horiz-adv-x="590" 
d="M514 -57q0 -35 -6.5 -66t-23.5 -53.5t-46 -35.5t-75 -13h-4q-22 0 -22 22v14q0 22 22 22h4q30 0 48 8.5t27.5 23.5t12 35t2.5 43v358q0 80 -39 125.5t-114 45.5q-72 0 -115 -45t-43 -126v-279q0 -22 -22 -22h-17q-22 0 -22 22v476q0 22 22 22h17q22 0 22 -22v-47
q27 35 65 57t103 22q51 0 89 -17t63.5 -47t38.5 -71t13 -89v-363z" />
    <glyph glyph-name="germandbls" unicode="&#xdf;" horiz-adv-x="568" 
d="M290 58q41 0 72 11t51.5 30.5t31 46t10.5 56.5t-10.5 56.5t-31 46t-51.5 31t-72 11.5h-65q-22 0 -22 22v14q0 22 22 22h55q75 1 110.5 32t35.5 91q0 54 -39 89t-103 35t-102.5 -38.5t-38.5 -116.5v-475q0 -22 -22 -22h-17q-22 0 -22 22v480q0 41 11 78.5t35.5 66.5t63 46
t92.5 17t92.5 -16.5t63 -42.5t36 -58.5t11.5 -64.5t-8.5 -57t-21.5 -44t-29 -31t-31 -19q36 -11 59 -30t36.5 -42.5t18.5 -50t5 -52.5q0 -33 -12 -69t-37.5 -65.5t-67 -48.5t-99.5 -19h-75q-22 0 -22 22v14q0 22 22 22h65v0z" />
    <glyph glyph-name="longs" unicode="&#x17f;" horiz-adv-x="272" 
d="M191 22q0 -22 -22 -22h-17q-22 0 -22 22v440h-89q-22 0 -22 22v14q0 22 22 22h89v52q0 35 6.5 66t23.5 53.5t46 35.5t75 13h52q22 0 22 -22v-14q0 -22 -22 -22h-52q-30 0 -48 -8.5t-27.5 -23.5t-12 -35t-2.5 -43v-550z" />
    <glyph glyph-name="zero" unicode="0" horiz-adv-x="616" 
d="M68 434q1 55 13 105t40 88t73.5 60.5t113.5 22.5t113.5 -22.5t73 -60.5t40 -88t13.5 -105q2 -86 0 -168q-2 -55 -14 -105t-39.5 -88t-73 -60.5t-113.5 -22.5t-113.5 22.5t-73 60.5t-40 88t-13.5 105q-2 82 0 168zM485 429q-2 101 -45.5 161t-131.5 60q-89 0 -132 -60
t-45 -161q-1 -42 -1 -78.5t1 -79.5q2 -103 45 -162t132 -59t132 59t45 162q1 43 1 79.5t-1 78.5z" />
    <glyph glyph-name="one" unicode="1" horiz-adv-x="398" 
d="M317 22q0 -22 -22 -22h-19q-22 0 -22 22v596l-179 -138q-18 -13 -31 4l-11 14q-6 8 -5 16.5t9 14.5l213 164q7 5 13 6t13 1h19q22 0 22 -22v-656z" />
    <glyph glyph-name="two" unicode="2" horiz-adv-x="560" 
d="M83 483q-21 0 -21 19q1 34 14 71t39.5 67.5t67.5 50t98 19.5t97 -17t65.5 -45t37 -65t11.5 -76q0 -62 -27 -110t-82 -99l-234 -238h335q23 0 23 -23v-15q0 -22 -23 -22h-410q-22 0 -22 22v15q0 10 5.5 19.5t19.5 22.5l259 259q28 26 46 47t28.5 40.5t14.5 39t4 42.5
q0 67 -38 105t-110 38q-69 0 -108 -39.5t-47 -104.5q-2 -12 -9.5 -17.5t-13.5 -5.5h-20v0z" />
    <glyph glyph-name="three" unicode="3" horiz-adv-x="576" 
d="M472 700q23 0 23 -23v-15q0 -6 -2.5 -10.5t-5.5 -8.5l-211 -247h20q51 0 93.5 -12t72.5 -36.5t46.5 -62t16.5 -87.5t-18 -88.5t-50 -65t-76 -40.5t-95 -14q-56 0 -100 14.5t-74.5 38.5t-47 54.5t-17.5 63.5q0 9 6 14t15 5h14q8 0 15.5 -4t11.5 -19q8 -33 26.5 -53.5
t43 -32.5t52.5 -16.5t55 -4.5q39 0 71 9t55.5 27.5t36.5 46.5t13 65q0 74 -44.5 106t-121.5 32h-88q-22 0 -22 22v15q0 8 2.5 13.5t6.5 10.5l206 243h-302q-22 0 -22 22v15q0 23 22 23h373z" />
    <glyph glyph-name="four" unicode="4" horiz-adv-x="595" 
d="M32 218q0 2 1.5 10.5t9.5 19.5l304 435q12 17 37 17h41q22 0 22 -22v-438h91q22 0 22 -22v-16q0 -22 -22 -22h-91v-158q0 -22 -22 -22h-19q-22 0 -22 22v158h-330q-22 0 -22 22v16zM384 240v389l-273 -389h273z" />
    <glyph glyph-name="five" unicode="5" horiz-adv-x="572" 
d="M458 224q0 39 -14 69.5t-38 51.5t-56.5 32t-69.5 11q-38 0 -61.5 -9.5t-40 -20.5t-29 -20.5t-28.5 -9.5h-18q-9 0 -16 6.5t-6 15.5l30 327q2 23 22 23h326q22 0 22 -22v-16q0 -22 -22 -22h-287l-21 -226q10 7 41.5 20.5t87.5 13.5q50 0 94 -14.5t76.5 -43t51.5 -70
t19 -96.5q0 -59 -19 -102.5t-51.5 -73t-76.5 -44t-94 -14.5q-55 0 -97 16t-71 42t-45 59t-17 68q-1 9 5 14t15 5h19q8 0 14.5 -4t10.5 -19q8 -33 24.5 -56t39 -37.5t49 -21t53.5 -6.5q37 0 69.5 11.5t56.5 33.5t38 54.5t14 74.5z" />
    <glyph glyph-name="six" unicode="6" horiz-adv-x="582" 
d="M55 226q0 29 6.5 56t16.5 49.5t20.5 41t19.5 30.5l197 277q5 5 11 12.5t20 7.5h19q9 0 14.5 -6.5t5.5 -15.5q0 -5 -1.5 -8t-3.5 -5l-150 -212q14 4 32.5 6t35.5 2q60 0 105.5 -19.5t76 -52.5t46 -75.5t15.5 -87.5t-15.5 -87.5t-46 -75.5t-76 -53t-105.5 -20t-105.5 20
t-76 53t-46 75.5t-15.5 87.5zM478 226q0 43 -15 75.5t-40 54.5t-57.5 33.5t-67.5 11.5t-67.5 -11.5t-57.5 -33.5t-40 -54.5t-15 -75.5t15 -76t40 -55t57.5 -33.5t67.5 -11.5t67.5 11.5t57.5 33.5t40 55t15 76z" />
    <glyph glyph-name="seven" unicode="7" horiz-adv-x="487" 
d="M437 700q23 0 23 -23v-15q0 -12 -1.5 -19.5t-5.5 -17.5l-253 -600q-4 -8 -9.5 -16.5t-16.5 -8.5h-21q-9 0 -14.5 6.5t-5.5 15.5q0 3 2 9l257 609h-341q-22 0 -22 22v15q0 23 22 23h386z" />
    <glyph glyph-name="eight" unicode="8" horiz-adv-x="618" 
d="M60 197q0 64 31 108.5t82 68.5q-41 23 -64.5 60.5t-23.5 91.5q0 45 17.5 79.5t48 58t71 35t87.5 11.5q46 0 87 -11.5t71.5 -35t48 -58t17.5 -79.5q0 -54 -24 -91.5t-64 -60.5q51 -24 82 -68.5t31 -108.5q0 -50 -19.5 -89t-53.5 -65t-79.5 -39.5t-96.5 -13.5t-96.5 13.5
t-79.5 39.5t-53.5 65t-19.5 89zM123 197q0 -34 14.5 -61.5t40 -46.5t59 -29t72.5 -10t72.5 10t59 29t40 46.5t14.5 61.5t-14.5 61t-40 46t-59 29t-72.5 10t-72.5 -10t-59 -29t-40 -46t-14.5 -61zM148 526q0 -29 12.5 -52t34.5 -39t51.5 -24t62.5 -8q32 1 61.5 9.5t51.5 24
t35 38t13 51.5t-12.5 52t-34.5 39t-51.5 24.5t-62.5 8.5t-62.5 -8.5t-51.5 -24.5t-34.5 -39t-12.5 -52z" />
    <glyph glyph-name="nine" unicode="9" horiz-adv-x="572" 
d="M517 479q0 -30 -6 -55t-15 -46t-19 -38t-19 -29l-206 -291q-5 -5 -11 -12.5t-20 -7.5h-20q-9 0 -14.5 6.5t-5.5 15.5q0 5 1.5 8t3.5 5l158 222q-30 -8 -65 -8q-60 0 -104.5 20.5t-74 53t-44 73.5t-14.5 83t14.5 83t44 74t74 53.5t104.5 20.5t104.5 -20.5t74.5 -53.5
t44.5 -74t14.5 -83zM105 479q0 -39 14 -70.5t38 -53.5t55.5 -34t66.5 -12t67 12t56 34t38 53.5t14 70.5t-14 71t-38 54t-56 34t-67 12t-66.5 -12t-55.5 -34t-38 -54t-14 -71z" />
    <glyph glyph-name="comma" unicode="," horiz-adv-x="237" 
d="M78 66q2 12 7.5 19.5t17.5 7.5h45q7 0 11 -5t4 -11q0 -9 -4 -18l-43 -113q-5 -10 -10 -15.5t-16 -5.5h-17q-8 0 -12 6t-2 15z" />
    <glyph glyph-name="period" unicode="." horiz-adv-x="238" 
d="M166 22q0 -10 -6.5 -16t-16.5 -6h-48q-22 0 -22 22v48q0 10 6 16.5t16 6.5h48q10 0 16.5 -6.5t6.5 -16.5v-48z" />
    <glyph glyph-name="currency" unicode="&#xa4;" horiz-adv-x="578" 
d="M79 300q0 72 42 126l-43 42q-7 7 -7 15.5t7 15.5l12 12q7 7 15.5 7t15.5 -7l42 -43q26 20 58 31t68 11q35 0 67.5 -11t58.5 -31l42 43q7 7 15.5 7t15.5 -7l12 -12q7 -7 7 -15.5t-7 -15.5l-43 -42q20 -26 31 -58.5t11 -67.5q0 -36 -11 -68t-31 -58l43 -42q7 -7 7 -15.5
t-7 -15.5l-12 -12q-7 -7 -15.5 -7t-15.5 7l-42 43q-54 -42 -126 -42t-126 42l-42 -43q-7 -7 -15.5 -7t-15.5 7l-12 12q-7 7 -7 15.5t7 15.5l43 42q-42 54 -42 126zM139 300q0 -31 12 -58.5t32 -47.5t47.5 -32t58.5 -12t58.5 12t47.5 32t32 47.5t12 58.5t-12 58.5t-32 47.5
t-47.5 32t-58.5 12t-58.5 -12t-47.5 -32t-32 -47.5t-12 -58.5z" />
    <glyph glyph-name="cent" unicode="&#xa2;" horiz-adv-x="544" 
d="M122 295q-1 -15 -1 -35t1 -35q1 -47 14 -80.5t33.5 -55t47.5 -31.5t57 -10q53 0 93.5 22.5t61.5 79.5q5 12 9 16.5t15 4.5h14q9 0 16 -6t6 -16q-1 -18 -10.5 -43.5t-31.5 -49.5t-57 -42.5t-86 -22.5v-69q0 -22 -22 -22h-16q-22 0 -22 22v70q-85 9 -133 68.5t-50 159.5
q-1 15 -1 40t1 40q2 99 50 159t133 69v60q0 22 22 22h16q22 0 22 -22v-59q51 -5 86 -23.5t57 -42.5t31.5 -49t10.5 -43q1 -10 -6 -16t-16 -6h-14q-11 0 -15 4.5t-9 16.5q-21 57 -61.5 79.5t-93.5 22.5q-30 0 -57 -10t-47.5 -31.5t-33.5 -55t-14 -80.5z" />
    <glyph glyph-name="dollar" unicode="$" horiz-adv-x="596" 
d="M289 -100q-22 0 -22 22v70q-53 4 -94 20t-69.5 40.5t-43.5 55t-16 62.5q0 8 6 14t15 6h20q10 0 15 -6t7 -14q3 -21 15 -42.5t35.5 -38.5t58.5 -28t84 -11q98 0 143 35.5t45 95.5q0 30 -13 50.5t-40 37t-68 31.5t-97 33q-54 17 -92.5 34.5t-64 40t-37.5 52t-12 70.5
q0 71 52 121t151 58v69q0 22 22 22h19q22 0 22 -22v-70q50 -5 87.5 -22.5t62 -42t37.5 -53t14 -55.5q0 -8 -5 -14t-16 -6h-20q-5 0 -12.5 4t-9.5 16q-6 50 -52.5 82.5t-120.5 32.5q-37 0 -68 -7t-53 -22t-34.5 -37.5t-12.5 -53.5q0 -30 11.5 -51t36.5 -38t63 -32t92 -32
q56 -18 97.5 -35.5t69 -39.5t41 -51t13.5 -70q0 -85 -59 -134t-162 -56v-69q0 -22 -22 -22h-19v0z" />
    <glyph glyph-name="Euro" unicode="&#x20ac;" horiz-adv-x="726" 
d="M398 50q80 0 132.5 30.5t72.5 104.5q3 12 8.5 16.5t13.5 4.5h20q9 0 15.5 -5.5t5.5 -14.5q-2 -32 -17.5 -66.5t-47.5 -63.5t-82 -47.5t-121 -18.5q-67 0 -115 19.5t-80 54t-49 82.5t-20 104h-65q-22 0 -22 22v16q0 22 22 22h63v80h-63q-22 0 -22 22v16q0 22 22 22h65
q3 56 20 104t49 82.5t80 54t115 19.5q71 0 121 -18.5t82 -47.5t47.5 -63.5t17.5 -66.5q1 -9 -5.5 -14.5t-15.5 -5.5h-20q-8 0 -13.5 4.5t-8.5 16.5q-20 74 -72.5 104.5t-132.5 30.5q-89 0 -141 -47.5t-59 -152.5h223q22 0 22 -22v-16q0 -22 -22 -22h-225v-80h225
q22 0 22 -22v-16q0 -22 -22 -22h-223q7 -105 59 -152.5t141 -47.5z" />
    <glyph glyph-name="sterling" unicode="&#xa3;" horiz-adv-x="658" 
d="M217 315l10 -71.5t7 -74.5q37 -7 63.5 -25.5t50 -38t47 -35t54.5 -15.5q24 0 39 7t24.5 20t14.5 30t8 37q1 5 6 12t13 7h25q9 0 14 -5.5t5 -13.5q-2 -75 -43 -114.5t-106 -39.5q-48 0 -80.5 18.5t-59 40.5t-51.5 40.5t-58 18.5q-24 0 -39 -7t-24 -19t-14 -29t-8 -37
q-1 -5 -4 -13t-17 -8h-23q-9 0 -14 5.5t-5 13.5q2 71 36 107.5t82 44.5q-2 34 -7.5 68.5l-11.5 75.5h-77q-22 0 -22 22v16q0 22 22 22h70q-3 37 -3 81q0 50 13 96t40.5 81.5t70 56.5t101.5 21q56 0 98 -18t70.5 -48t43 -69t15.5 -81q0 -9 -6 -15.5t-15 -6.5h-18
q-8 0 -14.5 6t-8.5 15q-13 75 -53 116t-113 41q-40 0 -70 -14.5t-50.5 -40.5t-30.5 -62t-10 -79q0 -22 1 -41.5t3 -38.5h211q22 0 22 -22v-16q0 -22 -22 -22h-202z" />
    <glyph glyph-name="yen" unicode="&#xa5;" horiz-adv-x="586" 
d="M293 361l192 324q9 15 23 15h22q8 0 14 -6t6 -14q0 -5 -4 -13l-215 -364h142q22 0 22 -22v-16q0 -22 -22 -22h-149v-60h149q22 0 22 -22v-16q0 -22 -22 -22h-149v-101q0 -22 -22 -22h-18q-22 0 -22 22v101h-149q-22 0 -22 22v16q0 22 22 22h149v60h-149q-22 0 -22 22v16
q0 22 22 22h142l-215 364q-4 8 -4 13q0 8 6 14t14 6h22q14 0 23 -15z" />
    <glyph glyph-name="florin" unicode="&#x192;" horiz-adv-x="395" 
d="M206 520h132q22 0 22 -22v-14q0 -22 -22 -22h-132v-519q0 -35 -6.5 -66t-23.5 -53.5t-46 -35.5t-75 -13h-8q-22 0 -22 22v14q0 22 22 22h8q30 0 48 8.5t27.5 23.5t12 35t2.5 43v519h-89q-22 0 -22 22v14q0 22 22 22h89v57q0 33 6.5 63t23.5 52t46 35t75 13h52
q22 0 22 -22v-14q0 -22 -22 -22h-52q-53 0 -71.5 -28.5t-18.5 -81.5v-52z" />
    <glyph glyph-name="numbersign" unicode="#" horiz-adv-x="701" 
d="M510 445l-29 -196h120q22 0 22 -22v-14q0 -22 -22 -22h-129l-19 -131q-2 -9 -7.5 -15t-15.5 -6h-18q-9 0 -15.5 6t-4.5 15l4 23l5.5 40t10.5 68h-167l-19 -131q-2 -9 -7.5 -15t-15.5 -6h-18q-9 0 -15.5 6t-4.5 15l4 23l5.5 40t10.5 68h-111q-22 0 -22 22v14q0 22 22 22
h119l29 196h-122q-22 0 -22 22v14q0 22 22 22h131l20 131q2 8 7 14.5t15 6.5h18q9 0 15 -6t5 -15l-20 -131h167l20 131q2 8 7 14.5t15 6.5h18q9 0 15 -6t5 -15l-20 -131h109q22 0 22 -22v-14q0 -22 -22 -22h-117zM420 249l29 196h-166l-29 -196h166z" />
    <glyph glyph-name="zerosuperior" unicode="&#x2070;" horiz-adv-x="362" 
d="M321 569q1 -14 1 -25v-21v-20t-1 -23q-3 -60 -38.5 -97.5t-101.5 -37.5t-101.5 37.5t-38.5 97.5q-1 13 -1.5 23t-0.5 20t0.5 21t1.5 25q3 60 37 98t103 38t103 -38t37 -98zM99 483q1 -14 5.5 -28.5t14 -26.5t24.5 -19.5t38 -7.5q22 0 37.5 7.5t25 19.5t14 26.5t5.5 28.5
t1 23.5v18.5v18.5t-1 22.5q-1 15 -5.5 30t-14 26.5t-25 19t-37.5 7.5t-37.5 -7.5t-25 -19t-14 -26.5t-5.5 -30q-1 -13 -1.5 -22.5t-0.5 -18.5t0.5 -18.5t1.5 -23.5z" />
    <glyph glyph-name="onesuperior" unicode="&#xb9;" horiz-adv-x="231" 
d="M182 372q0 -22 -22 -22h-14q-22 0 -22 22v251l-63 -47q-8 -5 -16.5 -4t-14.5 9l-7 10q-6 8 -5 16.5t9 14.5l96 71q10 7 23 7h14q22 0 22 -22v-306z" />
    <glyph glyph-name="twosuperior" unicode="&#xb2;" horiz-adv-x="335" 
d="M31 389q0 8 5 15t19 18l81.5 57.5t54.5 42t30.5 35t9.5 37.5q0 26 -19.5 41t-45.5 15q-20 0 -32.5 -5t-19.5 -12t-10.5 -14.5l-5.5 -11.5q-6 -11 -11 -14.5t-13 -3.5h-15q-20 0 -18 19q1 18 11.5 35t27 31t39 22.5t47.5 8.5q28 0 51 -9t39 -24.5t24.5 -35.5t8.5 -42
q0 -28 -9 -50t-28 -43t-49.5 -43.5l-72.5 -51.5h152q22 0 22 -22v-12q0 -22 -22 -22h-229q-22 0 -22 22v17z" />
    <glyph glyph-name="threesuperior" unicode="&#xb3;" horiz-adv-x="336" 
d="M286 666q0 -11 -2.5 -19.5t-13.5 -19.5l-76 -70q57 -3 81 -33.5t24 -72.5q0 -50 -35 -78t-101 -28t-99 24t-35 56q-1 10 5.5 14.5t11.5 4.5h20q7 0 12.5 -4.5t9.5 -9.5q4 -6 8.5 -11t12 -9t20.5 -6.5t34 -2.5q33 0 55.5 13t22.5 37q0 29 -20 39.5t-52 10.5h-40
q-22 0 -22 22v17q0 11 12 23l89 81h-142q-22 0 -22 22v12q0 22 22 22h198q22 0 22 -22v-12z" />
    <glyph glyph-name="foursuperior" unicode="&#x2074;" horiz-adv-x="330" 
d="M171 682q8 11 15.5 14.5t14.5 3.5h26q22 0 22 -22v-197h35q22 0 22 -22v-12q0 -22 -22 -22h-35v-53q0 -22 -22 -22h-14q-22 0 -22 22v53h-147q-22 0 -22 22v13q0 2 1.5 10t10.5 20zM97 481h94v135z" />
    <glyph glyph-name="fivesuperior" unicode="&#x2075;" horiz-adv-x="325" 
d="M277 666q0 -22 -22 -22h-138l-8 -76q5 2 18.5 7t40.5 5q60 0 92 -31t32 -85q0 -21 -8.5 -42.5t-25 -38.5t-40.5 -27.5t-55 -10.5q-59 0 -94 24t-37 56q-1 10 5.5 14.5t11.5 4.5h20q13 0 20 -11q5 -7 10 -12.5t13 -10t20 -7t31 -2.5q33 0 52 18.5t19 44.5q0 28 -18 44
t-48 16q-21 0 -32 -3.5t-17.5 -8t-11 -8t-11.5 -3.5h-27q-11 0 -17.5 7.5t-4.5 18.5l15 146q2 11 8 18.5t17 8.5h168q22 0 22 -22v-12z" />
    <glyph glyph-name="sixsuperior" unicode="&#x2076;" horiz-adv-x="336" 
d="M35 468q0 42 15.5 66.5t32.5 44.5l88 106q5 6 13 10.5t16 4.5h18q8 0 14 -6t6 -14q0 -5 -3.5 -10t-8.5 -10l-59 -69q28 1 54 -6.5t45.5 -23t31 -39t11.5 -54.5q0 -30 -11 -52.5t-30 -38.5t-44 -24t-52 -8t-52 8t-44 24t-30 38.5t-11 52.5zM93 468q0 -29 20.5 -48
t58.5 -19t58.5 19t20.5 48t-20.5 48t-58.5 19t-58.5 -19t-20.5 -48z" />
    <glyph glyph-name="sevensuperior" unicode="&#x2077;" horiz-adv-x="284" 
d="M261 666q0 -8 -2.5 -15.5t-5.5 -15.5l-109 -261q-4 -9 -9.5 -16.5t-16.5 -7.5h-16q-10 0 -15 6t-5 15q0 7 4 15l108 258h-151q-22 0 -22 22v12q0 22 22 22h196q22 0 22 -22v-12z" />
    <glyph glyph-name="eightsuperior" unicode="&#x2078;" horiz-adv-x="343" 
d="M305 453q0 -47 -37 -77.5t-97 -30.5t-97 30t-37 78q0 26 12 45t36 35q-16 8 -27 27t-11 44q0 20 8 38t23.5 32t38.5 22.5t54 8.5q61 0 93.5 -30.5t32.5 -70.5q0 -25 -10 -43.5t-26 -27.5q23 -14 33.5 -34t10.5 -46zM247 453q0 27 -24 39t-52 12q-29 0 -52.5 -12.5
t-23.5 -38.5q0 -13 7 -23t18 -16.5t24.5 -9.5t26.5 -3t26.5 3t24.5 9.5t18 16t7 23.5zM239 604q0 23 -20.5 34t-47.5 11t-46.5 -11t-19.5 -34q0 -24 18.5 -35t47.5 -11q28 0 48 11.5t20 34.5z" />
    <glyph glyph-name="ninesuperior" unicode="&#x2079;" horiz-adv-x="334" 
d="M301 582q0 -22 -6 -40t-14.5 -32.5t-17 -25t-14.5 -16.5l-84 -103q-5 -6 -13 -10.5t-16 -4.5h-18q-8 0 -14 6t-6 14q0 5 3.5 10t8.5 10l61 69q-28 -1 -54 7t-46 24.5t-32 39.5t-12 52q0 28 11 50.5t30 38.5t44 25t52 9t52 -9t44 -25t30 -38.5t11 -50.5zM243 582
q0 29 -20.5 48t-58.5 19t-58.5 -19t-20.5 -48t20.5 -48t58.5 -19t58.5 19t20.5 48z" />
    <glyph glyph-name="parenleftsuperior" unicode="&#x207d;" horiz-adv-x="222" 
d="M167 351q27 0 27 -23v-11q0 -22 -24 -22q-65 0 -98 53.5t-33 182.5q0 64 8.5 109t25 72.5t41 40t56.5 12.5q24 0 24 -22v-11q0 -23 -27 -23q-70 0 -70 -178q0 -180 70 -180z" />
    <glyph glyph-name="parenrightsuperior" unicode="&#x207e;" horiz-adv-x="222" 
d="M55 351q70 0 70 180q0 178 -70 178q-27 0 -27 23v11q0 22 24 22q32 0 56.5 -12.5t41 -40t25 -72.5t8.5 -109q0 -65 -8.5 -109.5t-25 -73t-41 -41t-56.5 -12.5q-24 0 -24 22v11q0 23 27 23z" />
    <glyph glyph-name="zeroinferior" unicode="&#x2080;" horiz-adv-x="362" 
d="M321 49q1 -14 1 -25v-21v-20t-1 -23q-3 -60 -38.5 -97.5t-101.5 -37.5t-101.5 37.5t-38.5 97.5q-1 13 -1.5 23t-0.5 20t0.5 21t1.5 25q3 60 37 98t103 38t103 -38t37 -98zM99 -37q1 -14 5.5 -28.5t14 -26.5t24.5 -19.5t38 -7.5q22 0 37.5 7.5t25 19.5t14 26.5t5.5 28.5
t1 23.5v18.5v18.5t-1 22.5q-1 15 -5.5 30t-14 26.5t-25 19t-37.5 7.5t-37.5 -7.5t-25 -19t-14 -26.5t-5.5 -30q-1 -13 -1.5 -22.5t-0.5 -18.5t0.5 -18.5t1.5 -23.5z" />
    <glyph glyph-name="oneinferior" unicode="&#x2081;" horiz-adv-x="231" 
d="M182 -148q0 -22 -22 -22h-14q-22 0 -22 22v251l-63 -47q-8 -5 -16.5 -4t-14.5 9l-7 10q-6 8 -5 16.5t9 14.5l96 71q10 7 23 7h14q22 0 22 -22v-306z" />
    <glyph glyph-name="twoinferior" unicode="&#x2082;" horiz-adv-x="335" 
d="M31 -131q0 8 5 15t19 18l81.5 57.5t54.5 42t30.5 35t9.5 37.5q0 26 -19.5 41t-45.5 15q-20 0 -32.5 -5t-19.5 -12t-10.5 -14.5l-5.5 -11.5q-6 -11 -11 -14.5t-13 -3.5h-15q-20 0 -18 19q1 18 11.5 35t27 31t39 22.5t47.5 8.5q28 0 51 -9t39 -24.5t24.5 -35.5t8.5 -42
q0 -28 -9 -50t-28 -43t-49.5 -43.5l-72.5 -51.5h152q22 0 22 -22v-12q0 -22 -22 -22h-229q-22 0 -22 22v17z" />
    <glyph glyph-name="threeinferior" unicode="&#x2083;" horiz-adv-x="336" 
d="M286 146q0 -11 -2.5 -19.5t-13.5 -19.5l-76 -70q57 -3 81 -33.5t24 -72.5q0 -50 -35 -78t-101 -28t-99 24t-35 56q-1 10 5.5 14.5t11.5 4.5h20q7 0 12.5 -4.5t9.5 -9.5q4 -6 8.5 -11t12 -9t20.5 -6.5t34 -2.5q33 0 55.5 13t22.5 37q0 29 -20 39.5t-52 10.5h-40
q-22 0 -22 22v17q0 11 12 23l89 81h-142q-22 0 -22 22v12q0 22 22 22h198q22 0 22 -22v-12z" />
    <glyph glyph-name="fourinferior" unicode="&#x2084;" horiz-adv-x="330" 
d="M171 162q8 11 15.5 14.5t14.5 3.5h26q22 0 22 -22v-197h35q22 0 22 -22v-12q0 -22 -22 -22h-35v-53q0 -22 -22 -22h-14q-22 0 -22 22v53h-147q-22 0 -22 22v13q0 2 1.5 10t10.5 20zM97 -39h94v135z" />
    <glyph glyph-name="fiveinferior" unicode="&#x2085;" horiz-adv-x="325" 
d="M277 146q0 -22 -22 -22h-138l-8 -76q5 2 18.5 7t40.5 5q60 0 92 -31t32 -85q0 -21 -8.5 -42.5t-25 -38.5t-40.5 -27.5t-55 -10.5q-59 0 -94 24t-37 56q-1 10 5.5 14.5t11.5 4.5h20q13 0 20 -11q5 -7 10 -12.5t13 -10t20 -7t31 -2.5q33 0 52 18.5t19 44.5q0 28 -18 44
t-48 16q-21 0 -32 -3.5t-17.5 -8t-11 -8t-11.5 -3.5h-27q-11 0 -17.5 7.5t-4.5 18.5l15 146q2 11 8 18.5t17 8.5h168q22 0 22 -22v-12z" />
    <glyph glyph-name="sixinferior" unicode="&#x2086;" horiz-adv-x="336" 
d="M35 -52q0 42 15.5 66.5t32.5 44.5l88 106q5 6 13 10.5t16 4.5h18q8 0 14 -6t6 -14q0 -5 -3.5 -10t-8.5 -10l-59 -69q28 1 54 -6.5t45.5 -23t31 -39t11.5 -54.5q0 -30 -11 -52.5t-30 -38.5t-44 -24t-52 -8t-52 8t-44 24t-30 38.5t-11 52.5zM93 -52q0 -29 20.5 -48
t58.5 -19t58.5 19t20.5 48t-20.5 48t-58.5 19t-58.5 -19t-20.5 -48z" />
    <glyph glyph-name="seveninferior" unicode="&#x2087;" horiz-adv-x="284" 
d="M261 146q0 -8 -2.5 -15.5t-5.5 -15.5l-109 -261q-4 -9 -9.5 -16.5t-16.5 -7.5h-16q-10 0 -15 6t-5 15q0 7 4 15l108 258h-151q-22 0 -22 22v12q0 22 22 22h196q22 0 22 -22v-12z" />
    <glyph glyph-name="eightinferior" unicode="&#x2088;" horiz-adv-x="343" 
d="M305 -67q0 -47 -37 -77.5t-97 -30.5t-97 30t-37 78q0 26 12 45t36 35q-16 8 -27 27t-11 44q0 20 8 38t23.5 32t38.5 22.5t54 8.5q61 0 93.5 -30.5t32.5 -70.5q0 -25 -10 -43.5t-26 -27.5q23 -14 33.5 -34t10.5 -46zM247 -67q0 27 -24 39t-52 12q-29 0 -52.5 -12.5
t-23.5 -38.5q0 -13 7 -23t18 -16.5t24.5 -9.5t26.5 -3t26.5 3t24.5 9.5t18 16t7 23.5zM239 84q0 23 -20.5 34t-47.5 11t-46.5 -11t-19.5 -34q0 -24 18.5 -35t47.5 -11q28 0 48 11.5t20 34.5z" />
    <glyph glyph-name="nineinferior" unicode="&#x2089;" horiz-adv-x="334" 
d="M301 62q0 -22 -6 -40t-14.5 -32.5t-17 -25t-14.5 -16.5l-84 -103q-5 -6 -13 -10.5t-16 -4.5h-18q-8 0 -14 6t-6 14q0 5 3.5 10t8.5 10l61 69q-28 -1 -54 7t-46 24.5t-32 39.5t-12 52q0 28 11 50.5t30 38.5t44 25t52 9t52 -9t44 -25t30 -38.5t11 -50.5zM243 62
q0 29 -20.5 48t-58.5 19t-58.5 -19t-20.5 -48t20.5 -48t58.5 -19t58.5 19t20.5 48z" />
    <glyph glyph-name="parenleftinferior" unicode="&#x208d;" horiz-adv-x="222" 
d="M167 -169q27 0 27 -23v-11q0 -22 -24 -22q-65 0 -98 53.5t-33 182.5q0 64 8.5 109t25 72.5t41 40t56.5 12.5q24 0 24 -22v-11q0 -23 -27 -23q-70 0 -70 -178q0 -180 70 -180z" />
    <glyph glyph-name="parenrightinferior" unicode="&#x208e;" horiz-adv-x="222" 
d="M55 -169q70 0 70 180q0 178 -70 178q-27 0 -27 23v11q0 22 24 22q32 0 56.5 -12.5t41 -40t25 -72.5t8.5 -109q0 -65 -8.5 -109.5t-25 -73t-41 -41t-56.5 -12.5q-24 0 -24 22v11q0 23 27 23z" />
    <glyph glyph-name="onehalf" unicode="&#xbd;" horiz-adv-x="720" 
d="M209 372q0 -22 -22 -22h-14q-22 0 -22 22v251l-63 -47q-8 -5 -16.5 -4t-14.5 9l-7 10q-6 8 -5 16.5t9 14.5l96 71q10 7 23 7h14q22 0 22 -22v-306zM400 39q0 8 5 15t19 18l81.5 57.5t54.5 42t30.5 35t9.5 37.5q0 26 -19.5 41t-45.5 15q-20 0 -32.5 -5t-19.5 -12
t-10.5 -14.5l-5.5 -11.5q-6 -11 -11 -14.5t-13 -3.5h-15q-20 0 -18 19q1 18 11.5 35t27 31t39 22.5t47.5 8.5q28 0 51 -9t39 -24.5t24.5 -35.5t8.5 -42q0 -28 -9 -50t-28 -43t-49.5 -43.5l-72.5 -51.5h152q22 0 22 -22v-12q0 -22 -22 -22h-229q-22 0 -22 22v17zM125 19
q-7 -9 -13 -14t-20 -5h-17q-20 0 -20 20q0 2 1 5t3 6l493 650q7 9 13 14t20 5h17q20 0 20 -20q0 -2 -1 -5t-3 -6z" />
    <glyph glyph-name="onethird" unicode="&#x2153;" horiz-adv-x="738" 
d="M210 372q0 -22 -22 -22h-14q-22 0 -22 22v251l-63 -47q-8 -5 -16.5 -4t-14.5 9l-7 10q-6 8 -5 16.5t9 14.5l96 71q10 7 23 7h14q22 0 22 -22v-306zM673 316q0 -11 -2.5 -19.5t-13.5 -19.5l-76 -70q57 -3 81 -33.5t24 -72.5q0 -50 -35 -78t-101 -28t-99 24t-35 56
q-1 10 5.5 14.5t11.5 4.5h20q7 0 12.5 -4.5t9.5 -9.5q4 -6 8.5 -11t12 -9t20.5 -6.5t34 -2.5q33 0 55.5 13t22.5 37q0 29 -20 39.5t-52 10.5h-40q-22 0 -22 22v17q0 11 12 23l89 81h-142q-22 0 -22 22v12q0 22 22 22h198q22 0 22 -22v-12zM126 19q-7 -9 -13 -14t-20 -5h-17
q-20 0 -20 20q0 2 1 5t3 6l493 650q7 9 13 14t20 5h17q20 0 20 -20q0 -2 -1 -5t-3 -6z" />
    <glyph glyph-name="onequarter" unicode="&#xbc;" horiz-adv-x="681" 
d="M209 372q0 -22 -22 -22h-14q-22 0 -22 22v251l-63 -47q-8 -5 -16.5 -4t-14.5 9l-7 10q-6 8 -5 16.5t9 14.5l96 71q10 7 23 7h14q22 0 22 -22v-306zM493 332q8 11 15.5 14.5t14.5 3.5h26q22 0 22 -22v-197h35q22 0 22 -22v-12q0 -22 -22 -22h-35v-53q0 -22 -22 -22h-14
q-22 0 -22 22v53h-147q-22 0 -22 22v13q0 2 1.5 10t10.5 20zM419 131h94v135zM125 19q-7 -9 -13 -14t-20 -5h-17q-20 0 -20 20q0 2 1 5t3 6l493 650q7 9 13 14t20 5h17q20 0 20 -20q0 -2 -1 -5t-3 -6z" />
    <glyph glyph-name="oneeighth" unicode="&#x215b;" horiz-adv-x="736" 
d="M210 373q0 -22 -22 -22h-14q-22 0 -22 22v251l-63 -47q-8 -5 -16.5 -4t-14.5 9l-7 10q-6 8 -5 16.5t9 14.5l96 71q10 7 23 7h14q22 0 22 -22v-306zM686 103q0 -47 -37 -77.5t-97 -30.5t-97 30t-37 78q0 26 12 45t36 35q-16 8 -27 27t-11 44q0 20 8 38t23.5 32t38.5 22.5
t54 8.5q61 0 93.5 -30.5t32.5 -70.5q0 -25 -10 -43.5t-26 -27.5q23 -14 33.5 -34t10.5 -46zM628 103q0 27 -24 39t-52 12q-29 0 -52.5 -12.5t-23.5 -38.5q0 -13 7 -23t18 -16.5t24.5 -9.5t26.5 -3t26.5 3t24.5 9.5t18 16t7 23.5zM620 254q0 23 -20.5 34t-47.5 11t-46.5 -11
t-19.5 -34q0 -24 18.5 -35t47.5 -11q28 0 48 11.5t20 34.5zM126 19q-7 -9 -13 -14t-20 -5h-17q-20 0 -20 20q0 2 1 5t3 6l493 650q7 9 13 14t20 5h17q20 0 20 -20q0 -2 -1 -5t-3 -6z" />
    <glyph glyph-name="twothirds" unicode="&#x2154;" horiz-adv-x="807" 
d="M51 389q0 8 5 15t19 18l81.5 57.5t54.5 42t30.5 35t9.5 37.5q0 26 -19.5 41t-45.5 15q-20 0 -32.5 -5t-19.5 -12t-10.5 -14.5l-5.5 -11.5q-6 -11 -11 -14.5t-13 -3.5h-15q-20 0 -18 19q1 18 11.5 35t27 31t39 22.5t47.5 8.5q28 0 51 -9t39 -24.5t24.5 -35.5t8.5 -42
q0 -28 -9 -50t-28 -43t-49.5 -43.5l-72.5 -51.5h152q22 0 22 -22v-12q0 -22 -22 -22h-229q-22 0 -22 22v17zM743 316q0 -11 -2.5 -19.5t-13.5 -19.5l-76 -70q57 -3 81 -33.5t24 -72.5q0 -50 -35 -78t-101 -28t-99 24t-35 56q-1 10 5.5 14.5t11.5 4.5h20q7 0 12.5 -4.5
t9.5 -9.5q4 -6 8.5 -11t12 -9t20.5 -6.5t34 -2.5q33 0 55.5 13t22.5 37q0 29 -20 39.5t-52 10.5h-40q-22 0 -22 22v17q0 11 12 23l89 81h-142q-22 0 -22 22v12q0 22 22 22h198q22 0 22 -22v-12zM196 19q-7 -9 -13 -14t-20 -5h-17q-20 0 -20 20q0 2 1 5t3 6l493 650
q7 9 13 14t20 5h17q20 0 20 -20q0 -2 -1 -5t-3 -6z" />
    <glyph glyph-name="threequarters" unicode="&#xbe;" horiz-adv-x="742" 
d="M304 666q0 -11 -2.5 -19.5t-13.5 -19.5l-76 -70q57 -3 81 -33.5t24 -72.5q0 -50 -35 -78t-101 -28t-99 24t-35 56q-1 10 5.5 14.5t11.5 4.5h20q7 0 12.5 -4.5t9.5 -9.5q4 -6 8.5 -11t12 -9t20.5 -6.5t34 -2.5q33 0 55.5 13t22.5 37q0 29 -20 39.5t-52 10.5h-40
q-22 0 -22 22v17q0 11 12 23l89 81h-142q-22 0 -22 22v12q0 22 22 22h198q22 0 22 -22v-12zM555 332q8 11 15.5 14.5t14.5 3.5h26q22 0 22 -22v-197h35q22 0 22 -22v-12q0 -22 -22 -22h-35v-53q0 -22 -22 -22h-14q-22 0 -22 22v53h-147q-22 0 -22 22v13q0 2 1.5 10t10.5 20z
M481 131h94v135zM187 19q-7 -9 -13 -14t-20 -5h-17q-20 0 -20 20q0 2 1 5t3 6l493 650q7 9 13 14t20 5h17q20 0 20 -20q0 -2 -1 -5t-3 -6z" />
    <glyph glyph-name="threeeighths" unicode="&#x215c;" horiz-adv-x="796" 
d="M304 666q0 -11 -2.5 -19.5t-13.5 -19.5l-76 -70q57 -3 81 -33.5t24 -72.5q0 -50 -35 -78t-101 -28t-99 24t-35 56q-1 10 5.5 14.5t11.5 4.5h20q7 0 12.5 -4.5t9.5 -9.5q4 -6 8.5 -11t12 -9t20.5 -6.5t34 -2.5q33 0 55.5 13t22.5 37q0 29 -20 39.5t-52 10.5h-40
q-22 0 -22 22v17q0 11 12 23l89 81h-142q-22 0 -22 22v12q0 22 22 22h198q22 0 22 -22v-12zM747 103q0 -47 -37 -77.5t-97 -30.5t-97 30t-37 78q0 26 12 45t36 35q-16 8 -27 27t-11 44q0 20 8 38t23.5 32t38.5 22.5t54 8.5q61 0 93.5 -30.5t32.5 -70.5q0 -25 -10 -43.5
t-26 -27.5q23 -14 33.5 -34t10.5 -46zM689 103q0 27 -24 39t-52 12q-29 0 -52.5 -12.5t-23.5 -38.5q0 -13 7 -23t18 -16.5t24.5 -9.5t26.5 -3t26.5 3t24.5 9.5t18 16t7 23.5zM681 254q0 23 -20.5 34t-47.5 11t-46.5 -11t-19.5 -34q0 -24 18.5 -35t47.5 -11q28 0 48 11.5
t20 34.5zM187 19q-7 -9 -13 -14t-20 -5h-17q-20 0 -20 20q0 2 1 5t3 6l493 650q7 9 13 14t20 5h17q20 0 20 -20q0 -2 -1 -5t-3 -6z" />
    <glyph glyph-name="fiveeighths" unicode="&#x215d;" horiz-adv-x="775" 
d="M726 103q0 -47 -37 -77.5t-97 -30.5t-97 30t-37 78q0 26 12 45t36 35q-16 8 -27 27t-11 44q0 20 8 38t23.5 32t38.5 22.5t54 8.5q61 0 93.5 -30.5t32.5 -70.5q0 -25 -10 -43.5t-26 -27.5q23 -14 33.5 -34t10.5 -46zM668 103q0 27 -24 39t-52 12q-29 0 -52.5 -12.5
t-23.5 -38.5q0 -13 7 -23t18 -16.5t24.5 -9.5t26.5 -3t26.5 3t24.5 9.5t18 16t7 23.5zM660 254q0 23 -20.5 34t-47.5 11t-46.5 -11t-19.5 -34q0 -24 18.5 -35t47.5 -11q28 0 48 11.5t20 34.5zM294 666q0 -22 -22 -22h-138l-8 -76q5 2 18.5 7t40.5 5q60 0 92 -31t32 -85
q0 -21 -8.5 -42.5t-25 -38.5t-40.5 -27.5t-55 -10.5q-59 0 -94 24t-37 56q-1 10 5.5 14.5t11.5 4.5h20q13 0 20 -11q5 -7 10 -12.5t13 -10t20 -7t31 -2.5q33 0 52 18.5t19 44.5q0 28 -18 44t-48 16q-21 0 -32 -3.5t-17.5 -8t-11 -8t-11.5 -3.5h-27q-11 0 -17.5 7.5
t-4.5 18.5l15 146q2 11 8 18.5t17 8.5h168q22 0 22 -22v-12zM166 19q-7 -9 -13 -14t-20 -5h-17q-20 0 -20 20q0 2 1 5t3 6l493 650q7 9 13 14t20 5h17q20 0 20 -20q0 -2 -1 -5t-3 -6z" />
    <glyph glyph-name="seveneighths" unicode="&#x215e;" horiz-adv-x="734" 
d="M685 103q0 -47 -37 -77.5t-97 -30.5t-97 30t-37 78q0 26 12 45t36 35q-16 8 -27 27t-11 44q0 20 8 38t23.5 32t38.5 22.5t54 8.5q61 0 93.5 -30.5t32.5 -70.5q0 -25 -10 -43.5t-26 -27.5q23 -14 33.5 -34t10.5 -46zM627 103q0 27 -24 39t-52 12q-29 0 -52.5 -12.5
t-23.5 -38.5q0 -13 7 -23t18 -16.5t24.5 -9.5t26.5 -3t26.5 3t24.5 9.5t18 16t7 23.5zM619 254q0 23 -20.5 34t-47.5 11t-46.5 -11t-19.5 -34q0 -24 18.5 -35t47.5 -11q28 0 48 11.5t20 34.5zM290 666q0 -8 -2.5 -15.5t-5.5 -15.5l-109 -261q-4 -9 -9.5 -16.5t-16.5 -7.5
h-16q-10 0 -15 6t-5 15q0 7 4 15l108 258h-151q-22 0 -22 22v12q0 22 22 22h196q22 0 22 -22v-12zM125 19q-7 -9 -13 -14t-20 -5h-17q-20 0 -20 20q0 2 1 5t3 6l493 650q7 9 13 14t20 5h17q20 0 20 -20q0 -2 -1 -5t-3 -6z" />
    <glyph glyph-name="exclam" unicode="!" horiz-adv-x="225" 
d="M121 700q22 0 22 -22v-513q0 -22 -22 -22h-17q-22 0 -22 22v513q0 22 22 22h17zM154 22q0 -10 -6.5 -16t-16.5 -6h-38q-22 0 -22 22v38q0 10 6 16.5t16 6.5h38q10 0 16.5 -6.5t6.5 -16.5v-38z" />
    <glyph glyph-name="quotedbl" unicode="&#x22;" horiz-adv-x="340" 
d="M130 527q-2 -19 -17 -19h-19q-15 0 -17 19l-15 163q-1 9 4.5 14.5t14.5 5.5h45q9 0 14.5 -5.5t4.5 -14.5zM263 527q-2 -19 -17 -19h-19q-15 0 -17 19l-15 163q-1 9 4.5 14.5t14.5 5.5h45q9 0 14.5 -5.5t4.5 -14.5z" />
    <glyph glyph-name="quotesingle" unicode="'" horiz-adv-x="207" 
d="M130 527q-2 -19 -17 -19h-19q-15 0 -17 19l-15 163q-1 9 4.5 14.5t14.5 5.5h45q9 0 14.5 -5.5t4.5 -14.5z" />
    <glyph glyph-name="quotesinglbase" unicode="&#x201a;" horiz-adv-x="237" 
d="M78 66q2 12 7.5 19.5t17.5 7.5h45q7 0 11 -5t4 -11q0 -9 -4 -18l-43 -113q-5 -10 -10 -15.5t-16 -5.5h-17q-8 0 -12 6t-2 15z" />
    <glyph glyph-name="quotedblbase" unicode="&#x201e;" horiz-adv-x="371" 
d="M78 66q2 12 7.5 19.5t17.5 7.5h45q7 0 11 -5t4 -11q0 -9 -4 -18l-43 -113q-5 -10 -10 -15.5t-16 -5.5h-17q-8 0 -12 6t-2 15zM212 66q2 12 7.5 19.5t17.5 7.5h45q7 0 11 -5t4 -11q0 -9 -4 -18l-43 -113q-5 -10 -10 -15.5t-16 -5.5h-17q-8 0 -12 6t-2 15z" />
    <glyph glyph-name="quoteleft" unicode="&#x2018;" horiz-adv-x="220" 
d="M144 569q-2 -12 -7.5 -19.5t-17.5 -7.5h-45q-7 0 -11 5t-4 11q0 9 4 18l43 113q5 10 10 15.5t16 5.5h17q8 0 12 -6t2 -15z" />
    <glyph glyph-name="quoteright" unicode="&#x2019;" horiz-adv-x="213" 
d="M83 683q2 12 7.5 19.5t17.5 7.5h45q7 0 11 -5t4 -11q0 -9 -4 -18l-43 -113q-5 -10 -10 -15.5t-16 -5.5h-17q-8 0 -12 6t-2 15z" />
    <glyph glyph-name="quotedblleft" unicode="&#x201c;" horiz-adv-x="354" 
d="M278 569q-2 -12 -7.5 -19.5t-17.5 -7.5h-45q-7 0 -11 5t-4 11q0 9 4 18l43 113q5 10 10 15.5t16 5.5h17q8 0 12 -6t2 -15zM144 569q-2 -12 -7.5 -19.5t-17.5 -7.5h-45q-7 0 -11 5t-4 11q0 9 4 18l43 113q5 10 10 15.5t16 5.5h17q8 0 12 -6t2 -15z" />
    <glyph glyph-name="quotedblright" unicode="&#x201d;" horiz-adv-x="347" 
d="M83 683q2 12 7.5 19.5t17.5 7.5h45q7 0 11 -5t4 -11q0 -9 -4 -18l-43 -113q-5 -10 -10 -15.5t-16 -5.5h-17q-8 0 -12 6t-2 15zM217 683q2 12 7.5 19.5t17.5 7.5h45q7 0 11 -5t4 -11q0 -9 -4 -18l-43 -113q-5 -10 -10 -15.5t-16 -5.5h-17q-8 0 -12 6t-2 15z" />
    <glyph glyph-name="ampersand" unicode="&#x26;" horiz-adv-x="674" 
d="M612 344q-2 -46 -17.5 -100.5t-54.5 -112.5l98 -96q9 -9 9 -16q0 -19 -20 -19h-22q-11 0 -17 2.5t-11 7.5l-74 74q-38 -41 -93 -67.5t-129 -26.5q-48 0 -88.5 14.5t-70 40.5t-45.5 61.5t-16 77.5q0 35 12 63t32 51t46 41.5t54 35.5q-26 27 -43.5 49.5t-28.5 43t-16 40.5
t-5 42q0 33 13 62t36 50.5t55 34.5t70 13t70 -12t55 -33.5t36 -51t13 -63.5q0 -35 -13.5 -62t-35 -49.5t-50 -40.5t-58.5 -35l64 -63l61.5 -61l65.5 -63q20 34 34.5 74.5t20.5 93.5q2 22 22 22h19q22 0 22 -22zM247 332q-25 -14 -47.5 -29.5t-39 -33t-26.5 -38.5t-10 -47
q0 -33 13 -58t34.5 -42t50 -25.5t59.5 -8.5q45 0 91 19t85 60l-71 68.5l-68 65.5zM397 550q0 46 -32 73t-79 27q-22 0 -42 -7t-35.5 -20t-24.5 -31.5t-9 -41.5q0 -15 3.5 -29t13.5 -30.5t26 -36.5t42 -47l52 30t43.5 32t30 37t11.5 44z" />
    <glyph glyph-name="asterisk" unicode="*" horiz-adv-x="446" 
d="M101 651q1 0 8 -4l92 -50l-19 103q-1 5 -1 8q0 8 6.5 15t15.5 7h40q9 0 15.5 -7t6.5 -15q0 -3 -1 -8l-20 -104l93 51q7 4 8 4q8 2 16.5 -2t10.5 -12l13 -38q2 -9 -2 -17.5t-12 -10.5q-1 0 -2.5 -0.5t-5.5 -1.5l-105 -14l77 -71q6 -6 6 -7q5 -6 4 -15.5t-9 -14.5l-32 -24
q-8 -5 -17 -3.5t-14 8.5q0 1 -1 2t-3 5l-46 96l-46 -96q-2 -4 -3 -5t-1 -2q-5 -7 -14 -8.5t-17 3.5l-32 24q-8 5 -9 14.5t4 15.5q0 1 6 7l76 72l-104 13q-4 1 -5.5 1.5t-2.5 0.5q-8 2 -12 10.5t-2 17.5l13 38q2 8 10.5 12t16.5 2z" />
    <glyph glyph-name="plus" unicode="+" horiz-adv-x="628" 
d="M343 332h218q22 0 22 -22v-14q0 -22 -22 -22h-218v-219q0 -22 -22 -22h-15q-22 0 -22 22v219h-217q-22 0 -22 22v14q0 22 22 22h217v213q0 22 22 22h15q22 0 22 -22v-213z" />
    <glyph glyph-name="plusminus" unicode="&#xb1;" horiz-adv-x="556" 
d="M308 431h157q22 0 22 -22v-14q0 -22 -22 -22h-157v-158q0 -22 -22 -22h-16q-22 0 -22 22v158h-157q-22 0 -22 22v14q0 22 22 22h157v154q0 22 22 22h16q22 0 22 -22v-154zM101 0q-22 0 -22 22v14q0 22 22 22h354q22 0 22 -22v-14q0 -22 -22 -22h-354z" />
    <glyph glyph-name="slash" unicode="/" horiz-adv-x="459" 
d="M86 -69q-2 -4 -7 -9.5t-15 -5.5h-17q-8 0 -14 6t-6 14q0 4 3 12l344 823q2 4 7 9.5t15 5.5h17q8 0 14 -6t6 -14q0 -5 -3 -12z" />
    <glyph glyph-name="backslash" unicode="\" horiz-adv-x="459" 
d="M29 754q-3 7 -3 12q0 8 6 14t14 6h17q10 0 15 -5.5t7 -9.5l344 -823q3 -8 3 -12q0 -8 -6 -14t-14 -6h-17q-10 0 -15 5.5t-7 9.5z" />
    <glyph glyph-name="fraction" unicode="&#x2044;" horiz-adv-x="160" 
d="M-134 19q-7 -9 -13 -14t-20 -5h-17q-20 0 -20 20q0 2 1 5t3 6l493 650q7 9 13 14t20 5h17q20 0 20 -20q0 -2 -1 -5t-3 -6z" />
    <glyph glyph-name="at" unicode="@" horiz-adv-x="826" 
d="M757 225q-9 -146 -129 -146q-25 0 -43.5 7t-31 17t-20.5 20t-11 15q-6 -10 -15.5 -22t-24.5 -22.5t-36 -17.5t-49 -7q-75 0 -119.5 52t-44.5 152t45 152.5t119 52.5q42 0 65.5 -16t37.5 -33v19q0 22 22 22h17q22 0 22 -22v-218q0 -48 19 -70.5t48 -22.5q22 0 35.5 10.5
t20.5 25.5t9.5 31t2.5 27q1 12 2 46.5t-2 75.5q-5 60 -23 106.5t-53.5 78.5t-88.5 48.5t-128 16.5q-123 0 -193.5 -65t-84.5 -185q-2 -13 -2.5 -34.5t-0.5 -45t0.5 -45.5t2.5 -36q13 -118 84 -182.5t194 -64.5q57 0 95 8.5t63 19.5t40 23l24 19q4 3 9.5 7.5t14.5 4.5h26
q9 0 15 -6t6 -15q0 -7 -5 -14q-20 -21 -45.5 -40t-60 -33.5t-79.5 -23t-103 -8.5q-152 0 -237.5 77t-101.5 223q-2 14 -2.5 37.5t-0.5 49t0.5 48.5t2.5 36q17 143 102.5 223t236.5 80q173 0 260 -78t94 -225q1 -20 1.5 -41t0 -39.5t-1 -32.5t-0.5 -20zM294 273
q0 -28 5.5 -54.5t17.5 -46.5t31.5 -32.5t48.5 -12.5q30 0 49.5 11t31.5 30.5t17 46t5 58.5t-5 59t-17 46.5t-31.5 30.5t-49.5 11q-29 0 -48.5 -11t-31.5 -30.5t-17.5 -46.5t-5.5 -59z" />
    <glyph glyph-name="parenleft" unicode="(" horiz-adv-x="319" 
d="M272 -159q-63 0 -103.5 27.5t-64 85t-32 146t-8.5 209.5t8.5 209t32 145.5t64 85t103.5 27.5q9 0 15.5 -6.5t6.5 -15.5v-14q0 -9 -6 -15.5t-13 -6.5q-42 0 -71 -19.5t-47 -66.5t-26 -125.5t-8 -197.5t8 -198t26 -126t47 -66.5t71 -19.5q7 0 13 -6.5t6 -15.5v-14
q0 -9 -6.5 -15.5t-15.5 -6.5z" />
    <glyph glyph-name="parenright" unicode=")" horiz-adv-x="319" 
d="M47 -159q-9 0 -15.5 6.5t-6.5 15.5v14q0 9 6 15.5t13 6.5q42 0 71 19.5t47 66.5t26 126t8 198t-8 197.5t-26 125.5t-47 66.5t-71 19.5q-7 0 -13 6.5t-6 15.5v14q0 9 6.5 15.5t15.5 6.5q63 0 103.5 -27.5t64 -85t32 -145.5t8.5 -209t-8.5 -209.5t-32 -146t-64 -85
t-103.5 -27.5z" />
    <glyph glyph-name="bracketleft" unicode="[" horiz-adv-x="301" 
d="M100 -159q-22 0 -22 22v891q0 22 22 22h151q22 0 22 -22v-14q0 -22 -22 -22h-112v-819h112q22 0 22 -22v-14q0 -22 -22 -22h-151z" />
    <glyph glyph-name="bracketright" unicode="]" horiz-adv-x="301" 
d="M201 776q22 0 22 -22v-891q0 -22 -22 -22h-151q-22 0 -22 22v14q0 22 22 22h112v819h-112q-22 0 -22 22v14q0 22 22 22h151z" />
    <glyph glyph-name="braceleft" unicode="{" horiz-adv-x="344" 
d="M183 152q0 -67 2 -115t12.5 -78.5t32 -45t60.5 -14.5h5q22 0 22 -22v-14q0 -22 -22 -22h-5q-59 0 -92.5 19.5t-50.5 57t-21 91t-4 122.5q0 59 -15 87t-46 48q-14 9 -19 17t-5 20v12q0 12 5 20t19 17q31 20 46 48t15 87q0 69 4 122.5t21 90.5t50.5 56.5t92.5 19.5h5
q22 0 22 -22v-14q0 -22 -22 -22h-5q-39 0 -60.5 -14.5t-32 -45t-12.5 -78t-2 -114.5q0 -59 -18 -96.5t-57 -60.5q39 -23 57 -60.5t18 -96.5z" />
    <glyph glyph-name="braceright" unicode="}" horiz-adv-x="344" 
d="M161 152q0 59 18 96.5t57 60.5q-39 23 -57 60.5t-18 96.5q0 67 -2 114.5t-12.5 78t-32 45t-60.5 14.5h-5q-22 0 -22 22v14q0 22 22 22h5q59 0 92.5 -19.5t50.5 -56.5t21 -90.5t4 -122.5q0 -59 15 -87t46 -48q14 -9 19 -17t5 -20v-12q0 -12 -5 -20t-19 -17
q-31 -20 -46 -48t-15 -87q0 -69 -4 -122.5t-21 -91t-50.5 -57t-92.5 -19.5h-5q-22 0 -22 22v14q0 22 22 22h5q39 0 60.5 14.5t32 45t12.5 78.5t2 115z" />
    <glyph glyph-name="exclamdown" unicode="&#xa1;" horiz-adv-x="217" 
d="M117 -179.957q22 0 22 21.998v512.969q0 21.999 -22 21.999h-17q-22 0 -22 -21.999v-512.969q0 -21.998 22 -21.998h17zM150 498.001q0 10 -6.5 15.999q-6.5 6 -16.5 6h-38q-22 0 -22 -21.999v-37.9971q0 -10 6 -16.499q6 -6.5 16 -6.5h38q10 0 16.5 6.5
q6.5 6.49902 6.5 16.499v37.9971z" />
    <glyph glyph-name="questiondown" unicode="&#xbf;" horiz-adv-x="496" 
d="M253.015 377.009q21.999 0 21.999 -21.999v-47.9971q0 -37.9971 -12.499 -68.4951t-30.998 -55.9971q-18.499 -25.498 -40.498 -47.9971l-41.9971 -43.9971t-34.498 -43.9971q-14.499 -22.499 -17.499 -48.4971q-4 -30.998 8 -55.4971q11.999 -24.498 32.998 -40.9971
q20.998 -16.499 49.4971 -24.999q28.498 -8.49902 57.4961 -8.49902q58.9961 0 102.494 31.498q43.4971 31.498 56.4961 107.493q2 13.999 8.99902 17.999q7 4 14.999 4h16q8.99902 0 14.999 -5.5q5.99902 -5.5 5.99902 -14.499q-1 -41.9971 -17.499 -77.9951
t-45.9971 -62.9961q-29.498 -26.999 -68.9961 -42.498q-39.4971 -15.499 -87.4941 -15.499q-54.9971 0 -95.4941 15.999q-40.498 15.999 -66.4961 42.498q-25.998 26.498 -37.998 59.9961q-11.999 33.498 -8.99902 68.4961q3 34.9971 16.999 62.9961
q13.999 27.998 33.498 52.4961q19.499 24.499 41.9971 46.498q22.499 21.998 41.498 44.9971q18.998 22.998 31.498 47.9971q12.499 24.998 12.499 54.9961v47.9971q0 21.999 21.998 21.999h16.999zM204.018 498.001q0 10 6.5 15.999q6.5 6 16.499 6h37.998
q21.998 0 21.998 -21.999v-37.9971q0 -10 -5.99902 -16.499q-6 -6.5 -15.999 -6.5h-37.998q-9.99902 0 -16.499 6.5q-6.5 6.49902 -6.5 16.499v37.9971z" />
    <glyph glyph-name="guillemotleft" unicode="&#xab;" horiz-adv-x="603" 
d="M109 329l169 -164q10 -10 14 -17t4 -19v-17q0 -20 -20 -20q-10 0 -24 12l-188 182q-10 10 -13 18.5t-4 16.5v16q1 8 4 16.5t13 18.5l188 182q14 12 24 12q20 0 20 -20v-17q0 -12 -4 -19t-14 -17zM358 329l169 -164q10 -10 14 -17t4 -19v-17q0 -20 -20 -20q-10 0 -24 12
l-188 182q-10 10 -13 18.5t-4 16.5v16q1 8 4 16.5t13 18.5l188 182q14 12 24 12q20 0 20 -20v-17q0 -12 -4 -19t-14 -17z" />
    <glyph glyph-name="guillemotright" unicode="&#xbb;" horiz-adv-x="603" 
d="M325 493q-10 10 -14 17t-4 19v17q0 20 20 20q10 0 24 -12l188 -182q10 -10 13 -18.5t4 -16.5v-16q-1 -8 -4 -16.5t-13 -18.5l-188 -182q-14 -12 -24 -12q-20 0 -20 20v17q0 12 4 19t14 17l169 164zM76 493q-10 10 -14 17t-4 19v17q0 20 20 20q10 0 24 -12l188 -182
q10 -10 13 -18.5t4 -16.5v-16q-1 -8 -4 -16.5t-13 -18.5l-188 -182q-14 -12 -24 -12q-20 0 -20 20v17q0 12 4 19t14 17l169 164z" />
    <glyph glyph-name="guilsinglleft" unicode="&#x2039;" horiz-adv-x="354" 
d="M109 329l169 -164q10 -10 14 -17t4 -19v-17q0 -20 -20 -20q-10 0 -24 12l-188 182q-10 10 -13 18.5t-4 16.5v16q1 8 4 16.5t13 18.5l188 182q14 12 24 12q20 0 20 -20v-17q0 -12 -4 -19t-14 -17z" />
    <glyph glyph-name="guilsinglright" unicode="&#x203a;" horiz-adv-x="354" 
d="M76 493q-10 10 -14 17t-4 19v17q0 20 20 20q10 0 24 -12l188 -182q10 -10 13 -18.5t4 -16.5v-16q-1 -8 -4 -16.5t-13 -18.5l-188 -182q-14 -12 -24 -12q-20 0 -20 20v17q0 12 4 19t14 17l169 164z" />
    <glyph glyph-name="hyphen" unicode="-" horiz-adv-x="487" 
d="M96 271q-22 0 -22 22v14q0 22 22 22h295q22 0 22 -22v-14q0 -22 -22 -22h-295z" />
    <glyph glyph-name="endash" unicode="&#x2013;" horiz-adv-x="577" 
d="M96 271q-22 0 -22 22v14q0 22 22 22h385q22 0 22 -22v-14q0 -22 -22 -22h-385z" />
    <glyph glyph-name="emdash" unicode="&#x2014;" horiz-adv-x="767" 
d="M96 271q-22 0 -22 22v14q0 22 22 22h575q22 0 22 -22v-14q0 -22 -22 -22h-575z" />
    <glyph glyph-name="periodcentered" unicode="&#xb7;" horiz-adv-x="330" 
d="M65 300q0 42 29 71t71 29t71 -29t29 -71t-29 -71t-71 -29t-71 29t-29 71z" />
    <glyph glyph-name="colon" unicode=":" horiz-adv-x="241" 
d="M167 22q0 -10 -6.5 -16t-16.5 -6h-48q-22 0 -22 22v48q0 10 6 16.5t16 6.5h48q10 0 16.5 -6.5t6.5 -16.5v-48zM167 372q0 -10 -6.5 -16t-16.5 -6h-48q-22 0 -22 22v48q0 10 6 16.5t16 6.5h48q10 0 16.5 -6.5t6.5 -16.5v-48z" />
    <glyph glyph-name="semicolon" unicode=";" horiz-adv-x="259" 
d="M179 372q0 -10 -6.5 -16t-16.5 -6h-48q-22 0 -22 22v48q0 10 6 16.5t16 6.5h48q10 0 16.5 -6.5t6.5 -16.5v-48zM93 66q2 12 7.5 19.5t17.5 7.5h45q7 0 11 -5t4 -11q0 -9 -4 -18l-43 -113q-5 -10 -10 -15.5t-16 -5.5h-17q-8 0 -12 6t-2 15z" />
    <glyph glyph-name="less" unicode="&#x3c;" horiz-adv-x="481" 
d="M39 358q0 14 6.5 24.5t22.5 21.5l295 204l12.5 7.5t14.5 4.5q8 0 14 -5t6 -15v-17q0 -10 -4.5 -16.5t-16.5 -14.5l-289 -200l289 -200q12 -8 16.5 -14.5t4.5 -16.5v-17q0 -10 -6 -15t-14 -5q-7 0 -14.5 4.5l-12.5 7.5l-295 204q-16 11 -22.5 21.5t-6.5 24.5v12v0z" />
    <glyph glyph-name="lessequal" unicode="&#x2264;" horiz-adv-x="527" 
d="M71 410q0 14 6.5 23t22.5 18l295 146q6 3 13 6t14 3q8 0 14 -5t6 -15v-14q0 -11 -4.5 -18t-16.5 -13l-287 -141l287 -141q12 -6 16.5 -13t4.5 -18v-14q0 -10 -6 -15t-14 -5q-7 0 -14 3t-13 6l-295 146q-16 9 -22.5 18t-6.5 23v20zM93 0q-22 0 -22 22v14q0 22 22 22h327
q22 0 22 -22v-14q0 -22 -22 -22h-327z" />
    <glyph glyph-name="equal" unicode="=" horiz-adv-x="571" 
d="M98 396q-22 0 -22 22v14q0 22 22 22h375q22 0 22 -22v-14q0 -22 -22 -22h-375zM98 146q-22 0 -22 22v14q0 22 22 22h375q22 0 22 -22v-14q0 -22 -22 -22h-375z" />
    <glyph glyph-name="approxequal" unicode="&#x2248;" horiz-adv-x="563" 
d="M377 377q-30 0 -53 5.5t-44.5 12t-43.5 12t-50 5.5q-20 0 -34 -5.5t-24.5 -12t-18.5 -12t-15 -5.5q-17 0 -17 17v23q0 9 9.5 19t24.5 18t35 13t41 5q31 0 55 -5.5t45 -12t42.5 -12t48.5 -5.5q19 0 33.5 5.5t25 12t18.5 12t15 5.5q17 0 17 -17v-23q0 -9 -9.5 -19
t-24.5 -18t-35 -13t-41 -5zM377 127q-30 0 -53 5.5t-44.5 12t-43.5 12t-50 5.5q-20 0 -34 -5.5t-24.5 -12t-18.5 -12t-15 -5.5q-17 0 -17 17v23q0 9 9.5 19t24.5 18t35 13t41 5q31 0 55 -5.5t45 -12t42.5 -12t48.5 -5.5q19 0 33.5 5.5t25 12t18.5 12t15 5.5q17 0 17 -17v-23
q0 -9 -9.5 -19t-24.5 -18t-35 -13t-41 -5z" />
    <glyph glyph-name="notequal" unicode="&#x2260;" horiz-adv-x="545" 
d="M367 454h93q22 0 22 -22v-14q0 -22 -22 -22h-117l-80 -192h197q22 0 22 -22v-14q0 -22 -22 -22h-221l-46 -110q-2 -4 -7 -9.5t-15 -5.5h-17q-8 0 -14 6t-6 14q0 4 3 12l39 93h-91q-22 0 -22 22v14q0 22 22 22h115l80 192h-195q-22 0 -22 22v14q0 22 22 22h219l47 111
q2 4 7 9.5t15 5.5h17q8 0 14 -6t6 -14q0 -5 -3 -12z" />
    <glyph glyph-name="logicalnot" unicode="&#xac;" horiz-adv-x="581" 
d="M465 170q-22 0 -22 22v100h-345q-22 0 -22 22v14q0 22 22 22h385q22 0 22 -22v-136q0 -22 -22 -22h-18v0z" />
    <glyph glyph-name="estimated" unicode="&#x212e;" horiz-adv-x="605" 
d="M124 271q4 -113 54 -168t127 -55q37 0 65 7t48 18.5t32.5 26.5t19.5 32q5 11 11.5 13.5t17.5 2.5h12q9 0 15.5 -5.5t5.5 -14.5q-1 -21 -15.5 -45t-43 -44.5t-70.5 -34.5t-98 -14q-53 0 -96 19.5t-74 55.5t-49.5 86.5t-21.5 112.5q-1 15 -1 37.5t1 37.5q3 61 21.5 111
t49.5 85.5t74 55t96 19.5q52 0 97 -20t77.5 -56.5t51 -89.5t18.5 -119v-25q0 -10 -6.5 -16t-16.5 -6h-402v-7zM124 334h364v5q0 48 -13.5 87.5t-37.5 67t-57.5 43t-74.5 15.5q-83 0 -130 -58.5t-51 -154.5v-5z" />
    <glyph glyph-name="partialdiff" unicode="&#x2202;" horiz-adv-x="551" 
d="M54 231q0 51 13.5 95t41.5 76t69 50t95 18q79 0 132 -39q-12 38 -29.5 69t-40 57.5t-49 51t-57.5 49.5q-11 8 -14 13t-3 9q0 20 20 20h20q12 0 20 -3.5t16 -9.5q43 -38 80.5 -76t64.5 -89t42.5 -121t16.5 -170q0 -51 -13.5 -95.5t-41.5 -76.5t-69 -50.5t-95 -18.5
t-95 18.5t-69 50.5t-41.5 76.5t-13.5 95.5zM431 231q0 38 -10 71t-29.5 57.5t-49.5 38.5t-69 14t-69 -14t-49.5 -38.5t-29.5 -57.5t-10 -71t10 -71.5t29.5 -58t49.5 -39t69 -14.5t69 14.5t49.5 39t29.5 58t10 71.5z" />
    <glyph glyph-name="greater" unicode="&#x3e;" horiz-adv-x="480" 
d="M442 346q0 -14 -6.5 -24.5t-22.5 -21.5l-295 -204l-12.5 -7.5t-14.5 -4.5q-8 0 -14 5t-6 15v17q0 10 4.5 16.5t16.5 14.5l289 200l-289 200q-12 8 -16.5 14.5t-4.5 16.5v17q0 10 6 15t14 5q7 0 14.5 -4.5l12.5 -7.5l295 -204q16 -11 22.5 -21.5t6.5 -24.5v-12z" />
    <glyph glyph-name="greaterequal" unicode="&#x2265;" horiz-adv-x="527" 
d="M456 390q0 -14 -6.5 -23t-22.5 -18l-295 -146q-6 -3 -13 -6t-14 -3q-8 0 -14 5t-6 15v14q0 11 4.5 18t16.5 13l287 141l-287 141q-12 6 -16.5 13t-4.5 18v14q0 10 6 15t14 5q7 0 14 -3t13 -6l295 -146q16 -9 22.5 -18t6.5 -23v-20zM107 0q-22 0 -22 22v14q0 22 22 22h327
q22 0 22 -22v-14q0 -22 -22 -22h-327z" />
    <glyph glyph-name="question" unicode="?" horiz-adv-x="503" 
d="M247 143q-22 0 -22 22v48q0 38 12.5 68.5t31 56t40.5 48l42 44t34.5 44t17.5 48.5q4 31 -8 55.5t-33 41t-49.5 25t-57.5 8.5q-59 0 -102.5 -31.5t-56.5 -107.5q-2 -14 -9 -18t-15 -4h-16q-9 0 -15 5.5t-6 14.5q1 42 17.5 78t46 63t69 42.5t87.5 15.5q55 0 95.5 -16
t66.5 -42.5t38 -60t9 -68.5t-17 -63t-33.5 -52.5t-42 -46.5t-41.5 -45t-31.5 -48t-12.5 -55v-48q0 -22 -22 -22h-17zM296 22q0 -10 -6.5 -16t-16.5 -6h-38q-22 0 -22 22v38q0 10 6 16.5t16 6.5h38q10 0 16.5 -6.5t6.5 -16.5v-38z" />
    <glyph glyph-name="asciicircum" unicode="^" horiz-adv-x="418" 
d="M214 705q8 0 14.5 -1.5t17.5 -12.5l87 -85q12 -12 12 -20q0 -11 -14 -11h-17q-6 0 -13.5 2t-11.5 5l-80 60l-80 -60q-4 -3 -11.5 -5t-13.5 -2h-17q-14 0 -14 11q0 8 12 20l87 85q11 11 17.5 12.5t14.5 1.5h10z" />
    <glyph glyph-name="underscore" unicode="_" horiz-adv-x="753" 
d="M89 -28q-22 0 -22 22v14q0 22 22 22h575q22 0 22 -22v-14q0 -22 -22 -22h-575z" />
    <glyph glyph-name="bar" unicode="|" horiz-adv-x="219" 
d="M140 -186q0 -22 -22 -22h-17q-22 0 -22 22v1060q0 22 22 22h17q22 0 22 -22v-1060z" />
    <glyph glyph-name="brokenbar" unicode="&#xa6;" horiz-adv-x="225" 
d="M143 497q0 -22 -22 -22h-17q-22 0 -22 22v310q0 22 22 22h17q22 0 22 -22v-310zM143 22q0 -22 -22 -22h-17q-22 0 -22 22v310q0 22 22 22h17q22 0 22 -22v-310z" />
    <glyph glyph-name="percent" unicode="%" horiz-adv-x="741" 
d="M334 569q1 -14 1 -25v-21v-20t-1 -23q-3 -60 -38.5 -95t-101.5 -35t-101.5 35t-38.5 95q-1 13 -1.5 23t-0.5 20t0.5 21t1.5 25q3 60 37 98t103 38t103 -38t37 -98zM112 483q1 -14 5.5 -28.5t14 -26.5t24.5 -19.5t38 -7.5q22 0 37.5 7.5t25 19.5t14 26.5t5.5 28.5t1 23.5
v18.5v18.5t-1 22.5q-1 15 -5.5 30t-14 26.5t-25 19t-37.5 7.5t-37.5 -7.5t-25 -19t-14 -26.5t-5.5 -30q-1 -13 -1.5 -22.5t-0.5 -18.5t0.5 -18.5t1.5 -23.5zM687 218q1 -14 1 -25v-21v-20t-1 -23q-3 -60 -38.5 -97.5t-101.5 -37.5t-101.5 37.5t-38.5 97.5q-1 13 -1.5 23
t-0.5 20t0.5 21t1.5 25q3 60 37 98t103 38t103 -38t37 -98zM465 132q1 -14 5.5 -28.5t14 -26.5t24.5 -19.5t38 -7.5q22 0 37.5 7.5t25 19.5t14 26.5t5.5 28.5t1 23.5v18.5v18.5t-1 22.5q-1 15 -5.5 30t-14 26.5t-25 19t-37.5 7.5t-37.5 -7.5t-25 -19t-14 -26.5t-5.5 -30
q-1 -13 -1.5 -22.5t-0.5 -18.5t0.5 -18.5t1.5 -23.5zM158 19q-7 -9 -13 -14t-20 -5h-17q-20 0 -20 20q0 2 1 5t3 6l493 650q7 9 13 14t20 5h17q20 0 20 -20q0 -2 -1 -5t-3 -6z" />
    <glyph glyph-name="perthousand" unicode="&#x2030;" horiz-adv-x="1053" 
d="M1009 218q1 -14 1 -25v-21v-20t-1 -23q-3 -60 -38.5 -97.5t-101.5 -37.5t-101.5 37.5t-38.5 97.5q-1 13 -1.5 23t-0.5 20t0.5 21t1.5 25q3 60 37 98t103 38t103 -38t37 -98zM787 132q1 -14 5.5 -28.5t14 -26.5t24.5 -19.5t38 -7.5q22 0 37.5 7.5t25 19.5t14 26.5
t5.5 28.5t1 23.5v18.5v18.5t-1 22.5q-1 15 -5.5 30t-14 26.5t-25 19t-37.5 7.5t-37.5 -7.5t-25 -19t-14 -26.5t-5.5 -30q-1 -13 -1.5 -22.5t-0.5 -18.5t0.5 -18.5t1.5 -23.5zM334 569q1 -14 1 -25v-21v-20t-1 -23q-3 -60 -38.5 -95t-101.5 -35t-101.5 35t-38.5 95
q-1 13 -1.5 23t-0.5 20t0.5 21t1.5 25q3 60 37 98t103 38t103 -38t37 -98zM112 483q1 -14 5.5 -28.5t14 -26.5t24.5 -19.5t38 -7.5q22 0 37.5 7.5t25 19.5t14 26.5t5.5 28.5t1 23.5v18.5v18.5t-1 22.5q-1 15 -5.5 30t-14 26.5t-25 19t-37.5 7.5t-37.5 -7.5t-25 -19
t-14 -26.5t-5.5 -30q-1 -13 -1.5 -22.5t-0.5 -18.5t0.5 -18.5t1.5 -23.5zM687 218q1 -14 1 -25v-21v-20t-1 -23q-3 -60 -38.5 -97.5t-101.5 -37.5t-101.5 37.5t-38.5 97.5q-1 13 -1.5 23t-0.5 20t0.5 21t1.5 25q3 60 37 98t103 38t103 -38t37 -98zM465 132q1 -14 5.5 -28.5
t14 -26.5t24.5 -19.5t38 -7.5q22 0 37.5 7.5t25 19.5t14 26.5t5.5 28.5t1 23.5v18.5v18.5t-1 22.5q-1 15 -5.5 30t-14 26.5t-25 19t-37.5 7.5t-37.5 -7.5t-25 -19t-14 -26.5t-5.5 -30q-1 -13 -1.5 -22.5t-0.5 -18.5t0.5 -18.5t1.5 -23.5zM158 19q-7 -9 -13 -14t-20 -5h-17
q-20 0 -20 20q0 2 1 5t3 6l493 650q7 9 13 14t20 5h17q20 0 20 -20q0 -2 -1 -5t-3 -6z" />
    <glyph glyph-name="ellipsis" unicode="&#x2026;" horiz-adv-x="564" 
d="M166 22q0 -10 -6.5 -16t-16.5 -6h-48q-22 0 -22 22v48q0 10 6 16.5t16 6.5h48q10 0 16.5 -6.5t6.5 -16.5v-48zM329 22q0 -10 -6.5 -16t-16.5 -6h-48q-22 0 -22 22v48q0 10 6 16.5t16 6.5h48q10 0 16.5 -6.5t6.5 -16.5v-48zM492 22q0 -10 -6.5 -16t-16.5 -6h-48
q-22 0 -22 22v48q0 10 6 16.5t16 6.5h48q10 0 16.5 -6.5t6.5 -16.5v-48z" />
    <glyph glyph-name="asciitilde" unicode="~" horiz-adv-x="563" 
d="M377 252q-30 0 -53 5.5t-44.5 12t-43.5 12t-50 5.5q-20 0 -34 -5.5t-24.5 -12t-18.5 -12t-15 -5.5q-17 0 -17 17v23q0 9 9.5 19t24.5 18t35 13t41 5q31 0 55 -5.5t45 -12t42.5 -12t48.5 -5.5q19 0 33.5 5.5t25 12t18.5 12t15 5.5q17 0 17 -17v-23q0 -9 -9.5 -19
t-24.5 -18t-35 -13t-41 -5z" />
    <glyph glyph-name="dagger" unicode="&#x2020;" horiz-adv-x="407" 
d="M234 524h117q22 0 22 -22v-14q0 -22 -22 -22h-117v-444q0 -22 -22 -22h-17q-22 0 -22 22v444h-117q-22 0 -22 22v14q0 22 22 22h117v154q0 22 22 22h17q22 0 22 -22v-154z" />
    <glyph glyph-name="daggerdbl" unicode="&#x2021;" horiz-adv-x="455" 
d="M258 524h117q22 0 22 -22v-14q0 -22 -22 -22h-117v-217h117q22 0 22 -22v-14q0 -22 -22 -22h-117v-169q0 -22 -22 -22h-17q-22 0 -22 22v169h-117q-22 0 -22 22v14q0 22 22 22h117v217h-117q-22 0 -22 22v14q0 22 22 22h117v154q0 22 22 22h17q22 0 22 -22v-154z" />
    <glyph glyph-name="minus" unicode="&#x2212;" horiz-adv-x="650" 
d="M98 271q-22 0 -22 22v14q0 22 22 22h454q22 0 22 -22v-14q0 -22 -22 -22h-454z" />
    <glyph glyph-name="bullet" unicode="&#x2022;" horiz-adv-x="380" 
d="M90 300q0 42 29 71t71 29t71 -29t29 -71t-29 -71t-71 -29t-71 29t-29 71z" />
    <glyph glyph-name="trademark" unicode="&#x2122;" horiz-adv-x="625" 
d="M544 456q0 -22 -22 -22h-14q-22 0 -22 22v129l-41 -67q-5 -8 -10 -14t-16 -6h-8q-11 0 -16 6t-10 14l-41 67v-129q0 -22 -22 -22h-14q-22 0 -22 22v222q0 22 22 22h14q13 0 20 -8t11 -14l62 -99l62 99q4 6 11 14t20 8h14q22 0 22 -22v-222zM50 678q0 22 22 22h162
q22 0 22 -22v-12q0 -22 -22 -22h-52v-188q0 -22 -22 -22h-14q-22 0 -22 22v188h-52q-22 0 -22 22v12z" />
    <glyph glyph-name="section" unicode="&#xa7;" horiz-adv-x="553" 
d="M507 240q0 -43 -23 -74.5t-55 -55.5q15 -18 20.5 -40t5.5 -48q0 -29 -11.5 -58t-34 -52t-57 -37.5t-80.5 -14.5q-51 0 -88 13t-60.5 32.5t-35 43.5t-12.5 45q-1 9 5 14.5t16 5.5h18q8 0 13.5 -4t10.5 -16q5 -14 13 -27.5t23 -24t38 -17.5t59 -7q63 0 92.5 30.5t29.5 73.5
q0 23 -6 38.5t-22 27.5t-42.5 22t-67.5 22q-56 17 -96 35.5t-65.5 41t-37 52t-11.5 69.5q0 43 23 74.5t55 55.5q-15 18 -20.5 40t-5.5 48q0 29 11.5 58t34 52t57 37.5t80.5 14.5q51 0 88 -13t60.5 -32.5t35 -43.5t12.5 -45q1 -9 -5 -14.5t-16 -5.5h-18q-8 0 -13.5 4
t-10.5 16q-5 13 -13 27t-23 24.5t-38 17.5t-59 7q-63 0 -92.5 -30.5t-29.5 -73.5q0 -23 6 -38.5t22 -27.5t42.5 -22t67.5 -22q56 -17 96 -35.5t65.5 -41t37 -52t11.5 -69.5zM281 187q64 -19 101 -40q31 20 47.5 41t16.5 53q0 22 -6.5 41t-25.5 36t-53 32.5t-89 32.5
q-64 19 -101 40q-31 -20 -47.5 -41t-16.5 -53q0 -23 6.5 -41.5t25.5 -35.5t53 -33t89 -32z" />
    <glyph glyph-name="copyright" unicode="&#xa9;" horiz-adv-x="834" 
d="M57 350q0 75 28.5 140.5t77 114t114 77t140.5 28.5t140.5 -28.5t114 -77t77 -114t28.5 -140.5t-28.5 -140.5t-77 -114t-114 -77t-140.5 -28.5t-140.5 28.5t-114 77t-77 114t-28.5 140.5zM117 350q0 -62 23.5 -117.5t64 -97t95.5 -66t117 -24.5t117 24.5t95.5 66t64 97
t23.5 117.5t-23.5 117.5t-64 97t-95.5 66t-117 24.5t-117 -24.5t-95.5 -66t-64 -97t-23.5 -117.5zM255 385q1 32 12.5 61t32 50.5t50 34.5t67.5 13q40 0 70 -10t49.5 -26t29 -34.5t9.5 -36.5q0 -22 -22 -22h-17q-11 0 -15.5 5.5t-7.5 13.5q-9 24 -31 38t-65 14
q-30 0 -49.5 -10t-30.5 -25t-15.5 -33t-5.5 -33t-1 -34t1 -34t5.5 -33t15.5 -33t30.5 -25t49.5 -10q43 0 65 14t31 38q3 8 7.5 13.5t15.5 5.5h17q22 0 22 -22q0 -18 -9.5 -36.5t-29 -34.5t-49.5 -26t-70 -10q-38 0 -67.5 12.5t-50 34.5t-32 51t-12.5 61q-1 15 -1 34t1 34z
" />
    <glyph glyph-name="ordfeminine" unicode="&#xaa;" horiz-adv-x="367" 
d="M160 483q41 0 57.5 23t16.5 53l-47 -7q-42 -6 -54.5 -18t-12.5 -27q0 -11 11.5 -17.5t28.5 -6.5zM256 434q-22 0 -22 22v7q-8 -14 -32 -24t-51 -10q-44 0 -68.5 22t-24.5 54q0 40 30.5 64.5t82.5 32.5l63 9q0 2 -1 8t-6 12t-15 11t-28 5q-17 0 -26.5 -3t-16.5 -7t-13 -7
t-14 -3h-17q-10 0 -16.5 3.5t-5.5 13.5q1 7 9.5 17.5t23 20.5t35 16.5t44.5 6.5q50 0 79 -30t29 -77v-142q0 -22 -22 -22h-17z" />
    <glyph glyph-name="registered" unicode="&#xae;" horiz-adv-x="834" 
d="M57 350q0 75 28.5 140.5t77 114t114 77t140.5 28.5t140.5 -28.5t114 -77t77 -114t28.5 -140.5t-28.5 -140.5t-77 -114t-114 -77t-140.5 -28.5t-140.5 28.5t-114 77t-77 114t-28.5 140.5zM117 350q0 -62 23.5 -117.5t64 -97t95.5 -66t117 -24.5t117 24.5t95.5 66t64 97
t23.5 117.5t-23.5 117.5t-64 97t-95.5 66t-117 24.5t-117 -24.5t-95.5 -66t-64 -97t-23.5 -117.5zM304 168q-22 0 -22 22v322q0 22 22 22h128q28 0 53 -6t43.5 -19.5t29 -36t10.5 -54.5q0 -41 -20 -67t-52 -38l69 -109q4 -6 4 -14t-5.5 -15t-16.5 -7h-14q-11 0 -17.5 5
t-11.5 14l-72 115h-89v-112q0 -22 -22 -22h-17zM343 360h87q23 0 38 5t23.5 13t12 18.5t3.5 21.5t-3.5 21.5t-12 18.5t-23.5 13t-38 5h-87v-116z" />
    <glyph glyph-name="degree" unicode="&#xb0;" horiz-adv-x="378" 
d="M113 579q0 -34 21 -55t55 -21t55 21t21 55t-21 55t-55 21t-55 -21t-21 -55zM53 579q0 28 10.5 52t29 41.5t43.5 27.5t53 10t53 -10t43.5 -27.5t29 -41.5t10.5 -52t-10.5 -52t-29 -41.5t-43.5 -27.5t-53 -10t-53 10t-43.5 27.5t-29 41.5t-10.5 52z" />
    <glyph glyph-name="mu" unicode="&#xb5;" horiz-adv-x="586" 
d="M137 -178q0 -22 -22 -22h-17q-22 0 -22 22v676q0 22 22 22h17q22 0 22 -22v-279q0 -40 14 -72t36 -54t50 -33.5t56 -11.5t56 11.5t50 33.5t36 54t14 72v279q0 22 22 22h17q22 0 22 -22v-476q0 -22 -22 -22h-17q-22 0 -22 22v47q-26 -34 -61.5 -56.5t-94.5 -22.5
t-94.5 22.5t-61.5 56.5v-247z" />
    <glyph glyph-name="paragraph" unicode="&#xb6;" horiz-adv-x="491" 
d="M32 523q0 37 14 69t38 56t56 38t69 14h179q22 0 22 -22v-756q0 -22 -22 -22h-17q-22 0 -22 22v720h-79v-720q0 -22 -22 -22h-17q-22 0 -22 22v424q-37 0 -69 14t-56 38t-38 56t-14 69z" />
    <glyph glyph-name="ordmasculine" unicode="&#xba;" horiz-adv-x="361" 
d="M61 594q1 28 11.5 49t26.5 34.5t37 20.5t45 7t45 -7t37 -20.5t26 -34.5t12 -49q1 -8 1 -27t-1 -27q-3 -57 -35.5 -84t-84.5 -27t-84.5 27t-35.5 84q-1 8 -1 27t1 27zM181 647q-28 0 -42.5 -16t-16.5 -42q-1 -8 -1 -22t1 -22q3 -58 59 -58t59 58q1 8 1 22t-1 22
q-2 26 -16.5 42t-42.5 16z" />
    <glyph glyph-name="multiply" unicode="&#xd7;" horiz-adv-x="541" 
d="M227 332l-153 154q-7 7 -7 15.5t7 15.5l12 12q7 7 15.5 7t15.5 -7l153 -154l154 154q7 7 15.5 7t15.5 -7l12 -12q7 -7 7 -15.5t-7 -15.5l-154 -154l154 -153q7 -7 7 -15.5t-7 -15.5l-12 -12q-7 -7 -15.5 -7t-15.5 7l-154 153l-153 -153q-7 -7 -15.5 -7t-15.5 7l-12 12
q-7 7 -7 15.5t7 15.5z" />
    <glyph glyph-name="divide" unicode="&#xf7;" horiz-adv-x="565" 
d="M329 102q0 -10 -6.5 -16t-16.5 -6h-48q-22 0 -22 22v48q0 10 6 16.5t16 6.5h48q10 0 16.5 -6.5t6.5 -16.5v-48zM329 452q0 -10 -6.5 -16t-16.5 -6h-48q-22 0 -22 22v48q0 10 6 16.5t16 6.5h48q10 0 16.5 -6.5t6.5 -16.5v-48zM95 272q-22 0 -22 22v14q0 22 22 22h375
q22 0 22 -22v-14q0 -22 -22 -22h-375z" />
    <glyph glyph-name="thorn" unicode="&#xfe;" horiz-adv-x="581" 
d="M311 -10q-63 0 -103 23t-65 56v-237q0 -22 -22 -22h-17q-22 0 -22 22v856q0 22 22 22h17q22 0 22 -22v-237q25 34 65 56.5t103 22.5q58 0 98.5 -20.5t65.5 -54t36.5 -76t13.5 -86.5q1 -15 1 -33t-1 -33q-2 -44 -13.5 -86.5t-36.5 -76t-65.5 -54t-98.5 -20.5zM143 296
q-1 -15 -1 -39t1 -39q1 -30 10.5 -60.5t29.5 -54.5t50 -39.5t72 -15.5q44 0 73.5 15t48 40.5t27 59t10.5 69.5q1 28 0 56q-2 36 -10.5 69t-27 58.5t-48 41t-73.5 15.5q-43 0 -73 -16t-49.5 -41.5t-29 -56.5t-10.5 -62z" />
    <glyph glyph-name="afii61352" unicode="&#x2116;" horiz-adv-x="1129" 
d="M627 338q0 57 16 103.5t45 79t70 50t91 17.5t91 -17.5t70 -50t45 -79t16 -103.5t-16 -103.5t-45 -79t-70 -50t-91 -17.5t-91 17.5t-70 50t-45 79t-16 103.5zM144 576v-554q0 -22 -23 -22h-18q-22 0 -22 22v655q0 23 22 23h24q10 0 14.5 -5t6.5 -7l366 -566v555
q0 23 22 23h18q23 0 23 -23v-654q0 -23 -22 -23h-24q-10 0 -14.5 5t-6.5 7zM1010 338q0 52 -13.5 88.5t-36 59.5t-51.5 33.5t-60 10.5t-60 -10.5t-51.5 -33.5t-36 -59.5t-13.5 -88.5t13.5 -88.5t36 -59.5t51.5 -33.5t60 -10.5t60 10.5t51.5 33.5t36 59.5t13.5 88.5zM649 0
q-22 0 -22 22v14q0 22 22 22h400q22 0 22 -22v-14q0 -22 -22 -22h-400z" />
    <glyph glyph-name="uni2206" unicode="&#x2206;" horiz-adv-x="615" 
d="M57 0q-11 0 -19 8t-8 19v15q0 6 2 12.5l4 12.5l218 560q5 11 15 22t30 11h17q20 0 30 -11t15 -22l218 -560l4 -12.5t2 -12.5v-15q0 -11 -8 -19t-19 -8h-501zM307 599l-211 -541h423z" />
    <glyph glyph-name="product" unicode="&#x220f;" horiz-adv-x="599" 
d="M103 -200q-22 0 -22 22v856q0 22 22 22h393q22 0 22 -22v-856q0 -22 -22 -22h-18q-22 0 -22 22v820h-313v-820q0 -22 -22 -22h-18z" />
    <glyph glyph-name="summation" unicode="&#x2211;" horiz-adv-x="509" 
d="M41 -161q0 14 14 31l337 373v14l-337 373q-14 17 -14 31v17q0 22 22 22h362q22 0 22 -22v-14q0 -22 -22 -22h-302l309 -340q7 -8 11 -15t4 -18v-38q0 -11 -4 -18t-11 -15l-309 -340h302q22 0 22 -22v-14q0 -22 -22 -22h-362q-22 0 -22 22v17z" />
    <glyph glyph-name="radical" unicode="&#x221a;" horiz-adv-x="664" 
d="M446 836q2 8 8 16t17 8h156q22 0 22 -22v-14q0 -22 -22 -22h-126l-216 -777q-8 -25 -25 -25h-49q-10 0 -15 5t-7 10l-159 474q-2 6 -2 11q0 8 6 14t14 6h20q10 0 15 -5.5t7 -9.5l144 -432z" />
    <glyph glyph-name="infinity" unicode="&#x221e;" horiz-adv-x="832" 
d="M600 49q-32 0 -58 12t-48.5 33t-41.5 48.5t-36 57.5q-17 -30 -35.5 -57.5t-41 -48t-49 -33t-59.5 -12.5q-46 0 -78 18.5t-52 49.5t-29 71t-9 83t9 83t28.5 71t51.5 49.5t79 18.5q32 0 58.5 -13.5t49 -36t42 -51.5t36.5 -61q17 32 36 61t41 51.5t48 36t57 13.5
q47 0 79.5 -18.5t52.5 -49.5t29 -71t9 -83t-9 -83t-29 -71t-52.5 -49.5t-78.5 -18.5zM601 433q-25 0 -46 -14t-39 -37t-34 -53l-32 -63q16 -31 32.5 -59.5t34.5 -50.5t38.5 -35t45.5 -13q48 0 78 40t30 123t-31 122.5t-77 39.5zM231 109q24 0 44.5 12.5t38.5 34t34.5 49.5
t32.5 59l-34 63.5t-35 54t-37.5 37.5t-43.5 14q-47 0 -77.5 -39.5t-30.5 -122.5t30.5 -122.5t77.5 -39.5z" />
    <glyph glyph-name="integral" unicode="&#x222b;" horiz-adv-x="421" 
d="M242 -57q0 -35 -6.5 -66t-23.5 -53.5t-46 -35.5t-75 -13h-53q-22 0 -22 22v14q0 22 22 22h53q30 0 48 8.5t27.5 23.5t12 35t2.5 43v634q0 33 6.5 63t23.5 52t46 35t75 13h52q22 0 22 -22v-14q0 -22 -22 -22h-52q-53 0 -71.5 -28.5t-18.5 -81.5v-629z" />
    <glyph glyph-name="lozenge" unicode="&#x25ca;" horiz-adv-x="532" 
d="M49 355q0 8 2.5 15t5.5 13l153 294q5 11 17.5 22t32.5 11h12q20 0 32.5 -11t17.5 -22l153 -294q3 -6 5.5 -13t2.5 -15t-2.5 -15t-5.5 -13l-153 -294q-5 -11 -17.5 -22t-32.5 -11h-12q-20 0 -32.5 11t-17.5 22l-153 294q-3 6 -5.5 13t-2.5 15zM266 655l-157 -300l157 -300
l157 300z" />
    <glyph glyph-name="caron" unicode="&#x2c7;" horiz-adv-x="412" 
d="M201 595q-8 0 -14.5 1.5t-17.5 12.5l-87 85q-12 12 -12 20q0 11 14 11h17q6 0 13.5 -2t11.5 -5l80 -60l80 60q4 3 11.5 5t13.5 2h17q14 0 14 -11q0 -8 -12 -20l-87 -85q-11 -11 -17.5 -12.5t-14.5 -1.5h-10z" />
    <glyph glyph-name="alefhebrew" unicode="&#x5d0;" horiz-adv-x="538" 
d="M196 338q-22 -17 -35 -37.5t-19.5 -42.5t-8 -45.5t-1.5 -46.5v-144q0 -22 -22 -22h-17q-22 0 -22 22v149q0 29 2.5 58.5t12 57.5t27.5 53.5t49 46.5l-98 144q-8 12 -8 20t6 14t14 6h19q10 0 15.5 -5t9.5 -10l217 -318q24 16 38.5 35.5t21.5 40.5t9 44t2 47v144
q0 22 22 22h17q22 0 22 -22v-149q0 -31 -3 -60t-13 -55.5t-29.5 -51t-52.5 -45.5l101 -148q8 -12 8 -20t-6 -14t-14 -6h-19q-10 0 -15 5l-10 10z" />
    <glyph glyph-name="bethebrew" unicode="&#x5d1;" horiz-adv-x="548" 
d="M52 549q0 22 22 22h137q128 0 187.5 -64t59.5 -180v-269h38q22 0 22 -22v-14q0 -22 -22 -22h-432q-22 0 -22 22v14q0 22 22 22h333v264q0 90 -45 140.5t-146 50.5h-132q-22 0 -22 22v14v0z" />
    <glyph glyph-name="gimelhebrew" unicode="&#x5d2;" horiz-adv-x="500" 
d="M323 223h-28q-102 0 -146.5 -46.5t-44.5 -137.5v-17q0 -22 -22 -22h-17q-22 0 -22 22v23q0 117 59.5 176.5t187.5 59.5h27v51q0 90 -42.5 140.5t-143.5 50.5h-37q-22 0 -22 22v14q0 22 22 22h37q128 0 187.5 -63.5t59.5 -180.5v-88l89 -209q6 -15 6 -20q0 -8 -6 -14
t-14 -6h-18q-10 0 -15 4.5t-8 10.5z" />
    <glyph glyph-name="dalethebrew" unicode="&#x5d3;" horiz-adv-x="499" 
d="M361 513v-491q0 -22 -22 -22h-17q-22 0 -22 22v491h-264q-22 0 -22 22v14q0 22 22 22h422q22 0 22 -22v-14q0 -22 -22 -22h-97z" />
    <glyph glyph-name="hehebrew" unicode="&#x5d4;" horiz-adv-x="608" 
d="M84 549q0 22 22 22h177q128 0 187.5 -63.5t59.5 -180.5v-305q0 -22 -22 -22h-17q-22 0 -22 22v300q0 90 -45 140.5t-146 50.5h-172q-22 0 -22 22v14zM145 22q0 -22 -22 -22h-17q-22 0 -22 22v419q0 22 22 22h17q22 0 22 -22v-419z" />
    <glyph glyph-name="vavhebrew" unicode="&#x5d5;" horiz-adv-x="229" 
d="M145 22q0 -22 -22 -22h-17q-22 0 -22 22v527q0 22 22 22h17q22 0 22 -22v-527z" />
    <glyph glyph-name="zayinhebrew" unicode="&#x5d6;" horiz-adv-x="449" 
d="M311 22q0 -22 -22 -22h-17q-22 0 -22 22v388q0 33 7 58.5t24 44.5h-245q-22 0 -22 22v14q0 22 22 22h372q22 0 22 -22v-14q0 -22 -22 -22h-13q-25 -1 -41 -10t-25.5 -23t-13.5 -33.5t-4 -41.5v-383v0z" />
    <glyph glyph-name="hethebrew" unicode="&#x5d7;" horiz-adv-x="609" 
d="M84 549q0 22 22 22h178q128 0 187.5 -63.5t59.5 -180.5v-305q0 -22 -22 -22h-17q-22 0 -22 22v300q0 90 -45 140.5t-146 50.5h-134v-491q0 -22 -22 -22h-17q-22 0 -22 22v527v0z" />
    <glyph glyph-name="tethebrew" unicode="&#x5d8;" horiz-adv-x="624" 
d="M316 581q127 0 185.5 -59t61.5 -175q0 -8 0.5 -25t0.5 -36.5t-0.5 -37t-0.5 -24.5q-2 -58 -15 -102t-41.5 -73t-74 -44t-111.5 -15t-112 16.5t-75 47.5t-42 76.5t-13 103.5v315q0 22 22 22h17q22 0 22 -22v-310q0 -91 43.5 -141t137.5 -50t136.5 45t44.5 136q0 7 0.5 23
t0.5 33.5t-0.5 33t-0.5 23.5q-2 90 -46 135.5t-145 45.5h-89q-22 0 -22 22v14q0 22 22 22h94v0z" />
    <glyph glyph-name="yodhebrew" unicode="&#x5d9;" horiz-adv-x="213" 
d="M137 262q0 -22 -22 -22h-17q-22 0 -22 22v287q0 22 22 22h17q22 0 22 -22v-287z" />
    <glyph glyph-name="finalkafhebrew" unicode="&#x5da;" horiz-adv-x="500" 
d="M480 549v-14q0 -22 -22 -22h-92v-615q0 -22 -22 -22h-17q-22 0 -22 22v615h-269q-22 0 -22 22v14q0 22 22 22h422q22 0 22 -22z" />
    <glyph glyph-name="kafhebrew" unicode="&#x5db;" horiz-adv-x="552" 
d="M493 327q1 -23 1 -41.5t-1 -41.5q-2 -58 -17 -103.5t-45 -76.5t-75.5 -47.5t-109.5 -16.5h-177q-22 0 -22 22v14q0 22 22 22h172q51 0 86.5 13t58 37.5t33.5 60t13 80.5q1 23 1 36.5t-1 36.5q-3 90 -46.5 140.5t-144.5 50.5h-172q-22 0 -22 22v14q0 22 22 22h177
q64 0 109.5 -16.5t75.5 -47.5t45 -76.5t17 -103.5z" />
    <glyph glyph-name="lamedhebrew" unicode="&#x5dc;" horiz-adv-x="513" 
d="M78 571h333q22 0 22 -22v-377q0 -86 -47.5 -134t-133.5 -48h-33q-22 0 -22 22v14q0 22 22 22h29q68 2 96 37t28 94v334h-333q-22 0 -22 22v153q0 22 22 22h17q22 0 22 -22v-117z" />
    <glyph glyph-name="finalmemhebrew" unicode="&#x5dd;" horiz-adv-x="608" 
d="M84 549q0 22 22 22h177q128 0 187.5 -63.5t59.5 -180.5v-291v-14q0 -22 -22 -22h-402q-22 0 -22 22v527zM144 58h325v264q0 90 -45 140.5t-146 50.5h-134v-455z" />
    <glyph glyph-name="memhebrew" unicode="&#x5de;" horiz-adv-x="654" 
d="M101 15q-2 -6 -7.5 -10.5t-15.5 -4.5h-18q-8 0 -14 6t-6 14q0 5 6 20l190 473h-164q-22 0 -22 22v14q0 22 22 22h257q128 0 187.5 -63.5t59.5 -180.5v-305q0 -22 -22 -22h-97q-22 0 -22 22v14q0 22 22 22h58v264q0 90 -45 140.5t-146 50.5h-23l-200 -498v0z" />
    <glyph glyph-name="finalnunhebrew" unicode="&#x5df;" horiz-adv-x="229" 
d="M145 -102q0 -22 -22 -22h-17q-22 0 -22 22v651q0 22 22 22h17q22 0 22 -22v-651v0z" />
    <glyph glyph-name="nunhebrew" unicode="&#x5e0;" horiz-adv-x="436" 
d="M51 559q0 22 22 22h32q69 0 117 -17.5t78 -50t43.5 -77.5t13.5 -99v-315q0 -22 -22 -22h-272q-22 0 -22 22v14q0 22 22 22h233v274q0 49 -9.5 85t-31.5 59.5t-59 35t-91 11.5h-32q-22 0 -22 22v14v0z" />
    <glyph glyph-name="samekhhebrew" unicode="&#x5e1;" horiz-adv-x="583" 
d="M305 571q208 0 217 -234q0 -8 0.5 -23.5t0.5 -33t-0.5 -33.5t-0.5 -23q-6 -234 -222 -234q-109 0 -165.5 64t-56.5 185v310q0 22 22 22h205zM461 332q-5 181 -161 181h-161v-274q0 -91 41 -141t120 -50q156 0 161 181q0 7 0.5 21.5t0.5 30t-0.5 29.5t-0.5 22z" />
    <glyph glyph-name="ayinhebrew" unicode="&#x5e2;" horiz-adv-x="617" 
d="M287 58q101 0 146 50.5t45 140.5v300q0 22 22 22h17q22 0 22 -22v-305q0 -116 -60.5 -180t-191.5 -64h-228q-22 0 -22 22v14q0 22 22 22h164l-162 473q-2 8 -3.5 12t-1.5 8q0 8 6 14t14 6h18q10 0 15.5 -4.5t7.5 -10.5z" />
    <glyph glyph-name="finalpehebrew" unicode="&#x5e3;" horiz-adv-x="569" 
d="M246 147q-97 0 -144.5 49t-47.5 135v218q0 22 22 22h167q128 0 187.5 -63.5t59.5 -180.5v-429q0 -22 -22 -22h-17q-22 0 -22 22v424q0 90 -45 140.5t-146 50.5h-123v-177q0 -60 30 -95.5t101 -35.5h91q22 0 22 -22v-14q0 -22 -22 -22h-91z" />
    <glyph glyph-name="finaltsadihebrew" unicode="&#x5e5;" horiz-adv-x="477" 
d="M40 531q-6 15 -6 20q0 8 6 14t14 6h18q17 0 27 -24l113 -285q86 8 124 57t38 133v97q0 22 22 22h17q22 0 22 -22v-102q0 -104 -50.5 -165.5t-149.5 -75.5l116 -290q6 -15 6 -20q0 -8 -6 -14t-14 -6h-21q-10 0 -15 4.5t-8 10.5z" />
    <glyph glyph-name="pehebrew" unicode="&#x5e4;" horiz-adv-x="635" 
d="M576 327q0 -8 0.5 -19t0.5 -22.5t-0.5 -23t-0.5 -18.5q-3 -116 -61.5 -180t-185.5 -64h-248q-22 0 -22 22v14q0 22 22 22h243q51 0 86.5 13t58 37.5t33.5 60t13 80.5q1 15 1 36.5t-1 36.5q-2 90 -46 140.5t-145 50.5h-204v-64q0 -60 30 -95.5t101 -35.5h72q22 0 22 -22
v-14q0 -22 -22 -22h-72q-97 0 -144.5 49t-47.5 135v105q0 22 22 22h248q127 0 185.5 -64t61.5 -180z" />
    <glyph glyph-name="tsadihebrew" unicode="&#x5e6;" horiz-adv-x="511" 
d="M72 571q9 0 15 -5t10 -11l191 -279q52 20 75.5 65t23.5 111v97q0 22 22 22h17q22 0 22 -22v-102q0 -82 -30 -139t-95 -83l110 -159q11 -16 11 -30v-14q0 -22 -22 -22h-348q-22 0 -22 22v14q0 22 22 22h288l-321 473q-8 12 -8 20t6.5 14t14.5 6h18v0z" />
    <glyph glyph-name="qofhebrew" unicode="&#x5e7;" horiz-adv-x="610" 
d="M106 513q-22 0 -22 22v14q0 22 22 22h402q22 0 22 -22v-375q0 -86 -47 -135t-140 -49h-27q-22 0 -22 22v14q0 22 22 22h22q71 0 101 35.5t30 95.5v334h-363zM145 -169q0 -22 -22 -22h-17q-22 0 -22 22v610q0 22 22 22h17q22 0 22 -22v-610z" />
    <glyph glyph-name="reshhebrew" unicode="&#x5e8;" horiz-adv-x="489" 
d="M14 549q0 22 22 22h127q128 0 187.5 -63.5t59.5 -180.5v-305q0 -22 -22 -22h-17q-22 0 -22 22v300q0 90 -45 140.5t-146 50.5h-122q-22 0 -22 22v14z" />
    <glyph glyph-name="shinhebrew" unicode="&#x5e9;" horiz-adv-x="709" 
d="M141 179q71 0 101 35.5t30 95.5v239q0 22 22 22h17q22 0 22 -22v-244q0 -85 -46 -133.5t-138 -50.5q11 -35 40.5 -54t82.5 -19h165q71 0 101 35.5t30 95.5v370q0 22 22 22h17q22 0 22 -22v-375q0 -86 -45.5 -135t-141.5 -49h-175q-96 0 -141.5 49t-45.5 135v375
q0 22 22 22h17q22 0 22 -22v-370z" />
    <glyph glyph-name="tavhebrew" unicode="&#x5ea;" horiz-adv-x="649" 
d="M45 36q0 22 22 22h58v455h-58q-22 0 -22 22v14q0 22 22 22h257q128 0 187.5 -63.5t59.5 -180.5v-305q0 -22 -22 -22h-17q-22 0 -22 22v300q0 90 -45 140.5t-146 50.5h-134v-491q0 -22 -22 -22h-96q-22 0 -22 22v14v0z" />
    <glyph glyph-name="afii10017" unicode="&#x410;" horiz-adv-x="652" 
d="M503 175h-354l-62 -160q-2 -4 -7 -9.5t-15 -5.5h-20q-8 0 -14 6t-6 14q0 5 2 11l253 649q4 10 10.5 15t18.5 5h34q12 0 18.5 -5t10.5 -15l253 -649q2 -6 2 -11q0 -8 -6 -14t-14 -6h-20q-10 0 -15 5.5t-7 9.5zM173 235h306l-153 394z" />
    <glyph glyph-name="afii10018" unicode="&#x411;" horiz-adv-x="632" 
d="M157 640v-237h223q50 0 89 -14t66 -40.5t41 -63t14 -81.5q0 -33 -12.5 -69t-38 -66t-65 -49.5t-94.5 -19.5h-264q-22 0 -22 22v655q0 23 22 23h386q23 0 23 -23v-15q0 -22 -23 -22h-345zM157 343v-283h213q37 0 66 11.5t49.5 32t31 47t10.5 56.5q0 61 -38 98.5t-119 37.5
h-213z" />
    <glyph glyph-name="afii10019" unicode="&#x412;" horiz-adv-x="653" 
d="M116 0q-22 0 -22 22v655q0 23 22 23h261q52 0 90 -14.5t63 -39.5t36.5 -57t11.5 -68q0 -32 -8 -57t-21 -44t-28.5 -31.5t-30.5 -19.5q20 -10 38.5 -26t32.5 -38t22.5 -49t8.5 -58q0 -38 -13.5 -73.5t-39.5 -63.5t-65 -44.5t-90 -16.5h-268zM157 640v-244h207
q75 0 113 32.5t38 92.5q0 119 -151 119h-207zM157 336v-276h217q75 0 115 39t40 99q0 61 -40 99.5t-115 38.5h-217z" />
    <glyph glyph-name="afii10020" unicode="&#x413;" horiz-adv-x="545" 
d="M502 700q23 0 23 -23v-15q0 -22 -23 -22h-345v-618q0 -22 -23 -22h-18q-22 0 -22 22v655q0 23 22 23h386z" />
    <glyph glyph-name="afii10021" unicode="&#x414;" horiz-adv-x="674" 
d="M551 700q23 0 23 -22v-618h20q23 0 23 -22v-126q0 -22 -23 -22h-18q-22 0 -22 22v88h-473v-88q0 -22 -23 -22h-18q-22 0 -22 22v126q0 22 22 22h18q37 2 59 26t22 82v510q0 22 22 22h390zM202 640v-482q0 -29 -5 -48t-11 -30q-7 -13 -15 -20h340v580h-309z" />
    <glyph glyph-name="afii10022" unicode="&#x415;" horiz-adv-x="592" 
d="M514 60q23 0 23 -23v-15q0 -22 -23 -22h-398q-22 0 -22 22v655q0 23 22 23h390q23 0 23 -23v-15q0 -22 -23 -22h-349v-255h327q23 0 23 -23v-15q0 -22 -23 -22h-327v-265h357z" />
    <glyph glyph-name="afii10024" unicode="&#x416;" horiz-adv-x="651" 
d="M357 424l187 261q10 15 23 15h24q8 0 14 -6t6 -14q0 -7 -4 -13l-223 -310l234 -324q4 -6 4 -13q0 -8 -6 -14t-14 -6h-24q-13 0 -23 15l-198 273v-266q0 -22 -22 -22h-19q-22 0 -22 22v266l-198 -273q-11 -15 -23 -15h-24q-8 0 -14 6t-6 14q0 7 4 13l234 324l-223 310
q-4 6 -4 13q0 8 6 14t14 6h24q12 0 23 -15l187 -261v254q0 22 22 22h19q22 0 22 -22v-254z" />
    <glyph glyph-name="afii10025" unicode="&#x417;" horiz-adv-x="605" 
d="M297 710q58 0 100.5 -16t70 -41.5t41 -58.5t13.5 -67q0 -48 -18 -90.5t-62 -68.5q52 -26 78.5 -71t26.5 -104q0 -45 -18 -82.5t-51 -64t-80 -41.5t-105 -15q-54 0 -98 12.5t-75 35.5t-49.5 54t-21.5 69q-1 9 5.5 14t15.5 5h16q8 0 15.5 -4t11.5 -19q12 -48 58 -77.5
t122 -29.5q38 0 72.5 9.5t61 28t42 45t15.5 60.5q0 68 -48.5 105.5t-129.5 37.5h-71q-22 0 -22 22v15q0 23 22 23h66q70 0 114 31.5t44 99.5q0 28 -13 51t-35.5 39t-51.5 24.5t-62 8.5q-69 0 -116 -25t-59 -84q-2 -12 -8 -16.5t-14 -4.5h-20q-9 0 -15.5 5.5t-5.5 14.5
q7 81 69 125.5t169 44.5z" />
    <glyph glyph-name="afii10026" unicode="&#x418;" horiz-adv-x="684" 
d="M527.01 574v-552q0 -22 22.998 -22h17.999q21.999 0 21.999 22v655q0 23 -21.999 23h-20.998q-10 0 -14.499 -5q-4.5 -5 -6.5 -7l-368.978 -564v553q0 23 -21.999 23h-17.999q-22.998 0 -22.998 -23v-654q0 -23 21.999 -23h21.998q10 0 14.499 5q4.5 5 6.5 7z" />
    <glyph glyph-name="afii10027" unicode="&#x419;" horiz-adv-x="684" 
d="M227 856q0 8 5 13.5t14 5.5h15q9 0 14 -5.5t5 -13.5q0 -12 3 -24t10 -21t19 -15t30 -6t30 6t19 15t10 21t3 24q0 8 5 13.5t14 5.5h15q9 0 14 -5.5t5 -13.5q0 -21 -5 -42t-18 -37.5t-35.5 -26.5t-56.5 -10t-56.5 10t-35.5 26.5t-18 37.5t-5 42zM527.01 574v-552
q0 -22 22.998 -22h17.999q21.999 0 21.999 22v655q0 23 -21.999 23h-20.998q-10 0 -14.499 -5q-4.5 -5 -6.5 -7l-368.978 -564v553q0 23 -21.999 23h-17.999q-22.998 0 -22.998 -23v-654q0 -23 21.999 -23h21.998q10 0 14.499 5q4.5 5 6.5 7z" />
    <glyph glyph-name="afii10028" unicode="&#x41a;" horiz-adv-x="575" 
d="M157 417l303 268q4 3 13 9t25 6h16q8 0 14 -6t6 -14t-5 -13l-339 -302l360 -331q6 -6 6 -14t-6 -14t-14 -6h-17q-16 0 -25 6t-13 9l-324 296v-289q0 -22 -23 -22h-18q-22 0 -22 22v655q0 23 22 23h18q23 0 23 -23v-260z" />
    <glyph glyph-name="afii10029" unicode="&#x41b;" horiz-adv-x="676" 
d="M559 700q23 0 23 -23v-655q0 -22 -23 -22h-18q-22 0 -22 22v618h-305v-467q0 -33 -7.5 -65.5t-26 -58.5t-49.5 -42.5t-77 -16.5h-18q-22 0 -22 22v15q0 23 22 23h11q24 0 43 6t32.5 20t21 38t7.5 59v504q0 23 22 23h386z" />
    <glyph glyph-name="afii10030" unicode="&#x41c;" horiz-adv-x="780" 
d="M379 168q-22 0 -31 20l-191 376v-542q0 -22 -22 -22h-18q-23 0 -23 22v655q0 23 23 23h25q10 0 14.5 -5t6.5 -8l227 -442l228 442q2 3 6.5 8t14.5 5h24q23 0 23 -23v-655q0 -22 -23 -22h-18q-22 0 -22 22v542l-191 -376q-9 -20 -31 -20h-22z" />
    <glyph glyph-name="afii10031" unicode="&#x41d;" horiz-adv-x="700" 
d="M583 700q23 0 23 -23v-655q0 -22 -23 -22h-18q-22 0 -22 22v303h-386v-303q0 -22 -23 -22h-18q-22 0 -22 22v655q0 23 22 23h18q23 0 23 -23v-292h386v292q0 23 22 23h18z" />
    <glyph glyph-name="afii10032" unicode="&#x41e;" horiz-adv-x="662" 
d="M331 710q58 0 106 -17t82.5 -51.5t54 -86t21.5 -121.5q2 -45 2 -84t-2 -84q-4 -142 -72 -209t-192 -67q-125 0 -192.5 67t-71.5 209q-2 45 -2 84t2 84q2 70 21.5 121.5t54 86t82 51.5t106.5 17zM331 650q-42 0 -78 -12.5t-63 -39.5t-42.5 -69t-17.5 -100q-1 -23 -1.5 -42
t-0.5 -37t0.5 -37.5t1.5 -41.5q2 -59 17.5 -100.5t42 -68.5t62.5 -39.5t79 -12.5t79 12.5t62.5 39.5t42 68.5t17.5 100.5q1 22 1 41.5v37.5v37t-1 42q-2 58 -17.5 100t-42.5 69t-63 39.5t-78 12.5z" />
    <glyph glyph-name="afii10033" unicode="&#x41f;" horiz-adv-x="700" 
d="M116 0q-22 0 -22 22v655q0 23 22 23h467q23 0 23 -23v-655q0 -22 -23 -22h-18q-22 0 -22 22v618h-386v-618q0 -22 -23 -22h-18v0z" />
    <glyph glyph-name="afii10034" unicode="&#x420;" horiz-adv-x="628" 
d="M359 700q105 0 167.5 -52.5t62.5 -154.5t-62.5 -154.5t-167.5 -52.5h-202v-264q0 -22 -23 -22h-18q-22 0 -22 22v655q0 23 22 23h243zM157 346h197q88 0 130 37.5t42 109.5t-42 109.5t-130 37.5h-197v-294z" />
    <glyph glyph-name="afii10035" unicode="&#x421;" horiz-adv-x="651" 
d="M129 434q-3 -83 0 -168q4 -114 57 -165t145 -51q40 0 73.5 7.5t59 25.5t43.5 47.5t28 74.5q2 12 8 16.5t14 4.5h20q9 0 15.5 -5.5t5.5 -14.5q-2 -36 -17 -74t-47 -69.5t-82 -52t-121 -20.5q-68 0 -117 20.5t-81.5 56.5t-48.5 85.5t-18 108.5q-2 41 -2 88t2 90
q2 58 18 108t48.5 86t81.5 56.5t117 20.5q71 0 121 -20.5t82 -52t47 -69.5t17 -74q1 -9 -5.5 -14.5t-15.5 -5.5h-20q-8 0 -14 4.5t-8 16.5q-10 45 -28 74.5t-43.5 47.5t-59 25.5t-73.5 7.5q-92 0 -145 -51t-57 -165z" />
    <glyph glyph-name="afii10036" unicode="&#x422;" horiz-adv-x="557" 
d="M507 700q23 0 23 -23v-15q0 -22 -23 -22h-197v-618q0 -22 -23 -22h-18q-22 0 -22 22v618h-198q-22 0 -22 22v15q0 23 22 23h458z" />
    <glyph glyph-name="afii10037" unicode="&#x423;" horiz-adv-x="595" 
d="M305 275l219 410q7 15 23 15h21q8 0 14 -6t6 -14q0 -6 -3 -12l-247 -464l-36 -66.5t-43.5 -66t-55.5 -51t-72 -20.5h-34q-22 0 -22 22v15q0 23 22 23h34q26 0 46 13.5t35.5 35t29.5 47.5l28 52l-244 460q-3 6 -3 12q0 8 6 14t14 6h21q15 0 23 -15z" />
    </font>
</defs>
</svg>
